<?xml version="1.0" encoding="utf-8" standalone="no"?>
<!DOCTYPE svg PUBLIC "-//W3C//DTD SVG 1.1//EN"
  "http://www.w3.org/Graphics/SVG/1.1/DTD/svg11.dtd">
<svg xmlns:xlink="http://www.w3.org/1999/xlink" width="460.8pt" height="345.6pt" viewBox="0 0 460.8 345.6" xmlns="http://www.w3.org/2000/svg" version="1.1">
 <metadata>
  <rdf:RDF xmlns:dc="http://purl.org/dc/elements/1.1/" xmlns:cc="http://creativecommons.org/ns#" xmlns:rdf="http://www.w3.org/1999/02/22-rdf-syntax-ns#">
   <cc:Work>
    <dc:type rdf:resource="http://purl.org/dc/dcmitype/StillImage"/>
    <dc:date>2023-12-28T18:32:23.477114</dc:date>
    <dc:format>image/svg+xml</dc:format>
    <dc:creator>
     <cc:Agent>
      <dc:title>Matplotlib v3.8.1, https://matplotlib.org/</dc:title>
     </cc:Agent>
    </dc:creator>
   </cc:Work>
  </rdf:RDF>
 </metadata>
 <defs>
  <style type="text/css">*{stroke-linejoin: round; stroke-linecap: butt}</style>
 </defs>
 <g id="figure_1">
  <g id="patch_1">
   <path d="M 0 345.6 
L 460.8 345.6 
L 460.8 0 
L 0 0 
z
" style="fill: #ffffff"/>
  </g>
  <g id="axes_1">
   <g id="patch_2">
    <path d="M 57.6 307.584 
L 414.72 307.584 
L 414.72 41.472 
L 57.6 41.472 
z
" style="fill: #ffffff"/>
   </g>
   <g id="patch_3">
    <path d="M 73.832727 307.584 
L 75.818382 307.584 
L 75.818382 305.327858 
L 73.832727 305.327858 
z
" clip-path="url(#pdd3f6a9e4b)" style="fill: #1f77b4; opacity: 0.35"/>
   </g>
   <g id="patch_4">
    <path d="M 76.314796 307.584 
L 78.30045 307.584 
L 78.30045 307.584 
L 76.314796 307.584 
z
" clip-path="url(#pdd3f6a9e4b)" style="fill: #1f77b4; opacity: 0.35"/>
   </g>
   <g id="patch_5">
    <path d="M 78.796864 307.584 
L 80.782519 307.584 
L 80.782519 306.831953 
L 78.796864 306.831953 
z
" clip-path="url(#pdd3f6a9e4b)" style="fill: #1f77b4; opacity: 0.35"/>
   </g>
   <g id="patch_6">
    <path d="M 81.278932 307.584 
L 83.264587 307.584 
L 83.264587 306.831953 
L 81.278932 306.831953 
z
" clip-path="url(#pdd3f6a9e4b)" style="fill: #1f77b4; opacity: 0.35"/>
   </g>
   <g id="patch_7">
    <path d="M 83.761001 307.584 
L 85.746656 307.584 
L 85.746656 304.57581 
L 83.761001 304.57581 
z
" clip-path="url(#pdd3f6a9e4b)" style="fill: #1f77b4; opacity: 0.35"/>
   </g>
   <g id="patch_8">
    <path d="M 86.243069 307.584 
L 88.228724 307.584 
L 88.228724 297.807383 
L 86.243069 297.807383 
z
" clip-path="url(#pdd3f6a9e4b)" style="fill: #1f77b4; opacity: 0.35"/>
   </g>
   <g id="patch_9">
    <path d="M 88.725138 307.584 
L 90.710792 307.584 
L 90.710792 303.071715 
L 88.725138 303.071715 
z
" clip-path="url(#pdd3f6a9e4b)" style="fill: #1f77b4; opacity: 0.35"/>
   </g>
   <g id="patch_10">
    <path d="M 91.207206 307.584 
L 93.192861 307.584 
L 93.192861 303.823763 
L 91.207206 303.823763 
z
" clip-path="url(#pdd3f6a9e4b)" style="fill: #1f77b4; opacity: 0.35"/>
   </g>
   <g id="patch_11">
    <path d="M 93.689274 307.584 
L 95.674929 307.584 
L 95.674929 305.327858 
L 93.689274 305.327858 
z
" clip-path="url(#pdd3f6a9e4b)" style="fill: #1f77b4; opacity: 0.35"/>
   </g>
   <g id="patch_12">
    <path d="M 96.171343 307.584 
L 98.156997 307.584 
L 98.156997 302.319668 
L 96.171343 302.319668 
z
" clip-path="url(#pdd3f6a9e4b)" style="fill: #1f77b4; opacity: 0.35"/>
   </g>
   <g id="patch_13">
    <path d="M 98.653411 307.584 
L 100.639066 307.584 
L 100.639066 293.295098 
L 98.653411 293.295098 
z
" clip-path="url(#pdd3f6a9e4b)" style="fill: #1f77b4; opacity: 0.35"/>
   </g>
   <g id="patch_14">
    <path d="M 101.13548 307.584 
L 103.121134 307.584 
L 103.121134 291.038955 
L 101.13548 291.038955 
z
" clip-path="url(#pdd3f6a9e4b)" style="fill: #1f77b4; opacity: 0.35"/>
   </g>
   <g id="patch_15">
    <path d="M 103.617548 307.584 
L 105.603203 307.584 
L 105.603203 287.278718 
L 103.617548 287.278718 
z
" clip-path="url(#pdd3f6a9e4b)" style="fill: #1f77b4; opacity: 0.35"/>
   </g>
   <g id="patch_16">
    <path d="M 106.099616 307.584 
L 108.085271 307.584 
L 108.085271 285.022576 
L 106.099616 285.022576 
z
" clip-path="url(#pdd3f6a9e4b)" style="fill: #1f77b4; opacity: 0.35"/>
   </g>
   <g id="patch_17">
    <path d="M 108.581685 307.584 
L 110.567339 307.584 
L 110.567339 287.278718 
L 108.581685 287.278718 
z
" clip-path="url(#pdd3f6a9e4b)" style="fill: #1f77b4; opacity: 0.35"/>
   </g>
   <g id="patch_18">
    <path d="M 111.063753 307.584 
L 113.049408 307.584 
L 113.049408 291.038955 
L 111.063753 291.038955 
z
" clip-path="url(#pdd3f6a9e4b)" style="fill: #1f77b4; opacity: 0.35"/>
   </g>
   <g id="patch_19">
    <path d="M 113.545822 307.584 
L 115.531476 307.584 
L 115.531476 286.526671 
L 113.545822 286.526671 
z
" clip-path="url(#pdd3f6a9e4b)" style="fill: #1f77b4; opacity: 0.35"/>
   </g>
   <g id="patch_20">
    <path d="M 116.02789 307.584 
L 118.013545 307.584 
L 118.013545 285.022576 
L 116.02789 285.022576 
z
" clip-path="url(#pdd3f6a9e4b)" style="fill: #1f77b4; opacity: 0.35"/>
   </g>
   <g id="patch_21">
    <path d="M 118.509958 307.584 
L 120.495613 307.584 
L 120.495613 288.782813 
L 118.509958 288.782813 
z
" clip-path="url(#pdd3f6a9e4b)" style="fill: #1f77b4; opacity: 0.35"/>
   </g>
   <g id="patch_22">
    <path d="M 120.992027 307.584 
L 122.977681 307.584 
L 122.977681 284.270528 
L 120.992027 284.270528 
z
" clip-path="url(#pdd3f6a9e4b)" style="fill: #1f77b4; opacity: 0.35"/>
   </g>
   <g id="patch_23">
    <path d="M 123.474095 307.584 
L 125.45975 307.584 
L 125.45975 291.038955 
L 123.474095 291.038955 
z
" clip-path="url(#pdd3f6a9e4b)" style="fill: #1f77b4; opacity: 0.35"/>
   </g>
   <g id="patch_24">
    <path d="M 125.956163 307.584 
L 127.941818 307.584 
L 127.941818 289.534861 
L 125.956163 289.534861 
z
" clip-path="url(#pdd3f6a9e4b)" style="fill: #1f77b4; opacity: 0.35"/>
   </g>
   <g id="patch_25">
    <path d="M 128.438232 307.584 
L 130.423887 307.584 
L 130.423887 277.502101 
L 128.438232 277.502101 
z
" clip-path="url(#pdd3f6a9e4b)" style="fill: #1f77b4; opacity: 0.35"/>
   </g>
   <g id="patch_26">
    <path d="M 130.9203 307.584 
L 132.905955 307.584 
L 132.905955 286.526671 
L 130.9203 286.526671 
z
" clip-path="url(#pdd3f6a9e4b)" style="fill: #1f77b4; opacity: 0.35"/>
   </g>
   <g id="patch_27">
    <path d="M 133.402369 307.584 
L 135.388023 307.584 
L 135.388023 282.014386 
L 133.402369 282.014386 
z
" clip-path="url(#pdd3f6a9e4b)" style="fill: #1f77b4; opacity: 0.35"/>
   </g>
   <g id="patch_28">
    <path d="M 135.884437 307.584 
L 137.870092 307.584 
L 137.870092 288.030766 
L 135.884437 288.030766 
z
" clip-path="url(#pdd3f6a9e4b)" style="fill: #1f77b4; opacity: 0.35"/>
   </g>
   <g id="patch_29">
    <path d="M 138.366505 307.584 
L 140.35216 307.584 
L 140.35216 275.245958 
L 138.366505 275.245958 
z
" clip-path="url(#pdd3f6a9e4b)" style="fill: #1f77b4; opacity: 0.35"/>
   </g>
   <g id="patch_30">
    <path d="M 140.848574 307.584 
L 142.834229 307.584 
L 142.834229 272.237769 
L 140.848574 272.237769 
z
" clip-path="url(#pdd3f6a9e4b)" style="fill: #1f77b4; opacity: 0.35"/>
   </g>
   <g id="patch_31">
    <path d="M 143.330642 307.584 
L 145.316297 307.584 
L 145.316297 268.477531 
L 143.330642 268.477531 
z
" clip-path="url(#pdd3f6a9e4b)" style="fill: #1f77b4; opacity: 0.35"/>
   </g>
   <g id="patch_32">
    <path d="M 145.812711 307.584 
L 147.798365 307.584 
L 147.798365 278.254148 
L 145.812711 278.254148 
z
" clip-path="url(#pdd3f6a9e4b)" style="fill: #1f77b4; opacity: 0.35"/>
   </g>
   <g id="patch_33">
    <path d="M 148.294779 307.584 
L 150.280434 307.584 
L 150.280434 258.700914 
L 148.294779 258.700914 
z
" clip-path="url(#pdd3f6a9e4b)" style="fill: #1f77b4; opacity: 0.35"/>
   </g>
   <g id="patch_34">
    <path d="M 150.776847 307.584 
L 152.762502 307.584 
L 152.762502 263.213199 
L 150.776847 263.213199 
z
" clip-path="url(#pdd3f6a9e4b)" style="fill: #1f77b4; opacity: 0.35"/>
   </g>
   <g id="patch_35">
    <path d="M 153.258916 307.584 
L 155.24457 307.584 
L 155.24457 264.717294 
L 153.258916 264.717294 
z
" clip-path="url(#pdd3f6a9e4b)" style="fill: #1f77b4; opacity: 0.35"/>
   </g>
   <g id="patch_36">
    <path d="M 155.740984 307.584 
L 157.726639 307.584 
L 157.726639 248.172249 
L 155.740984 248.172249 
z
" clip-path="url(#pdd3f6a9e4b)" style="fill: #1f77b4; opacity: 0.35"/>
   </g>
   <g id="patch_37">
    <path d="M 158.223053 307.584 
L 160.208707 307.584 
L 160.208707 241.403822 
L 158.223053 241.403822 
z
" clip-path="url(#pdd3f6a9e4b)" style="fill: #1f77b4; opacity: 0.35"/>
   </g>
   <g id="patch_38">
    <path d="M 160.705121 307.584 
L 162.690776 307.584 
L 162.690776 239.899727 
L 160.705121 239.899727 
z
" clip-path="url(#pdd3f6a9e4b)" style="fill: #1f77b4; opacity: 0.35"/>
   </g>
   <g id="patch_39">
    <path d="M 163.187189 307.584 
L 165.172844 307.584 
L 165.172844 248.924297 
L 163.187189 248.924297 
z
" clip-path="url(#pdd3f6a9e4b)" style="fill: #1f77b4; opacity: 0.35"/>
   </g>
   <g id="patch_40">
    <path d="M 165.669258 307.584 
L 167.654912 307.584 
L 167.654912 212.826018 
L 165.669258 212.826018 
z
" clip-path="url(#pdd3f6a9e4b)" style="fill: #1f77b4; opacity: 0.35"/>
   </g>
   <g id="patch_41">
    <path d="M 168.151326 307.584 
L 170.136981 307.584 
L 170.136981 225.610825 
L 168.151326 225.610825 
z
" clip-path="url(#pdd3f6a9e4b)" style="fill: #1f77b4; opacity: 0.35"/>
   </g>
   <g id="patch_42">
    <path d="M 170.633394 307.584 
L 172.619049 307.584 
L 172.619049 214.330113 
L 170.633394 214.330113 
z
" clip-path="url(#pdd3f6a9e4b)" style="fill: #1f77b4; opacity: 0.35"/>
   </g>
   <g id="patch_43">
    <path d="M 173.115463 307.584 
L 175.101118 307.584 
L 175.101118 209.06578 
L 173.115463 209.06578 
z
" clip-path="url(#pdd3f6a9e4b)" style="fill: #1f77b4; opacity: 0.35"/>
   </g>
   <g id="patch_44">
    <path d="M 175.597531 307.584 
L 177.583186 307.584 
L 177.583186 175.975691 
L 175.597531 175.975691 
z
" clip-path="url(#pdd3f6a9e4b)" style="fill: #1f77b4; opacity: 0.35"/>
   </g>
   <g id="patch_45">
    <path d="M 178.0796 307.584 
L 180.065254 307.584 
L 180.065254 178.231834 
L 178.0796 178.231834 
z
" clip-path="url(#pdd3f6a9e4b)" style="fill: #1f77b4; opacity: 0.35"/>
   </g>
   <g id="patch_46">
    <path d="M 180.561668 307.584 
L 182.547323 307.584 
L 182.547323 169.959312 
L 180.561668 169.959312 
z
" clip-path="url(#pdd3f6a9e4b)" style="fill: #1f77b4; opacity: 0.35"/>
   </g>
   <g id="patch_47">
    <path d="M 183.043736 307.584 
L 185.029391 307.584 
L 185.029391 142.885602 
L 183.043736 142.885602 
z
" clip-path="url(#pdd3f6a9e4b)" style="fill: #1f77b4; opacity: 0.35"/>
   </g>
   <g id="patch_48">
    <path d="M 185.525805 307.584 
L 187.51146 307.584 
L 187.51146 139.125365 
L 185.525805 139.125365 
z
" clip-path="url(#pdd3f6a9e4b)" style="fill: #1f77b4; opacity: 0.35"/>
   </g>
   <g id="patch_49">
    <path d="M 188.007873 307.584 
L 189.993528 307.584 
L 189.993528 93.250469 
L 188.007873 93.250469 
z
" clip-path="url(#pdd3f6a9e4b)" style="fill: #1f77b4; opacity: 0.35"/>
   </g>
   <g id="patch_50">
    <path d="M 190.489942 307.584 
L 192.475596 307.584 
L 192.475596 97.010706 
L 190.489942 97.010706 
z
" clip-path="url(#pdd3f6a9e4b)" style="fill: #1f77b4; opacity: 0.35"/>
   </g>
   <g id="patch_51">
    <path d="M 192.97201 307.584 
L 194.957665 307.584 
L 194.957665 105.283228 
L 192.97201 105.283228 
z
" clip-path="url(#pdd3f6a9e4b)" style="fill: #1f77b4; opacity: 0.35"/>
   </g>
   <g id="patch_52">
    <path d="M 195.454078 307.584 
L 197.439733 307.584 
L 197.439733 84.977947 
L 195.454078 84.977947 
z
" clip-path="url(#pdd3f6a9e4b)" style="fill: #1f77b4; opacity: 0.35"/>
   </g>
   <g id="patch_53">
    <path d="M 197.936147 307.584 
L 199.921802 307.584 
L 199.921802 89.490231 
L 197.936147 89.490231 
z
" clip-path="url(#pdd3f6a9e4b)" style="fill: #1f77b4; opacity: 0.35"/>
   </g>
   <g id="patch_54">
    <path d="M 200.418215 307.584 
L 202.40387 307.584 
L 202.40387 72.193139 
L 200.418215 72.193139 
z
" clip-path="url(#pdd3f6a9e4b)" style="fill: #1f77b4; opacity: 0.35"/>
   </g>
   <g id="patch_55">
    <path d="M 202.900284 307.584 
L 204.885938 307.584 
L 204.885938 84.225899 
L 202.900284 84.225899 
z
" clip-path="url(#pdd3f6a9e4b)" style="fill: #1f77b4; opacity: 0.35"/>
   </g>
   <g id="patch_56">
    <path d="M 205.382352 307.584 
L 207.368007 307.584 
L 207.368007 75.953377 
L 205.382352 75.953377 
z
" clip-path="url(#pdd3f6a9e4b)" style="fill: #1f77b4; opacity: 0.35"/>
   </g>
   <g id="patch_57">
    <path d="M 207.86442 307.584 
L 209.850075 307.584 
L 209.850075 90.994326 
L 207.86442 90.994326 
z
" clip-path="url(#pdd3f6a9e4b)" style="fill: #1f77b4; opacity: 0.35"/>
   </g>
   <g id="patch_58">
    <path d="M 210.346489 307.584 
L 212.332143 307.584 
L 212.332143 108.291418 
L 210.346489 108.291418 
z
" clip-path="url(#pdd3f6a9e4b)" style="fill: #1f77b4; opacity: 0.35"/>
   </g>
   <g id="patch_59">
    <path d="M 212.828557 307.584 
L 214.814212 307.584 
L 214.814212 82.721804 
L 212.828557 82.721804 
z
" clip-path="url(#pdd3f6a9e4b)" style="fill: #1f77b4; opacity: 0.35"/>
   </g>
   <g id="patch_60">
    <path d="M 215.310626 307.584 
L 217.29628 307.584 
L 217.29628 73.697234 
L 215.310626 73.697234 
z
" clip-path="url(#pdd3f6a9e4b)" style="fill: #1f77b4; opacity: 0.35"/>
   </g>
   <g id="patch_61">
    <path d="M 217.792694 307.584 
L 219.778349 307.584 
L 219.778349 69.18495 
L 217.792694 69.18495 
z
" clip-path="url(#pdd3f6a9e4b)" style="fill: #1f77b4; opacity: 0.35"/>
   </g>
   <g id="patch_62">
    <path d="M 220.274762 307.584 
L 222.260417 307.584 
L 222.260417 84.977947 
L 220.274762 84.977947 
z
" clip-path="url(#pdd3f6a9e4b)" style="fill: #1f77b4; opacity: 0.35"/>
   </g>
   <g id="patch_63">
    <path d="M 222.756831 307.584 
L 224.742485 307.584 
L 224.742485 109.795513 
L 222.756831 109.795513 
z
" clip-path="url(#pdd3f6a9e4b)" style="fill: #1f77b4; opacity: 0.35"/>
   </g>
   <g id="patch_64">
    <path d="M 225.238899 307.584 
L 227.224554 307.584 
L 227.224554 54.144 
L 225.238899 54.144 
z
" clip-path="url(#pdd3f6a9e4b)" style="fill: #1f77b4; opacity: 0.35"/>
   </g>
   <g id="patch_65">
    <path d="M 227.720967 307.584 
L 229.706622 307.584 
L 229.706622 90.994326 
L 227.720967 90.994326 
z
" clip-path="url(#pdd3f6a9e4b)" style="fill: #1f77b4; opacity: 0.35"/>
   </g>
   <g id="patch_66">
    <path d="M 230.203036 307.584 
L 232.188691 307.584 
L 232.188691 72.945187 
L 230.203036 72.945187 
z
" clip-path="url(#pdd3f6a9e4b)" style="fill: #1f77b4; opacity: 0.35"/>
   </g>
   <g id="patch_67">
    <path d="M 232.685104 307.584 
L 234.670759 307.584 
L 234.670759 106.787323 
L 232.685104 106.787323 
z
" clip-path="url(#pdd3f6a9e4b)" style="fill: #1f77b4; opacity: 0.35"/>
   </g>
   <g id="patch_68">
    <path d="M 235.167173 307.584 
L 237.152827 307.584 
L 237.152827 105.283228 
L 235.167173 105.283228 
z
" clip-path="url(#pdd3f6a9e4b)" style="fill: #1f77b4; opacity: 0.35"/>
   </g>
   <g id="patch_69">
    <path d="M 237.649241 307.584 
L 239.634896 307.584 
L 239.634896 87.986136 
L 237.649241 87.986136 
z
" clip-path="url(#pdd3f6a9e4b)" style="fill: #1f77b4; opacity: 0.35"/>
   </g>
   <g id="patch_70">
    <path d="M 240.131309 307.584 
L 242.116964 307.584 
L 242.116964 118.820083 
L 240.131309 118.820083 
z
" clip-path="url(#pdd3f6a9e4b)" style="fill: #1f77b4; opacity: 0.35"/>
   </g>
   <g id="patch_71">
    <path d="M 242.613378 307.584 
L 244.599033 307.584 
L 244.599033 121.076226 
L 242.613378 121.076226 
z
" clip-path="url(#pdd3f6a9e4b)" style="fill: #1f77b4; opacity: 0.35"/>
   </g>
   <g id="patch_72">
    <path d="M 245.095446 307.584 
L 247.081101 307.584 
L 247.081101 122.58032 
L 245.095446 122.58032 
z
" clip-path="url(#pdd3f6a9e4b)" style="fill: #1f77b4; opacity: 0.35"/>
   </g>
   <g id="patch_73">
    <path d="M 247.577515 307.584 
L 249.563169 307.584 
L 249.563169 106.787323 
L 247.577515 106.787323 
z
" clip-path="url(#pdd3f6a9e4b)" style="fill: #1f77b4; opacity: 0.35"/>
   </g>
   <g id="patch_74">
    <path d="M 250.059583 307.584 
L 252.045238 307.584 
L 252.045238 93.250469 
L 250.059583 93.250469 
z
" clip-path="url(#pdd3f6a9e4b)" style="fill: #1f77b4; opacity: 0.35"/>
   </g>
   <g id="patch_75">
    <path d="M 252.541651 307.584 
L 254.527306 307.584 
L 254.527306 114.307798 
L 252.541651 114.307798 
z
" clip-path="url(#pdd3f6a9e4b)" style="fill: #1f77b4; opacity: 0.35"/>
   </g>
   <g id="patch_76">
    <path d="M 255.02372 307.584 
L 257.009374 307.584 
L 257.009374 133.108985 
L 255.02372 133.108985 
z
" clip-path="url(#pdd3f6a9e4b)" style="fill: #1f77b4; opacity: 0.35"/>
   </g>
   <g id="patch_77">
    <path d="M 257.505788 307.584 
L 259.491443 307.584 
L 259.491443 148.901982 
L 257.505788 148.901982 
z
" clip-path="url(#pdd3f6a9e4b)" style="fill: #1f77b4; opacity: 0.35"/>
   </g>
   <g id="patch_78">
    <path d="M 259.987857 307.584 
L 261.973511 307.584 
L 261.973511 154.166315 
L 259.987857 154.166315 
z
" clip-path="url(#pdd3f6a9e4b)" style="fill: #1f77b4; opacity: 0.35"/>
   </g>
   <g id="patch_79">
    <path d="M 262.469925 307.584 
L 264.45558 307.584 
L 264.45558 145.141745 
L 262.469925 145.141745 
z
" clip-path="url(#pdd3f6a9e4b)" style="fill: #1f77b4; opacity: 0.35"/>
   </g>
   <g id="patch_80">
    <path d="M 264.951993 307.584 
L 266.937648 307.584 
L 266.937648 184.248214 
L 264.951993 184.248214 
z
" clip-path="url(#pdd3f6a9e4b)" style="fill: #1f77b4; opacity: 0.35"/>
   </g>
   <g id="patch_81">
    <path d="M 267.434062 307.584 
L 269.419716 307.584 
L 269.419716 172.215454 
L 267.434062 172.215454 
z
" clip-path="url(#pdd3f6a9e4b)" style="fill: #1f77b4; opacity: 0.35"/>
   </g>
   <g id="patch_82">
    <path d="M 269.91613 307.584 
L 271.901785 307.584 
L 271.901785 172.215454 
L 269.91613 172.215454 
z
" clip-path="url(#pdd3f6a9e4b)" style="fill: #1f77b4; opacity: 0.35"/>
   </g>
   <g id="patch_83">
    <path d="M 272.398198 307.584 
L 274.383853 307.584 
L 274.383853 187.256404 
L 272.398198 187.256404 
z
" clip-path="url(#pdd3f6a9e4b)" style="fill: #1f77b4; opacity: 0.35"/>
   </g>
   <g id="patch_84">
    <path d="M 274.880267 307.584 
L 276.865922 307.584 
L 276.865922 181.240024 
L 274.880267 181.240024 
z
" clip-path="url(#pdd3f6a9e4b)" style="fill: #1f77b4; opacity: 0.35"/>
   </g>
   <g id="patch_85">
    <path d="M 277.362335 307.584 
L 279.34799 307.584 
L 279.34799 196.280973 
L 277.362335 196.280973 
z
" clip-path="url(#pdd3f6a9e4b)" style="fill: #1f77b4; opacity: 0.35"/>
   </g>
   <g id="patch_86">
    <path d="M 279.844404 307.584 
L 281.830058 307.584 
L 281.830058 189.512546 
L 279.844404 189.512546 
z
" clip-path="url(#pdd3f6a9e4b)" style="fill: #1f77b4; opacity: 0.35"/>
   </g>
   <g id="patch_87">
    <path d="M 282.326472 307.584 
L 284.312127 307.584 
L 284.312127 185.000261 
L 282.326472 185.000261 
z
" clip-path="url(#pdd3f6a9e4b)" style="fill: #1f77b4; opacity: 0.35"/>
   </g>
   <g id="patch_88">
    <path d="M 284.80854 307.584 
L 286.794195 307.584 
L 286.794195 212.07397 
L 284.80854 212.07397 
z
" clip-path="url(#pdd3f6a9e4b)" style="fill: #1f77b4; opacity: 0.35"/>
   </g>
   <g id="patch_89">
    <path d="M 287.290609 307.584 
L 289.276264 307.584 
L 289.276264 212.07397 
L 287.290609 212.07397 
z
" clip-path="url(#pdd3f6a9e4b)" style="fill: #1f77b4; opacity: 0.35"/>
   </g>
   <g id="patch_90">
    <path d="M 289.772677 307.584 
L 291.758332 307.584 
L 291.758332 193.272783 
L 289.772677 193.272783 
z
" clip-path="url(#pdd3f6a9e4b)" style="fill: #1f77b4; opacity: 0.35"/>
   </g>
   <g id="patch_91">
    <path d="M 292.254746 307.584 
L 294.2404 307.584 
L 294.2404 200.041211 
L 292.254746 200.041211 
z
" clip-path="url(#pdd3f6a9e4b)" style="fill: #1f77b4; opacity: 0.35"/>
   </g>
   <g id="patch_92">
    <path d="M 294.736814 307.584 
L 296.722469 307.584 
L 296.722469 208.313733 
L 294.736814 208.313733 
z
" clip-path="url(#pdd3f6a9e4b)" style="fill: #1f77b4; opacity: 0.35"/>
   </g>
   <g id="patch_93">
    <path d="M 297.218882 307.584 
L 299.204537 307.584 
L 299.204537 234.635395 
L 297.218882 234.635395 
z
" clip-path="url(#pdd3f6a9e4b)" style="fill: #1f77b4; opacity: 0.35"/>
   </g>
   <g id="patch_94">
    <path d="M 299.700951 307.584 
L 301.686606 307.584 
L 301.686606 221.09854 
L 299.700951 221.09854 
z
" clip-path="url(#pdd3f6a9e4b)" style="fill: #1f77b4; opacity: 0.35"/>
   </g>
   <g id="patch_95">
    <path d="M 302.183019 307.584 
L 304.168674 307.584 
L 304.168674 233.1313 
L 302.183019 233.1313 
z
" clip-path="url(#pdd3f6a9e4b)" style="fill: #1f77b4; opacity: 0.35"/>
   </g>
   <g id="patch_96">
    <path d="M 304.665088 307.584 
L 306.650742 307.584 
L 306.650742 222.602635 
L 304.665088 222.602635 
z
" clip-path="url(#pdd3f6a9e4b)" style="fill: #1f77b4; opacity: 0.35"/>
   </g>
   <g id="patch_97">
    <path d="M 307.147156 307.584 
L 309.132811 307.584 
L 309.132811 254.940677 
L 307.147156 254.940677 
z
" clip-path="url(#pdd3f6a9e4b)" style="fill: #1f77b4; opacity: 0.35"/>
   </g>
   <g id="patch_98">
    <path d="M 309.629224 307.584 
L 311.614879 307.584 
L 311.614879 264.717294 
L 309.629224 264.717294 
z
" clip-path="url(#pdd3f6a9e4b)" style="fill: #1f77b4; opacity: 0.35"/>
   </g>
   <g id="patch_99">
    <path d="M 312.111293 307.584 
L 314.096947 307.584 
L 314.096947 254.188629 
L 312.111293 254.188629 
z
" clip-path="url(#pdd3f6a9e4b)" style="fill: #1f77b4; opacity: 0.35"/>
   </g>
   <g id="patch_100">
    <path d="M 314.593361 307.584 
L 316.579016 307.584 
L 316.579016 261.709104 
L 314.593361 261.709104 
z
" clip-path="url(#pdd3f6a9e4b)" style="fill: #1f77b4; opacity: 0.35"/>
   </g>
   <g id="patch_101">
    <path d="M 317.07543 307.584 
L 319.061084 307.584 
L 319.061084 279.758243 
L 317.07543 279.758243 
z
" clip-path="url(#pdd3f6a9e4b)" style="fill: #1f77b4; opacity: 0.35"/>
   </g>
   <g id="patch_102">
    <path d="M 319.557498 307.584 
L 321.543153 307.584 
L 321.543153 266.221389 
L 319.557498 266.221389 
z
" clip-path="url(#pdd3f6a9e4b)" style="fill: #1f77b4; opacity: 0.35"/>
   </g>
   <g id="patch_103">
    <path d="M 322.039566 307.584 
L 324.025221 307.584 
L 324.025221 275.998006 
L 322.039566 275.998006 
z
" clip-path="url(#pdd3f6a9e4b)" style="fill: #1f77b4; opacity: 0.35"/>
   </g>
   <g id="patch_104">
    <path d="M 324.521635 307.584 
L 326.507289 307.584 
L 326.507289 280.510291 
L 324.521635 280.510291 
z
" clip-path="url(#pdd3f6a9e4b)" style="fill: #1f77b4; opacity: 0.35"/>
   </g>
   <g id="patch_105">
    <path d="M 327.003703 307.584 
L 328.989358 307.584 
L 328.989358 288.030766 
L 327.003703 288.030766 
z
" clip-path="url(#pdd3f6a9e4b)" style="fill: #1f77b4; opacity: 0.35"/>
   </g>
   <g id="patch_106">
    <path d="M 329.485771 307.584 
L 331.471426 307.584 
L 331.471426 288.030766 
L 329.485771 288.030766 
z
" clip-path="url(#pdd3f6a9e4b)" style="fill: #1f77b4; opacity: 0.35"/>
   </g>
   <g id="patch_107">
    <path d="M 331.96784 307.584 
L 333.953495 307.584 
L 333.953495 296.303288 
L 331.96784 296.303288 
z
" clip-path="url(#pdd3f6a9e4b)" style="fill: #1f77b4; opacity: 0.35"/>
   </g>
   <g id="patch_108">
    <path d="M 334.449908 307.584 
L 336.435563 307.584 
L 336.435563 295.55124 
L 334.449908 295.55124 
z
" clip-path="url(#pdd3f6a9e4b)" style="fill: #1f77b4; opacity: 0.35"/>
   </g>
   <g id="patch_109">
    <path d="M 336.931977 307.584 
L 338.917631 307.584 
L 338.917631 291.791003 
L 336.931977 291.791003 
z
" clip-path="url(#pdd3f6a9e4b)" style="fill: #1f77b4; opacity: 0.35"/>
   </g>
   <g id="patch_110">
    <path d="M 339.414045 307.584 
L 341.3997 307.584 
L 341.3997 294.047145 
L 339.414045 294.047145 
z
" clip-path="url(#pdd3f6a9e4b)" style="fill: #1f77b4; opacity: 0.35"/>
   </g>
   <g id="patch_111">
    <path d="M 341.896113 307.584 
L 343.881768 307.584 
L 343.881768 303.071715 
L 341.896113 303.071715 
z
" clip-path="url(#pdd3f6a9e4b)" style="fill: #1f77b4; opacity: 0.35"/>
   </g>
   <g id="patch_112">
    <path d="M 344.378182 307.584 
L 346.363837 307.584 
L 346.363837 302.319668 
L 344.378182 302.319668 
z
" clip-path="url(#pdd3f6a9e4b)" style="fill: #1f77b4; opacity: 0.35"/>
   </g>
   <g id="patch_113">
    <path d="M 346.86025 307.584 
L 348.845905 307.584 
L 348.845905 303.071715 
L 346.86025 303.071715 
z
" clip-path="url(#pdd3f6a9e4b)" style="fill: #1f77b4; opacity: 0.35"/>
   </g>
   <g id="patch_114">
    <path d="M 349.342319 307.584 
L 351.327973 307.584 
L 351.327973 304.57581 
L 349.342319 304.57581 
z
" clip-path="url(#pdd3f6a9e4b)" style="fill: #1f77b4; opacity: 0.35"/>
   </g>
   <g id="patch_115">
    <path d="M 351.824387 307.584 
L 353.810042 307.584 
L 353.810042 306.831953 
L 351.824387 306.831953 
z
" clip-path="url(#pdd3f6a9e4b)" style="fill: #1f77b4; opacity: 0.35"/>
   </g>
   <g id="patch_116">
    <path d="M 354.306455 307.584 
L 356.29211 307.584 
L 356.29211 307.584 
L 354.306455 307.584 
z
" clip-path="url(#pdd3f6a9e4b)" style="fill: #1f77b4; opacity: 0.35"/>
   </g>
   <g id="patch_117">
    <path d="M 356.788524 307.584 
L 358.774178 307.584 
L 358.774178 306.079905 
L 356.788524 306.079905 
z
" clip-path="url(#pdd3f6a9e4b)" style="fill: #1f77b4; opacity: 0.35"/>
   </g>
   <g id="patch_118">
    <path d="M 359.270592 307.584 
L 361.256247 307.584 
L 361.256247 306.831953 
L 359.270592 306.831953 
z
" clip-path="url(#pdd3f6a9e4b)" style="fill: #1f77b4; opacity: 0.35"/>
   </g>
   <g id="patch_119">
    <path d="M 361.752661 307.584 
L 363.738315 307.584 
L 363.738315 306.831953 
L 361.752661 306.831953 
z
" clip-path="url(#pdd3f6a9e4b)" style="fill: #1f77b4; opacity: 0.35"/>
   </g>
   <g id="patch_120">
    <path d="M 364.234729 307.584 
L 366.220384 307.584 
L 366.220384 307.584 
L 364.234729 307.584 
z
" clip-path="url(#pdd3f6a9e4b)" style="fill: #1f77b4; opacity: 0.35"/>
   </g>
   <g id="patch_121">
    <path d="M 366.716797 307.584 
L 368.702452 307.584 
L 368.702452 307.584 
L 366.716797 307.584 
z
" clip-path="url(#pdd3f6a9e4b)" style="fill: #1f77b4; opacity: 0.35"/>
   </g>
   <g id="patch_122">
    <path d="M 369.198866 307.584 
L 371.18452 307.584 
L 371.18452 307.584 
L 369.198866 307.584 
z
" clip-path="url(#pdd3f6a9e4b)" style="fill: #1f77b4; opacity: 0.35"/>
   </g>
   <g id="patch_123">
    <path d="M 371.680934 307.584 
L 373.666589 307.584 
L 373.666589 307.584 
L 371.680934 307.584 
z
" clip-path="url(#pdd3f6a9e4b)" style="fill: #1f77b4; opacity: 0.35"/>
   </g>
   <g id="patch_124">
    <path d="M 374.163003 307.584 
L 376.148657 307.584 
L 376.148657 307.584 
L 374.163003 307.584 
z
" clip-path="url(#pdd3f6a9e4b)" style="fill: #1f77b4; opacity: 0.35"/>
   </g>
   <g id="patch_125">
    <path d="M 376.645071 307.584 
L 378.630726 307.584 
L 378.630726 307.584 
L 376.645071 307.584 
z
" clip-path="url(#pdd3f6a9e4b)" style="fill: #1f77b4; opacity: 0.35"/>
   </g>
   <g id="patch_126">
    <path d="M 379.127139 307.584 
L 381.112794 307.584 
L 381.112794 307.584 
L 379.127139 307.584 
z
" clip-path="url(#pdd3f6a9e4b)" style="fill: #1f77b4; opacity: 0.35"/>
   </g>
   <g id="patch_127">
    <path d="M 381.609208 307.584 
L 383.594862 307.584 
L 383.594862 307.584 
L 381.609208 307.584 
z
" clip-path="url(#pdd3f6a9e4b)" style="fill: #1f77b4; opacity: 0.35"/>
   </g>
   <g id="patch_128">
    <path d="M 384.091276 307.584 
L 386.076931 307.584 
L 386.076931 306.831953 
L 384.091276 306.831953 
z
" clip-path="url(#pdd3f6a9e4b)" style="fill: #1f77b4; opacity: 0.35"/>
   </g>
   <g id="patch_129">
    <path d="M 386.573344 307.584 
L 388.558999 307.584 
L 388.558999 306.831953 
L 386.573344 306.831953 
z
" clip-path="url(#pdd3f6a9e4b)" style="fill: #1f77b4; opacity: 0.35"/>
   </g>
   <g id="patch_130">
    <path d="M 389.055413 307.584 
L 391.041068 307.584 
L 391.041068 307.584 
L 389.055413 307.584 
z
" clip-path="url(#pdd3f6a9e4b)" style="fill: #1f77b4; opacity: 0.35"/>
   </g>
   <g id="patch_131">
    <path d="M 391.537481 307.584 
L 393.523136 307.584 
L 393.523136 307.584 
L 391.537481 307.584 
z
" clip-path="url(#pdd3f6a9e4b)" style="fill: #1f77b4; opacity: 0.35"/>
   </g>
   <g id="patch_132">
    <path d="M 394.01955 307.584 
L 396.005204 307.584 
L 396.005204 307.584 
L 394.01955 307.584 
z
" clip-path="url(#pdd3f6a9e4b)" style="fill: #1f77b4; opacity: 0.35"/>
   </g>
   <g id="patch_133">
    <path d="M 396.501618 307.584 
L 398.487273 307.584 
L 398.487273 307.584 
L 396.501618 307.584 
z
" clip-path="url(#pdd3f6a9e4b)" style="fill: #1f77b4; opacity: 0.35"/>
   </g>
   <g id="patch_134">
    <path d="M 73.832727 307.584 
L 75.818382 307.584 
L 75.818382 301.56762 
L 73.832727 301.56762 
z
" clip-path="url(#pdd3f6a9e4b)" style="fill: #ff7f0e; opacity: 0.35"/>
   </g>
   <g id="patch_135">
    <path d="M 76.314796 307.584 
L 78.30045 307.584 
L 78.30045 283.518481 
L 76.314796 283.518481 
z
" clip-path="url(#pdd3f6a9e4b)" style="fill: #ff7f0e; opacity: 0.35"/>
   </g>
   <g id="patch_136">
    <path d="M 78.796864 307.584 
L 80.782519 307.584 
L 80.782519 227.866967 
L 78.796864 227.866967 
z
" clip-path="url(#pdd3f6a9e4b)" style="fill: #ff7f0e; opacity: 0.35"/>
   </g>
   <g id="patch_137">
    <path d="M 81.278932 307.584 
L 83.264587 307.584 
L 83.264587 193.272783 
L 81.278932 193.272783 
z
" clip-path="url(#pdd3f6a9e4b)" style="fill: #ff7f0e; opacity: 0.35"/>
   </g>
   <g id="patch_138">
    <path d="M 83.761001 307.584 
L 85.746656 307.584 
L 85.746656 238.395632 
L 83.761001 238.395632 
z
" clip-path="url(#pdd3f6a9e4b)" style="fill: #ff7f0e; opacity: 0.35"/>
   </g>
   <g id="patch_139">
    <path d="M 86.243069 307.584 
L 88.228724 307.584 
L 88.228724 260.205009 
L 86.243069 260.205009 
z
" clip-path="url(#pdd3f6a9e4b)" style="fill: #ff7f0e; opacity: 0.35"/>
   </g>
   <g id="patch_140">
    <path d="M 88.725138 307.584 
L 90.710792 307.584 
L 90.710792 269.981626 
L 88.725138 269.981626 
z
" clip-path="url(#pdd3f6a9e4b)" style="fill: #ff7f0e; opacity: 0.35"/>
   </g>
   <g id="patch_141">
    <path d="M 91.207206 307.584 
L 93.192861 307.584 
L 93.192861 278.254148 
L 91.207206 278.254148 
z
" clip-path="url(#pdd3f6a9e4b)" style="fill: #ff7f0e; opacity: 0.35"/>
   </g>
   <g id="patch_142">
    <path d="M 93.689274 307.584 
L 95.674929 307.584 
L 95.674929 267.725484 
L 93.689274 267.725484 
z
" clip-path="url(#pdd3f6a9e4b)" style="fill: #ff7f0e; opacity: 0.35"/>
   </g>
   <g id="patch_143">
    <path d="M 96.171343 307.584 
L 98.156997 307.584 
L 98.156997 272.237769 
L 96.171343 272.237769 
z
" clip-path="url(#pdd3f6a9e4b)" style="fill: #ff7f0e; opacity: 0.35"/>
   </g>
   <g id="patch_144">
    <path d="M 98.653411 307.584 
L 100.639066 307.584 
L 100.639066 272.989816 
L 98.653411 272.989816 
z
" clip-path="url(#pdd3f6a9e4b)" style="fill: #ff7f0e; opacity: 0.35"/>
   </g>
   <g id="patch_145">
    <path d="M 101.13548 307.584 
L 103.121134 307.584 
L 103.121134 263.965246 
L 101.13548 263.965246 
z
" clip-path="url(#pdd3f6a9e4b)" style="fill: #ff7f0e; opacity: 0.35"/>
   </g>
   <g id="patch_146">
    <path d="M 103.617548 307.584 
L 105.603203 307.584 
L 105.603203 265.469341 
L 103.617548 265.469341 
z
" clip-path="url(#pdd3f6a9e4b)" style="fill: #ff7f0e; opacity: 0.35"/>
   </g>
   <g id="patch_147">
    <path d="M 106.099616 307.584 
L 108.085271 307.584 
L 108.085271 269.229579 
L 106.099616 269.229579 
z
" clip-path="url(#pdd3f6a9e4b)" style="fill: #ff7f0e; opacity: 0.35"/>
   </g>
   <g id="patch_148">
    <path d="M 108.581685 307.584 
L 110.567339 307.584 
L 110.567339 263.965246 
L 108.581685 263.965246 
z
" clip-path="url(#pdd3f6a9e4b)" style="fill: #ff7f0e; opacity: 0.35"/>
   </g>
   <g id="patch_149">
    <path d="M 111.063753 307.584 
L 113.049408 307.584 
L 113.049408 267.725484 
L 111.063753 267.725484 
z
" clip-path="url(#pdd3f6a9e4b)" style="fill: #ff7f0e; opacity: 0.35"/>
   </g>
   <g id="patch_150">
    <path d="M 113.545822 307.584 
L 115.531476 307.584 
L 115.531476 267.725484 
L 113.545822 267.725484 
z
" clip-path="url(#pdd3f6a9e4b)" style="fill: #ff7f0e; opacity: 0.35"/>
   </g>
   <g id="patch_151">
    <path d="M 116.02789 307.584 
L 118.013545 307.584 
L 118.013545 263.965246 
L 116.02789 263.965246 
z
" clip-path="url(#pdd3f6a9e4b)" style="fill: #ff7f0e; opacity: 0.35"/>
   </g>
   <g id="patch_152">
    <path d="M 118.509958 307.584 
L 120.495613 307.584 
L 120.495613 242.907917 
L 118.509958 242.907917 
z
" clip-path="url(#pdd3f6a9e4b)" style="fill: #ff7f0e; opacity: 0.35"/>
   </g>
   <g id="patch_153">
    <path d="M 120.992027 307.584 
L 122.977681 307.584 
L 122.977681 230.12311 
L 120.992027 230.12311 
z
" clip-path="url(#pdd3f6a9e4b)" style="fill: #ff7f0e; opacity: 0.35"/>
   </g>
   <g id="patch_154">
    <path d="M 123.474095 307.584 
L 125.45975 307.584 
L 125.45975 247.420202 
L 123.474095 247.420202 
z
" clip-path="url(#pdd3f6a9e4b)" style="fill: #ff7f0e; opacity: 0.35"/>
   </g>
   <g id="patch_155">
    <path d="M 125.956163 307.584 
L 127.941818 307.584 
L 127.941818 260.205009 
L 125.956163 260.205009 
z
" clip-path="url(#pdd3f6a9e4b)" style="fill: #ff7f0e; opacity: 0.35"/>
   </g>
   <g id="patch_156">
    <path d="M 128.438232 307.584 
L 130.423887 307.584 
L 130.423887 247.420202 
L 128.438232 247.420202 
z
" clip-path="url(#pdd3f6a9e4b)" style="fill: #ff7f0e; opacity: 0.35"/>
   </g>
   <g id="patch_157">
    <path d="M 130.9203 307.584 
L 132.905955 307.584 
L 132.905955 238.395632 
L 130.9203 238.395632 
z
" clip-path="url(#pdd3f6a9e4b)" style="fill: #ff7f0e; opacity: 0.35"/>
   </g>
   <g id="patch_158">
    <path d="M 133.402369 307.584 
L 135.388023 307.584 
L 135.388023 236.13949 
L 133.402369 236.13949 
z
" clip-path="url(#pdd3f6a9e4b)" style="fill: #ff7f0e; opacity: 0.35"/>
   </g>
   <g id="patch_159">
    <path d="M 135.884437 307.584 
L 137.870092 307.584 
L 137.870092 231.627205 
L 135.884437 231.627205 
z
" clip-path="url(#pdd3f6a9e4b)" style="fill: #ff7f0e; opacity: 0.35"/>
   </g>
   <g id="patch_160">
    <path d="M 138.366505 307.584 
L 140.35216 307.584 
L 140.35216 222.602635 
L 138.366505 222.602635 
z
" clip-path="url(#pdd3f6a9e4b)" style="fill: #ff7f0e; opacity: 0.35"/>
   </g>
   <g id="patch_161">
    <path d="M 140.848574 307.584 
L 142.834229 307.584 
L 142.834229 190.264593 
L 140.848574 190.264593 
z
" clip-path="url(#pdd3f6a9e4b)" style="fill: #ff7f0e; opacity: 0.35"/>
   </g>
   <g id="patch_162">
    <path d="M 143.330642 307.584 
L 145.316297 307.584 
L 145.316297 218.842398 
L 143.330642 218.842398 
z
" clip-path="url(#pdd3f6a9e4b)" style="fill: #ff7f0e; opacity: 0.35"/>
   </g>
   <g id="patch_163">
    <path d="M 145.812711 307.584 
L 147.798365 307.584 
L 147.798365 203.801448 
L 145.812711 203.801448 
z
" clip-path="url(#pdd3f6a9e4b)" style="fill: #ff7f0e; opacity: 0.35"/>
   </g>
   <g id="patch_164">
    <path d="M 148.294779 307.584 
L 150.280434 307.584 
L 150.280434 200.041211 
L 148.294779 200.041211 
z
" clip-path="url(#pdd3f6a9e4b)" style="fill: #ff7f0e; opacity: 0.35"/>
   </g>
   <g id="patch_165">
    <path d="M 150.776847 307.584 
L 152.762502 307.584 
L 152.762502 214.330113 
L 150.776847 214.330113 
z
" clip-path="url(#pdd3f6a9e4b)" style="fill: #ff7f0e; opacity: 0.35"/>
   </g>
   <g id="patch_166">
    <path d="M 153.258916 307.584 
L 155.24457 307.584 
L 155.24457 183.496166 
L 153.258916 183.496166 
z
" clip-path="url(#pdd3f6a9e4b)" style="fill: #ff7f0e; opacity: 0.35"/>
   </g>
   <g id="patch_167">
    <path d="M 155.740984 307.584 
L 157.726639 307.584 
L 157.726639 185.000261 
L 155.740984 185.000261 
z
" clip-path="url(#pdd3f6a9e4b)" style="fill: #ff7f0e; opacity: 0.35"/>
   </g>
   <g id="patch_168">
    <path d="M 158.223053 307.584 
L 160.208707 307.584 
L 160.208707 178.983881 
L 158.223053 178.983881 
z
" clip-path="url(#pdd3f6a9e4b)" style="fill: #ff7f0e; opacity: 0.35"/>
   </g>
   <g id="patch_169">
    <path d="M 160.705121 307.584 
L 162.690776 307.584 
L 162.690776 172.967501 
L 160.705121 172.967501 
z
" clip-path="url(#pdd3f6a9e4b)" style="fill: #ff7f0e; opacity: 0.35"/>
   </g>
   <g id="patch_170">
    <path d="M 163.187189 307.584 
L 165.172844 307.584 
L 165.172844 161.686789 
L 163.187189 161.686789 
z
" clip-path="url(#pdd3f6a9e4b)" style="fill: #ff7f0e; opacity: 0.35"/>
   </g>
   <g id="patch_171">
    <path d="M 165.669258 307.584 
L 167.654912 307.584 
L 167.654912 171.463407 
L 165.669258 171.463407 
z
" clip-path="url(#pdd3f6a9e4b)" style="fill: #ff7f0e; opacity: 0.35"/>
   </g>
   <g id="patch_172">
    <path d="M 168.151326 307.584 
L 170.136981 307.584 
L 170.136981 154.166315 
L 168.151326 154.166315 
z
" clip-path="url(#pdd3f6a9e4b)" style="fill: #ff7f0e; opacity: 0.35"/>
   </g>
   <g id="patch_173">
    <path d="M 170.633394 307.584 
L 172.619049 307.584 
L 172.619049 155.670409 
L 170.633394 155.670409 
z
" clip-path="url(#pdd3f6a9e4b)" style="fill: #ff7f0e; opacity: 0.35"/>
   </g>
   <g id="patch_174">
    <path d="M 173.115463 307.584 
L 175.101118 307.584 
L 175.101118 151.910172 
L 173.115463 151.910172 
z
" clip-path="url(#pdd3f6a9e4b)" style="fill: #ff7f0e; opacity: 0.35"/>
   </g>
   <g id="patch_175">
    <path d="M 175.597531 307.584 
L 177.583186 307.584 
L 177.583186 146.64584 
L 175.597531 146.64584 
z
" clip-path="url(#pdd3f6a9e4b)" style="fill: #ff7f0e; opacity: 0.35"/>
   </g>
   <g id="patch_176">
    <path d="M 178.0796 307.584 
L 180.065254 307.584 
L 180.065254 153.414267 
L 178.0796 153.414267 
z
" clip-path="url(#pdd3f6a9e4b)" style="fill: #ff7f0e; opacity: 0.35"/>
   </g>
   <g id="patch_177">
    <path d="M 180.561668 307.584 
L 182.547323 307.584 
L 182.547323 158.678599 
L 180.561668 158.678599 
z
" clip-path="url(#pdd3f6a9e4b)" style="fill: #ff7f0e; opacity: 0.35"/>
   </g>
   <g id="patch_178">
    <path d="M 183.043736 307.584 
L 185.029391 307.584 
L 185.029391 140.62946 
L 183.043736 140.62946 
z
" clip-path="url(#pdd3f6a9e4b)" style="fill: #ff7f0e; opacity: 0.35"/>
   </g>
   <g id="patch_179">
    <path d="M 185.525805 307.584 
L 187.51146 307.584 
L 187.51146 120.324178 
L 185.525805 120.324178 
z
" clip-path="url(#pdd3f6a9e4b)" style="fill: #ff7f0e; opacity: 0.35"/>
   </g>
   <g id="patch_180">
    <path d="M 188.007873 307.584 
L 189.993528 307.584 
L 189.993528 90.242279 
L 188.007873 90.242279 
z
" clip-path="url(#pdd3f6a9e4b)" style="fill: #ff7f0e; opacity: 0.35"/>
   </g>
   <g id="patch_181">
    <path d="M 190.489942 307.584 
L 192.475596 307.584 
L 192.475596 124.836463 
L 190.489942 124.836463 
z
" clip-path="url(#pdd3f6a9e4b)" style="fill: #ff7f0e; opacity: 0.35"/>
   </g>
   <g id="patch_182">
    <path d="M 192.97201 307.584 
L 194.957665 307.584 
L 194.957665 110.547561 
L 192.97201 110.547561 
z
" clip-path="url(#pdd3f6a9e4b)" style="fill: #ff7f0e; opacity: 0.35"/>
   </g>
   <g id="patch_183">
    <path d="M 195.454078 307.584 
L 197.439733 307.584 
L 197.439733 98.514801 
L 195.454078 98.514801 
z
" clip-path="url(#pdd3f6a9e4b)" style="fill: #ff7f0e; opacity: 0.35"/>
   </g>
   <g id="patch_184">
    <path d="M 197.936147 307.584 
L 199.921802 307.584 
L 199.921802 121.828273 
L 197.936147 121.828273 
z
" clip-path="url(#pdd3f6a9e4b)" style="fill: #ff7f0e; opacity: 0.35"/>
   </g>
   <g id="patch_185">
    <path d="M 200.418215 307.584 
L 202.40387 307.584 
L 202.40387 94.002516 
L 200.418215 94.002516 
z
" clip-path="url(#pdd3f6a9e4b)" style="fill: #ff7f0e; opacity: 0.35"/>
   </g>
   <g id="patch_186">
    <path d="M 202.900284 307.584 
L 204.885938 307.584 
L 204.885938 99.266849 
L 202.900284 99.266849 
z
" clip-path="url(#pdd3f6a9e4b)" style="fill: #ff7f0e; opacity: 0.35"/>
   </g>
   <g id="patch_187">
    <path d="M 205.382352 307.584 
L 207.368007 307.584 
L 207.368007 75.201329 
L 205.382352 75.201329 
z
" clip-path="url(#pdd3f6a9e4b)" style="fill: #ff7f0e; opacity: 0.35"/>
   </g>
   <g id="patch_188">
    <path d="M 207.86442 307.584 
L 209.850075 307.584 
L 209.850075 88.738184 
L 207.86442 88.738184 
z
" clip-path="url(#pdd3f6a9e4b)" style="fill: #ff7f0e; opacity: 0.35"/>
   </g>
   <g id="patch_189">
    <path d="M 210.346489 307.584 
L 212.332143 307.584 
L 212.332143 62.416522 
L 210.346489 62.416522 
z
" clip-path="url(#pdd3f6a9e4b)" style="fill: #ff7f0e; opacity: 0.35"/>
   </g>
   <g id="patch_190">
    <path d="M 212.828557 307.584 
L 214.814212 307.584 
L 214.814212 97.010706 
L 212.828557 97.010706 
z
" clip-path="url(#pdd3f6a9e4b)" style="fill: #ff7f0e; opacity: 0.35"/>
   </g>
   <g id="patch_191">
    <path d="M 215.310626 307.584 
L 217.29628 307.584 
L 217.29628 91.746374 
L 215.310626 91.746374 
z
" clip-path="url(#pdd3f6a9e4b)" style="fill: #ff7f0e; opacity: 0.35"/>
   </g>
   <g id="patch_192">
    <path d="M 217.792694 307.584 
L 219.778349 307.584 
L 219.778349 96.258659 
L 217.792694 96.258659 
z
" clip-path="url(#pdd3f6a9e4b)" style="fill: #ff7f0e; opacity: 0.35"/>
   </g>
   <g id="patch_193">
    <path d="M 220.274762 307.584 
L 222.260417 307.584 
L 222.260417 114.307798 
L 220.274762 114.307798 
z
" clip-path="url(#pdd3f6a9e4b)" style="fill: #ff7f0e; opacity: 0.35"/>
   </g>
   <g id="patch_194">
    <path d="M 222.756831 307.584 
L 224.742485 307.584 
L 224.742485 90.242279 
L 222.756831 90.242279 
z
" clip-path="url(#pdd3f6a9e4b)" style="fill: #ff7f0e; opacity: 0.35"/>
   </g>
   <g id="patch_195">
    <path d="M 225.238899 307.584 
L 227.224554 307.584 
L 227.224554 83.473852 
L 225.238899 83.473852 
z
" clip-path="url(#pdd3f6a9e4b)" style="fill: #ff7f0e; opacity: 0.35"/>
   </g>
   <g id="patch_196">
    <path d="M 227.720967 307.584 
L 229.706622 307.584 
L 229.706622 89.490231 
L 227.720967 89.490231 
z
" clip-path="url(#pdd3f6a9e4b)" style="fill: #ff7f0e; opacity: 0.35"/>
   </g>
   <g id="patch_197">
    <path d="M 230.203036 307.584 
L 232.188691 307.584 
L 232.188691 133.108985 
L 230.203036 133.108985 
z
" clip-path="url(#pdd3f6a9e4b)" style="fill: #ff7f0e; opacity: 0.35"/>
   </g>
   <g id="patch_198">
    <path d="M 232.685104 307.584 
L 234.670759 307.584 
L 234.670759 121.076226 
L 232.685104 121.076226 
z
" clip-path="url(#pdd3f6a9e4b)" style="fill: #ff7f0e; opacity: 0.35"/>
   </g>
   <g id="patch_199">
    <path d="M 235.167173 307.584 
L 237.152827 307.584 
L 237.152827 110.547561 
L 235.167173 110.547561 
z
" clip-path="url(#pdd3f6a9e4b)" style="fill: #ff7f0e; opacity: 0.35"/>
   </g>
   <g id="patch_200">
    <path d="M 237.649241 307.584 
L 239.634896 307.584 
L 239.634896 123.332368 
L 237.649241 123.332368 
z
" clip-path="url(#pdd3f6a9e4b)" style="fill: #ff7f0e; opacity: 0.35"/>
   </g>
   <g id="patch_201">
    <path d="M 240.131309 307.584 
L 242.116964 307.584 
L 242.116964 105.283228 
L 240.131309 105.283228 
z
" clip-path="url(#pdd3f6a9e4b)" style="fill: #ff7f0e; opacity: 0.35"/>
   </g>
   <g id="patch_202">
    <path d="M 242.613378 307.584 
L 244.599033 307.584 
L 244.599033 133.861033 
L 242.613378 133.861033 
z
" clip-path="url(#pdd3f6a9e4b)" style="fill: #ff7f0e; opacity: 0.35"/>
   </g>
   <g id="patch_203">
    <path d="M 245.095446 307.584 
L 247.081101 307.584 
L 247.081101 151.910172 
L 245.095446 151.910172 
z
" clip-path="url(#pdd3f6a9e4b)" style="fill: #ff7f0e; opacity: 0.35"/>
   </g>
   <g id="patch_204">
    <path d="M 247.577515 307.584 
L 249.563169 307.584 
L 249.563169 159.430647 
L 247.577515 159.430647 
z
" clip-path="url(#pdd3f6a9e4b)" style="fill: #ff7f0e; opacity: 0.35"/>
   </g>
   <g id="patch_205">
    <path d="M 250.059583 307.584 
L 252.045238 307.584 
L 252.045238 170.711359 
L 250.059583 170.711359 
z
" clip-path="url(#pdd3f6a9e4b)" style="fill: #ff7f0e; opacity: 0.35"/>
   </g>
   <g id="patch_206">
    <path d="M 252.541651 307.584 
L 254.527306 307.584 
L 254.527306 176.727739 
L 252.541651 176.727739 
z
" clip-path="url(#pdd3f6a9e4b)" style="fill: #ff7f0e; opacity: 0.35"/>
   </g>
   <g id="patch_207">
    <path d="M 255.02372 307.584 
L 257.009374 307.584 
L 257.009374 184.248214 
L 255.02372 184.248214 
z
" clip-path="url(#pdd3f6a9e4b)" style="fill: #ff7f0e; opacity: 0.35"/>
   </g>
   <g id="patch_208">
    <path d="M 257.505788 307.584 
L 259.491443 307.584 
L 259.491443 181.240024 
L 257.505788 181.240024 
z
" clip-path="url(#pdd3f6a9e4b)" style="fill: #ff7f0e; opacity: 0.35"/>
   </g>
   <g id="patch_209">
    <path d="M 259.987857 307.584 
L 261.973511 307.584 
L 261.973511 213.578065 
L 259.987857 213.578065 
z
" clip-path="url(#pdd3f6a9e4b)" style="fill: #ff7f0e; opacity: 0.35"/>
   </g>
   <g id="patch_210">
    <path d="M 262.469925 307.584 
L 264.45558 307.584 
L 264.45558 214.330113 
L 262.469925 214.330113 
z
" clip-path="url(#pdd3f6a9e4b)" style="fill: #ff7f0e; opacity: 0.35"/>
   </g>
   <g id="patch_211">
    <path d="M 264.951993 307.584 
L 266.937648 307.584 
L 266.937648 224.10673 
L 264.951993 224.10673 
z
" clip-path="url(#pdd3f6a9e4b)" style="fill: #ff7f0e; opacity: 0.35"/>
   </g>
   <g id="patch_212">
    <path d="M 267.434062 307.584 
L 269.419716 307.584 
L 269.419716 224.858777 
L 267.434062 224.858777 
z
" clip-path="url(#pdd3f6a9e4b)" style="fill: #ff7f0e; opacity: 0.35"/>
   </g>
   <g id="patch_213">
    <path d="M 269.91613 307.584 
L 271.901785 307.584 
L 271.901785 238.395632 
L 269.91613 238.395632 
z
" clip-path="url(#pdd3f6a9e4b)" style="fill: #ff7f0e; opacity: 0.35"/>
   </g>
   <g id="patch_214">
    <path d="M 272.398198 307.584 
L 274.383853 307.584 
L 274.383853 232.379252 
L 272.398198 232.379252 
z
" clip-path="url(#pdd3f6a9e4b)" style="fill: #ff7f0e; opacity: 0.35"/>
   </g>
   <g id="patch_215">
    <path d="M 274.880267 307.584 
L 276.865922 307.584 
L 276.865922 246.668154 
L 274.880267 246.668154 
z
" clip-path="url(#pdd3f6a9e4b)" style="fill: #ff7f0e; opacity: 0.35"/>
   </g>
   <g id="patch_216">
    <path d="M 277.362335 307.584 
L 279.34799 307.584 
L 279.34799 242.155869 
L 277.362335 242.155869 
z
" clip-path="url(#pdd3f6a9e4b)" style="fill: #ff7f0e; opacity: 0.35"/>
   </g>
   <g id="patch_217">
    <path d="M 279.844404 307.584 
L 281.830058 307.584 
L 281.830058 252.684534 
L 279.844404 252.684534 
z
" clip-path="url(#pdd3f6a9e4b)" style="fill: #ff7f0e; opacity: 0.35"/>
   </g>
   <g id="patch_218">
    <path d="M 282.326472 307.584 
L 284.312127 307.584 
L 284.312127 271.485721 
L 282.326472 271.485721 
z
" clip-path="url(#pdd3f6a9e4b)" style="fill: #ff7f0e; opacity: 0.35"/>
   </g>
   <g id="patch_219">
    <path d="M 284.80854 307.584 
L 286.794195 307.584 
L 286.794195 264.717294 
L 284.80854 264.717294 
z
" clip-path="url(#pdd3f6a9e4b)" style="fill: #ff7f0e; opacity: 0.35"/>
   </g>
   <g id="patch_220">
    <path d="M 287.290609 307.584 
L 289.276264 307.584 
L 289.276264 269.981626 
L 287.290609 269.981626 
z
" clip-path="url(#pdd3f6a9e4b)" style="fill: #ff7f0e; opacity: 0.35"/>
   </g>
   <g id="patch_221">
    <path d="M 289.772677 307.584 
L 291.758332 307.584 
L 291.758332 271.485721 
L 289.772677 271.485721 
z
" clip-path="url(#pdd3f6a9e4b)" style="fill: #ff7f0e; opacity: 0.35"/>
   </g>
   <g id="patch_222">
    <path d="M 292.254746 307.584 
L 294.2404 307.584 
L 294.2404 273.741864 
L 292.254746 273.741864 
z
" clip-path="url(#pdd3f6a9e4b)" style="fill: #ff7f0e; opacity: 0.35"/>
   </g>
   <g id="patch_223">
    <path d="M 294.736814 307.584 
L 296.722469 307.584 
L 296.722469 284.270528 
L 294.736814 284.270528 
z
" clip-path="url(#pdd3f6a9e4b)" style="fill: #ff7f0e; opacity: 0.35"/>
   </g>
   <g id="patch_224">
    <path d="M 297.218882 307.584 
L 299.204537 307.584 
L 299.204537 287.278718 
L 297.218882 287.278718 
z
" clip-path="url(#pdd3f6a9e4b)" style="fill: #ff7f0e; opacity: 0.35"/>
   </g>
   <g id="patch_225">
    <path d="M 299.700951 307.584 
L 301.686606 307.584 
L 301.686606 279.006196 
L 299.700951 279.006196 
z
" clip-path="url(#pdd3f6a9e4b)" style="fill: #ff7f0e; opacity: 0.35"/>
   </g>
   <g id="patch_226">
    <path d="M 302.183019 307.584 
L 304.168674 307.584 
L 304.168674 285.022576 
L 302.183019 285.022576 
z
" clip-path="url(#pdd3f6a9e4b)" style="fill: #ff7f0e; opacity: 0.35"/>
   </g>
   <g id="patch_227">
    <path d="M 304.665088 307.584 
L 306.650742 307.584 
L 306.650742 284.270528 
L 304.665088 284.270528 
z
" clip-path="url(#pdd3f6a9e4b)" style="fill: #ff7f0e; opacity: 0.35"/>
   </g>
   <g id="patch_228">
    <path d="M 307.147156 307.584 
L 309.132811 307.584 
L 309.132811 291.038955 
L 307.147156 291.038955 
z
" clip-path="url(#pdd3f6a9e4b)" style="fill: #ff7f0e; opacity: 0.35"/>
   </g>
   <g id="patch_229">
    <path d="M 309.629224 307.584 
L 311.614879 307.584 
L 311.614879 291.791003 
L 309.629224 291.791003 
z
" clip-path="url(#pdd3f6a9e4b)" style="fill: #ff7f0e; opacity: 0.35"/>
   </g>
   <g id="patch_230">
    <path d="M 312.111293 307.584 
L 314.096947 307.584 
L 314.096947 294.799193 
L 312.111293 294.799193 
z
" clip-path="url(#pdd3f6a9e4b)" style="fill: #ff7f0e; opacity: 0.35"/>
   </g>
   <g id="patch_231">
    <path d="M 314.593361 307.584 
L 316.579016 307.584 
L 316.579016 293.295098 
L 314.593361 293.295098 
z
" clip-path="url(#pdd3f6a9e4b)" style="fill: #ff7f0e; opacity: 0.35"/>
   </g>
   <g id="patch_232">
    <path d="M 317.07543 307.584 
L 319.061084 307.584 
L 319.061084 299.311478 
L 317.07543 299.311478 
z
" clip-path="url(#pdd3f6a9e4b)" style="fill: #ff7f0e; opacity: 0.35"/>
   </g>
   <g id="patch_233">
    <path d="M 319.557498 307.584 
L 321.543153 307.584 
L 321.543153 303.823763 
L 319.557498 303.823763 
z
" clip-path="url(#pdd3f6a9e4b)" style="fill: #ff7f0e; opacity: 0.35"/>
   </g>
   <g id="patch_234">
    <path d="M 322.039566 307.584 
L 324.025221 307.584 
L 324.025221 298.55943 
L 322.039566 298.55943 
z
" clip-path="url(#pdd3f6a9e4b)" style="fill: #ff7f0e; opacity: 0.35"/>
   </g>
   <g id="patch_235">
    <path d="M 324.521635 307.584 
L 326.507289 307.584 
L 326.507289 302.319668 
L 324.521635 302.319668 
z
" clip-path="url(#pdd3f6a9e4b)" style="fill: #ff7f0e; opacity: 0.35"/>
   </g>
   <g id="patch_236">
    <path d="M 327.003703 307.584 
L 328.989358 307.584 
L 328.989358 302.319668 
L 327.003703 302.319668 
z
" clip-path="url(#pdd3f6a9e4b)" style="fill: #ff7f0e; opacity: 0.35"/>
   </g>
   <g id="patch_237">
    <path d="M 329.485771 307.584 
L 331.471426 307.584 
L 331.471426 303.071715 
L 329.485771 303.071715 
z
" clip-path="url(#pdd3f6a9e4b)" style="fill: #ff7f0e; opacity: 0.35"/>
   </g>
   <g id="patch_238">
    <path d="M 331.96784 307.584 
L 333.953495 307.584 
L 333.953495 303.823763 
L 331.96784 303.823763 
z
" clip-path="url(#pdd3f6a9e4b)" style="fill: #ff7f0e; opacity: 0.35"/>
   </g>
   <g id="patch_239">
    <path d="M 334.449908 307.584 
L 336.435563 307.584 
L 336.435563 305.327858 
L 334.449908 305.327858 
z
" clip-path="url(#pdd3f6a9e4b)" style="fill: #ff7f0e; opacity: 0.35"/>
   </g>
   <g id="patch_240">
    <path d="M 336.931977 307.584 
L 338.917631 307.584 
L 338.917631 301.56762 
L 336.931977 301.56762 
z
" clip-path="url(#pdd3f6a9e4b)" style="fill: #ff7f0e; opacity: 0.35"/>
   </g>
   <g id="patch_241">
    <path d="M 339.414045 307.584 
L 341.3997 307.584 
L 341.3997 303.071715 
L 339.414045 303.071715 
z
" clip-path="url(#pdd3f6a9e4b)" style="fill: #ff7f0e; opacity: 0.35"/>
   </g>
   <g id="patch_242">
    <path d="M 341.896113 307.584 
L 343.881768 307.584 
L 343.881768 304.57581 
L 341.896113 304.57581 
z
" clip-path="url(#pdd3f6a9e4b)" style="fill: #ff7f0e; opacity: 0.35"/>
   </g>
   <g id="patch_243">
    <path d="M 344.378182 307.584 
L 346.363837 307.584 
L 346.363837 305.327858 
L 344.378182 305.327858 
z
" clip-path="url(#pdd3f6a9e4b)" style="fill: #ff7f0e; opacity: 0.35"/>
   </g>
   <g id="patch_244">
    <path d="M 346.86025 307.584 
L 348.845905 307.584 
L 348.845905 304.57581 
L 346.86025 304.57581 
z
" clip-path="url(#pdd3f6a9e4b)" style="fill: #ff7f0e; opacity: 0.35"/>
   </g>
   <g id="patch_245">
    <path d="M 349.342319 307.584 
L 351.327973 307.584 
L 351.327973 305.327858 
L 349.342319 305.327858 
z
" clip-path="url(#pdd3f6a9e4b)" style="fill: #ff7f0e; opacity: 0.35"/>
   </g>
   <g id="patch_246">
    <path d="M 351.824387 307.584 
L 353.810042 307.584 
L 353.810042 306.079905 
L 351.824387 306.079905 
z
" clip-path="url(#pdd3f6a9e4b)" style="fill: #ff7f0e; opacity: 0.35"/>
   </g>
   <g id="patch_247">
    <path d="M 354.306455 307.584 
L 356.29211 307.584 
L 356.29211 305.327858 
L 354.306455 305.327858 
z
" clip-path="url(#pdd3f6a9e4b)" style="fill: #ff7f0e; opacity: 0.35"/>
   </g>
   <g id="patch_248">
    <path d="M 356.788524 307.584 
L 358.774178 307.584 
L 358.774178 306.831953 
L 356.788524 306.831953 
z
" clip-path="url(#pdd3f6a9e4b)" style="fill: #ff7f0e; opacity: 0.35"/>
   </g>
   <g id="patch_249">
    <path d="M 359.270592 307.584 
L 361.256247 307.584 
L 361.256247 302.319668 
L 359.270592 302.319668 
z
" clip-path="url(#pdd3f6a9e4b)" style="fill: #ff7f0e; opacity: 0.35"/>
   </g>
   <g id="patch_250">
    <path d="M 361.752661 307.584 
L 363.738315 307.584 
L 363.738315 305.327858 
L 361.752661 305.327858 
z
" clip-path="url(#pdd3f6a9e4b)" style="fill: #ff7f0e; opacity: 0.35"/>
   </g>
   <g id="patch_251">
    <path d="M 364.234729 307.584 
L 366.220384 307.584 
L 366.220384 303.071715 
L 364.234729 303.071715 
z
" clip-path="url(#pdd3f6a9e4b)" style="fill: #ff7f0e; opacity: 0.35"/>
   </g>
   <g id="patch_252">
    <path d="M 366.716797 307.584 
L 368.702452 307.584 
L 368.702452 306.079905 
L 366.716797 306.079905 
z
" clip-path="url(#pdd3f6a9e4b)" style="fill: #ff7f0e; opacity: 0.35"/>
   </g>
   <g id="patch_253">
    <path d="M 369.198866 307.584 
L 371.18452 307.584 
L 371.18452 306.831953 
L 369.198866 306.831953 
z
" clip-path="url(#pdd3f6a9e4b)" style="fill: #ff7f0e; opacity: 0.35"/>
   </g>
   <g id="patch_254">
    <path d="M 371.680934 307.584 
L 373.666589 307.584 
L 373.666589 303.071715 
L 371.680934 303.071715 
z
" clip-path="url(#pdd3f6a9e4b)" style="fill: #ff7f0e; opacity: 0.35"/>
   </g>
   <g id="patch_255">
    <path d="M 374.163003 307.584 
L 376.148657 307.584 
L 376.148657 305.327858 
L 374.163003 305.327858 
z
" clip-path="url(#pdd3f6a9e4b)" style="fill: #ff7f0e; opacity: 0.35"/>
   </g>
   <g id="patch_256">
    <path d="M 376.645071 307.584 
L 378.630726 307.584 
L 378.630726 306.079905 
L 376.645071 306.079905 
z
" clip-path="url(#pdd3f6a9e4b)" style="fill: #ff7f0e; opacity: 0.35"/>
   </g>
   <g id="patch_257">
    <path d="M 379.127139 307.584 
L 381.112794 307.584 
L 381.112794 305.327858 
L 379.127139 305.327858 
z
" clip-path="url(#pdd3f6a9e4b)" style="fill: #ff7f0e; opacity: 0.35"/>
   </g>
   <g id="patch_258">
    <path d="M 381.609208 307.584 
L 383.594862 307.584 
L 383.594862 306.831953 
L 381.609208 306.831953 
z
" clip-path="url(#pdd3f6a9e4b)" style="fill: #ff7f0e; opacity: 0.35"/>
   </g>
   <g id="patch_259">
    <path d="M 384.091276 307.584 
L 386.076931 307.584 
L 386.076931 306.831953 
L 384.091276 306.831953 
z
" clip-path="url(#pdd3f6a9e4b)" style="fill: #ff7f0e; opacity: 0.35"/>
   </g>
   <g id="patch_260">
    <path d="M 386.573344 307.584 
L 388.558999 307.584 
L 388.558999 306.831953 
L 386.573344 306.831953 
z
" clip-path="url(#pdd3f6a9e4b)" style="fill: #ff7f0e; opacity: 0.35"/>
   </g>
   <g id="patch_261">
    <path d="M 389.055413 307.584 
L 391.041068 307.584 
L 391.041068 307.584 
L 389.055413 307.584 
z
" clip-path="url(#pdd3f6a9e4b)" style="fill: #ff7f0e; opacity: 0.35"/>
   </g>
   <g id="patch_262">
    <path d="M 391.537481 307.584 
L 393.523136 307.584 
L 393.523136 307.584 
L 391.537481 307.584 
z
" clip-path="url(#pdd3f6a9e4b)" style="fill: #ff7f0e; opacity: 0.35"/>
   </g>
   <g id="patch_263">
    <path d="M 394.01955 307.584 
L 396.005204 307.584 
L 396.005204 306.831953 
L 394.01955 306.831953 
z
" clip-path="url(#pdd3f6a9e4b)" style="fill: #ff7f0e; opacity: 0.35"/>
   </g>
   <g id="patch_264">
    <path d="M 396.501618 307.584 
L 398.487273 307.584 
L 398.487273 306.831953 
L 396.501618 306.831953 
z
" clip-path="url(#pdd3f6a9e4b)" style="fill: #ff7f0e; opacity: 0.35"/>
   </g>
   <g id="matplotlib.axis_1">
    <g id="xtick_1">
     <g id="line2d_1">
      <defs>
       <path id="md16f6ece91" d="M 0 0 
L 0 3.5 
" style="stroke: #000000; stroke-width: 0.8"/>
      </defs>
      <g>
       <use xlink:href="#md16f6ece91" x="73.832727" y="307.584" style="stroke: #000000; stroke-width: 0.8"/>
      </g>
     </g>
     <g id="text_1">
      <!-- 0 -->
      <g transform="translate(70.651477 322.182437) scale(0.1 -0.1)">
       <defs>
        <path id="DejaVuSans-30" d="M 2034 4250 
Q 1547 4250 1301 3770 
Q 1056 3291 1056 2328 
Q 1056 1369 1301 889 
Q 1547 409 2034 409 
Q 2525 409 2770 889 
Q 3016 1369 3016 2328 
Q 3016 3291 2770 3770 
Q 2525 4250 2034 4250 
z
M 2034 4750 
Q 2819 4750 3233 4129 
Q 3647 3509 3647 2328 
Q 3647 1150 3233 529 
Q 2819 -91 2034 -91 
Q 1250 -91 836 529 
Q 422 1150 422 2328 
Q 422 3509 836 4129 
Q 1250 4750 2034 4750 
z
" transform="scale(0.015625)"/>
       </defs>
       <use xlink:href="#DejaVuSans-30"/>
      </g>
     </g>
    </g>
    <g id="xtick_2">
     <g id="line2d_2">
      <g>
       <use xlink:href="#md16f6ece91" x="123.474095" y="307.584" style="stroke: #000000; stroke-width: 0.8"/>
      </g>
     </g>
     <g id="text_2">
      <!-- 20 -->
      <g transform="translate(117.111595 322.182437) scale(0.1 -0.1)">
       <defs>
        <path id="DejaVuSans-32" d="M 1228 531 
L 3431 531 
L 3431 0 
L 469 0 
L 469 531 
Q 828 903 1448 1529 
Q 2069 2156 2228 2338 
Q 2531 2678 2651 2914 
Q 2772 3150 2772 3378 
Q 2772 3750 2511 3984 
Q 2250 4219 1831 4219 
Q 1534 4219 1204 4116 
Q 875 4013 500 3803 
L 500 4441 
Q 881 4594 1212 4672 
Q 1544 4750 1819 4750 
Q 2544 4750 2975 4387 
Q 3406 4025 3406 3419 
Q 3406 3131 3298 2873 
Q 3191 2616 2906 2266 
Q 2828 2175 2409 1742 
Q 1991 1309 1228 531 
z
" transform="scale(0.015625)"/>
       </defs>
       <use xlink:href="#DejaVuSans-32"/>
       <use xlink:href="#DejaVuSans-30" x="63.623047"/>
      </g>
     </g>
    </g>
    <g id="xtick_3">
     <g id="line2d_3">
      <g>
       <use xlink:href="#md16f6ece91" x="173.115463" y="307.584" style="stroke: #000000; stroke-width: 0.8"/>
      </g>
     </g>
     <g id="text_3">
      <!-- 40 -->
      <g transform="translate(166.752963 322.182437) scale(0.1 -0.1)">
       <defs>
        <path id="DejaVuSans-34" d="M 2419 4116 
L 825 1625 
L 2419 1625 
L 2419 4116 
z
M 2253 4666 
L 3047 4666 
L 3047 1625 
L 3713 1625 
L 3713 1100 
L 3047 1100 
L 3047 0 
L 2419 0 
L 2419 1100 
L 313 1100 
L 313 1709 
L 2253 4666 
z
" transform="scale(0.015625)"/>
       </defs>
       <use xlink:href="#DejaVuSans-34"/>
       <use xlink:href="#DejaVuSans-30" x="63.623047"/>
      </g>
     </g>
    </g>
    <g id="xtick_4">
     <g id="line2d_4">
      <g>
       <use xlink:href="#md16f6ece91" x="222.756831" y="307.584" style="stroke: #000000; stroke-width: 0.8"/>
      </g>
     </g>
     <g id="text_4">
      <!-- 60 -->
      <g transform="translate(216.394331 322.182437) scale(0.1 -0.1)">
       <defs>
        <path id="DejaVuSans-36" d="M 2113 2584 
Q 1688 2584 1439 2293 
Q 1191 2003 1191 1497 
Q 1191 994 1439 701 
Q 1688 409 2113 409 
Q 2538 409 2786 701 
Q 3034 994 3034 1497 
Q 3034 2003 2786 2293 
Q 2538 2584 2113 2584 
z
M 3366 4563 
L 3366 3988 
Q 3128 4100 2886 4159 
Q 2644 4219 2406 4219 
Q 1781 4219 1451 3797 
Q 1122 3375 1075 2522 
Q 1259 2794 1537 2939 
Q 1816 3084 2150 3084 
Q 2853 3084 3261 2657 
Q 3669 2231 3669 1497 
Q 3669 778 3244 343 
Q 2819 -91 2113 -91 
Q 1303 -91 875 529 
Q 447 1150 447 2328 
Q 447 3434 972 4092 
Q 1497 4750 2381 4750 
Q 2619 4750 2861 4703 
Q 3103 4656 3366 4563 
z
" transform="scale(0.015625)"/>
       </defs>
       <use xlink:href="#DejaVuSans-36"/>
       <use xlink:href="#DejaVuSans-30" x="63.623047"/>
      </g>
     </g>
    </g>
    <g id="xtick_5">
     <g id="line2d_5">
      <g>
       <use xlink:href="#md16f6ece91" x="272.398198" y="307.584" style="stroke: #000000; stroke-width: 0.8"/>
      </g>
     </g>
     <g id="text_5">
      <!-- 80 -->
      <g transform="translate(266.035698 322.182437) scale(0.1 -0.1)">
       <defs>
        <path id="DejaVuSans-38" d="M 2034 2216 
Q 1584 2216 1326 1975 
Q 1069 1734 1069 1313 
Q 1069 891 1326 650 
Q 1584 409 2034 409 
Q 2484 409 2743 651 
Q 3003 894 3003 1313 
Q 3003 1734 2745 1975 
Q 2488 2216 2034 2216 
z
M 1403 2484 
Q 997 2584 770 2862 
Q 544 3141 544 3541 
Q 544 4100 942 4425 
Q 1341 4750 2034 4750 
Q 2731 4750 3128 4425 
Q 3525 4100 3525 3541 
Q 3525 3141 3298 2862 
Q 3072 2584 2669 2484 
Q 3125 2378 3379 2068 
Q 3634 1759 3634 1313 
Q 3634 634 3220 271 
Q 2806 -91 2034 -91 
Q 1263 -91 848 271 
Q 434 634 434 1313 
Q 434 1759 690 2068 
Q 947 2378 1403 2484 
z
M 1172 3481 
Q 1172 3119 1398 2916 
Q 1625 2713 2034 2713 
Q 2441 2713 2670 2916 
Q 2900 3119 2900 3481 
Q 2900 3844 2670 4047 
Q 2441 4250 2034 4250 
Q 1625 4250 1398 4047 
Q 1172 3844 1172 3481 
z
" transform="scale(0.015625)"/>
       </defs>
       <use xlink:href="#DejaVuSans-38"/>
       <use xlink:href="#DejaVuSans-30" x="63.623047"/>
      </g>
     </g>
    </g>
    <g id="xtick_6">
     <g id="line2d_6">
      <g>
       <use xlink:href="#md16f6ece91" x="322.039566" y="307.584" style="stroke: #000000; stroke-width: 0.8"/>
      </g>
     </g>
     <g id="text_6">
      <!-- 100 -->
      <g transform="translate(312.495816 322.182437) scale(0.1 -0.1)">
       <defs>
        <path id="DejaVuSans-31" d="M 794 531 
L 1825 531 
L 1825 4091 
L 703 3866 
L 703 4441 
L 1819 4666 
L 2450 4666 
L 2450 531 
L 3481 531 
L 3481 0 
L 794 0 
L 794 531 
z
" transform="scale(0.015625)"/>
       </defs>
       <use xlink:href="#DejaVuSans-31"/>
       <use xlink:href="#DejaVuSans-30" x="63.623047"/>
       <use xlink:href="#DejaVuSans-30" x="127.246094"/>
      </g>
     </g>
    </g>
    <g id="xtick_7">
     <g id="line2d_7">
      <g>
       <use xlink:href="#md16f6ece91" x="371.680934" y="307.584" style="stroke: #000000; stroke-width: 0.8"/>
      </g>
     </g>
     <g id="text_7">
      <!-- 120 -->
      <g transform="translate(362.137184 322.182437) scale(0.1 -0.1)">
       <use xlink:href="#DejaVuSans-31"/>
       <use xlink:href="#DejaVuSans-32" x="63.623047"/>
       <use xlink:href="#DejaVuSans-30" x="127.246094"/>
      </g>
     </g>
    </g>
    <g id="text_8">
     <!-- Tranche de dbattement de 1mm -->
     <g transform="translate(152.219375 335.860562) scale(0.1 -0.1)">
      <defs>
       <path id="DejaVuSans-54" d="M -19 4666 
L 3928 4666 
L 3928 4134 
L 2272 4134 
L 2272 0 
L 1638 0 
L 1638 4134 
L -19 4134 
L -19 4666 
z
" transform="scale(0.015625)"/>
       <path id="DejaVuSans-72" d="M 2631 2963 
Q 2534 3019 2420 3045 
Q 2306 3072 2169 3072 
Q 1681 3072 1420 2755 
Q 1159 2438 1159 1844 
L 1159 0 
L 581 0 
L 581 3500 
L 1159 3500 
L 1159 2956 
Q 1341 3275 1631 3429 
Q 1922 3584 2338 3584 
Q 2397 3584 2469 3576 
Q 2541 3569 2628 3553 
L 2631 2963 
z
" transform="scale(0.015625)"/>
       <path id="DejaVuSans-61" d="M 2194 1759 
Q 1497 1759 1228 1600 
Q 959 1441 959 1056 
Q 959 750 1161 570 
Q 1363 391 1709 391 
Q 2188 391 2477 730 
Q 2766 1069 2766 1631 
L 2766 1759 
L 2194 1759 
z
M 3341 1997 
L 3341 0 
L 2766 0 
L 2766 531 
Q 2569 213 2275 61 
Q 1981 -91 1556 -91 
Q 1019 -91 701 211 
Q 384 513 384 1019 
Q 384 1609 779 1909 
Q 1175 2209 1959 2209 
L 2766 2209 
L 2766 2266 
Q 2766 2663 2505 2880 
Q 2244 3097 1772 3097 
Q 1472 3097 1187 3025 
Q 903 2953 641 2809 
L 641 3341 
Q 956 3463 1253 3523 
Q 1550 3584 1831 3584 
Q 2591 3584 2966 3190 
Q 3341 2797 3341 1997 
z
" transform="scale(0.015625)"/>
       <path id="DejaVuSans-6e" d="M 3513 2113 
L 3513 0 
L 2938 0 
L 2938 2094 
Q 2938 2591 2744 2837 
Q 2550 3084 2163 3084 
Q 1697 3084 1428 2787 
Q 1159 2491 1159 1978 
L 1159 0 
L 581 0 
L 581 3500 
L 1159 3500 
L 1159 2956 
Q 1366 3272 1645 3428 
Q 1925 3584 2291 3584 
Q 2894 3584 3203 3211 
Q 3513 2838 3513 2113 
z
" transform="scale(0.015625)"/>
       <path id="DejaVuSans-63" d="M 3122 3366 
L 3122 2828 
Q 2878 2963 2633 3030 
Q 2388 3097 2138 3097 
Q 1578 3097 1268 2742 
Q 959 2388 959 1747 
Q 959 1106 1268 751 
Q 1578 397 2138 397 
Q 2388 397 2633 464 
Q 2878 531 3122 666 
L 3122 134 
Q 2881 22 2623 -34 
Q 2366 -91 2075 -91 
Q 1284 -91 818 406 
Q 353 903 353 1747 
Q 353 2603 823 3093 
Q 1294 3584 2113 3584 
Q 2378 3584 2631 3529 
Q 2884 3475 3122 3366 
z
" transform="scale(0.015625)"/>
       <path id="DejaVuSans-68" d="M 3513 2113 
L 3513 0 
L 2938 0 
L 2938 2094 
Q 2938 2591 2744 2837 
Q 2550 3084 2163 3084 
Q 1697 3084 1428 2787 
Q 1159 2491 1159 1978 
L 1159 0 
L 581 0 
L 581 4863 
L 1159 4863 
L 1159 2956 
Q 1366 3272 1645 3428 
Q 1925 3584 2291 3584 
Q 2894 3584 3203 3211 
Q 3513 2838 3513 2113 
z
" transform="scale(0.015625)"/>
       <path id="DejaVuSans-65" d="M 3597 1894 
L 3597 1613 
L 953 1613 
Q 991 1019 1311 708 
Q 1631 397 2203 397 
Q 2534 397 2845 478 
Q 3156 559 3463 722 
L 3463 178 
Q 3153 47 2828 -22 
Q 2503 -91 2169 -91 
Q 1331 -91 842 396 
Q 353 884 353 1716 
Q 353 2575 817 3079 
Q 1281 3584 2069 3584 
Q 2775 3584 3186 3129 
Q 3597 2675 3597 1894 
z
M 3022 2063 
Q 3016 2534 2758 2815 
Q 2500 3097 2075 3097 
Q 1594 3097 1305 2825 
Q 1016 2553 972 2059 
L 3022 2063 
z
" transform="scale(0.015625)"/>
       <path id="DejaVuSans-20" transform="scale(0.015625)"/>
       <path id="DejaVuSans-64" d="M 2906 2969 
L 2906 4863 
L 3481 4863 
L 3481 0 
L 2906 0 
L 2906 525 
Q 2725 213 2448 61 
Q 2172 -91 1784 -91 
Q 1150 -91 751 415 
Q 353 922 353 1747 
Q 353 2572 751 3078 
Q 1150 3584 1784 3584 
Q 2172 3584 2448 3432 
Q 2725 3281 2906 2969 
z
M 947 1747 
Q 947 1113 1208 752 
Q 1469 391 1925 391 
Q 2381 391 2643 752 
Q 2906 1113 2906 1747 
Q 2906 2381 2643 2742 
Q 2381 3103 1925 3103 
Q 1469 3103 1208 2742 
Q 947 2381 947 1747 
z
" transform="scale(0.015625)"/>
       <path id="DejaVuSans-e9" d="M 3597 1894 
L 3597 1613 
L 953 1613 
Q 991 1019 1311 708 
Q 1631 397 2203 397 
Q 2534 397 2845 478 
Q 3156 559 3463 722 
L 3463 178 
Q 3153 47 2828 -22 
Q 2503 -91 2169 -91 
Q 1331 -91 842 396 
Q 353 884 353 1716 
Q 353 2575 817 3079 
Q 1281 3584 2069 3584 
Q 2775 3584 3186 3129 
Q 3597 2675 3597 1894 
z
M 3022 2063 
Q 3016 2534 2758 2815 
Q 2500 3097 2075 3097 
Q 1594 3097 1305 2825 
Q 1016 2553 972 2059 
L 3022 2063 
z
M 2466 5119 
L 3088 5119 
L 2070 3944 
L 1591 3944 
L 2466 5119 
z
" transform="scale(0.015625)"/>
       <path id="DejaVuSans-62" d="M 3116 1747 
Q 3116 2381 2855 2742 
Q 2594 3103 2138 3103 
Q 1681 3103 1420 2742 
Q 1159 2381 1159 1747 
Q 1159 1113 1420 752 
Q 1681 391 2138 391 
Q 2594 391 2855 752 
Q 3116 1113 3116 1747 
z
M 1159 2969 
Q 1341 3281 1617 3432 
Q 1894 3584 2278 3584 
Q 2916 3584 3314 3078 
Q 3713 2572 3713 1747 
Q 3713 922 3314 415 
Q 2916 -91 2278 -91 
Q 1894 -91 1617 61 
Q 1341 213 1159 525 
L 1159 0 
L 581 0 
L 581 4863 
L 1159 4863 
L 1159 2969 
z
" transform="scale(0.015625)"/>
       <path id="DejaVuSans-74" d="M 1172 4494 
L 1172 3500 
L 2356 3500 
L 2356 3053 
L 1172 3053 
L 1172 1153 
Q 1172 725 1289 603 
Q 1406 481 1766 481 
L 2356 481 
L 2356 0 
L 1766 0 
Q 1100 0 847 248 
Q 594 497 594 1153 
L 594 3053 
L 172 3053 
L 172 3500 
L 594 3500 
L 594 4494 
L 1172 4494 
z
" transform="scale(0.015625)"/>
       <path id="DejaVuSans-6d" d="M 3328 2828 
Q 3544 3216 3844 3400 
Q 4144 3584 4550 3584 
Q 5097 3584 5394 3201 
Q 5691 2819 5691 2113 
L 5691 0 
L 5113 0 
L 5113 2094 
Q 5113 2597 4934 2840 
Q 4756 3084 4391 3084 
Q 3944 3084 3684 2787 
Q 3425 2491 3425 1978 
L 3425 0 
L 2847 0 
L 2847 2094 
Q 2847 2600 2669 2842 
Q 2491 3084 2119 3084 
Q 1678 3084 1418 2786 
Q 1159 2488 1159 1978 
L 1159 0 
L 581 0 
L 581 3500 
L 1159 3500 
L 1159 2956 
Q 1356 3278 1631 3431 
Q 1906 3584 2284 3584 
Q 2666 3584 2933 3390 
Q 3200 3197 3328 2828 
z
" transform="scale(0.015625)"/>
      </defs>
      <use xlink:href="#DejaVuSans-54"/>
      <use xlink:href="#DejaVuSans-72" x="46.333984"/>
      <use xlink:href="#DejaVuSans-61" x="87.447266"/>
      <use xlink:href="#DejaVuSans-6e" x="148.726562"/>
      <use xlink:href="#DejaVuSans-63" x="212.105469"/>
      <use xlink:href="#DejaVuSans-68" x="267.085938"/>
      <use xlink:href="#DejaVuSans-65" x="330.464844"/>
      <use xlink:href="#DejaVuSans-20" x="391.988281"/>
      <use xlink:href="#DejaVuSans-64" x="423.775391"/>
      <use xlink:href="#DejaVuSans-65" x="487.251953"/>
      <use xlink:href="#DejaVuSans-20" x="548.775391"/>
      <use xlink:href="#DejaVuSans-64" x="580.5625"/>
      <use xlink:href="#DejaVuSans-e9" x="644.039062"/>
      <use xlink:href="#DejaVuSans-62" x="705.5625"/>
      <use xlink:href="#DejaVuSans-61" x="769.039062"/>
      <use xlink:href="#DejaVuSans-74" x="830.318359"/>
      <use xlink:href="#DejaVuSans-74" x="869.527344"/>
      <use xlink:href="#DejaVuSans-65" x="908.736328"/>
      <use xlink:href="#DejaVuSans-6d" x="970.259766"/>
      <use xlink:href="#DejaVuSans-65" x="1067.671875"/>
      <use xlink:href="#DejaVuSans-6e" x="1129.195312"/>
      <use xlink:href="#DejaVuSans-74" x="1192.574219"/>
      <use xlink:href="#DejaVuSans-20" x="1231.783203"/>
      <use xlink:href="#DejaVuSans-64" x="1263.570312"/>
      <use xlink:href="#DejaVuSans-65" x="1327.046875"/>
      <use xlink:href="#DejaVuSans-20" x="1388.570312"/>
      <use xlink:href="#DejaVuSans-31" x="1420.357422"/>
      <use xlink:href="#DejaVuSans-6d" x="1483.980469"/>
      <use xlink:href="#DejaVuSans-6d" x="1581.392578"/>
     </g>
    </g>
   </g>
   <g id="matplotlib.axis_2">
    <g id="ytick_1">
     <g id="line2d_8">
      <defs>
       <path id="m393f9640b0" d="M 0 0 
L -3.5 0 
" style="stroke: #000000; stroke-width: 0.8"/>
      </defs>
      <g>
       <use xlink:href="#m393f9640b0" x="57.6" y="307.584" style="stroke: #000000; stroke-width: 0.8"/>
      </g>
     </g>
     <g id="text_9">
      <!-- 0.0 -->
      <g transform="translate(34.696875 311.383219) scale(0.1 -0.1)">
       <defs>
        <path id="DejaVuSans-2e" d="M 684 794 
L 1344 794 
L 1344 0 
L 684 0 
L 684 794 
z
" transform="scale(0.015625)"/>
       </defs>
       <use xlink:href="#DejaVuSans-30"/>
       <use xlink:href="#DejaVuSans-2e" x="63.623047"/>
       <use xlink:href="#DejaVuSans-30" x="95.410156"/>
      </g>
     </g>
    </g>
    <g id="ytick_2">
     <g id="line2d_9">
      <g>
       <use xlink:href="#m393f9640b0" x="57.6" y="254.177348" style="stroke: #000000; stroke-width: 0.8"/>
      </g>
     </g>
     <g id="text_10">
      <!-- 0.5 -->
      <g transform="translate(34.696875 257.976567) scale(0.1 -0.1)">
       <defs>
        <path id="DejaVuSans-35" d="M 691 4666 
L 3169 4666 
L 3169 4134 
L 1269 4134 
L 1269 2991 
Q 1406 3038 1543 3061 
Q 1681 3084 1819 3084 
Q 2600 3084 3056 2656 
Q 3513 2228 3513 1497 
Q 3513 744 3044 326 
Q 2575 -91 1722 -91 
Q 1428 -91 1123 -41 
Q 819 9 494 109 
L 494 744 
Q 775 591 1075 516 
Q 1375 441 1709 441 
Q 2250 441 2565 725 
Q 2881 1009 2881 1497 
Q 2881 1984 2565 2268 
Q 2250 2553 1709 2553 
Q 1456 2553 1204 2497 
Q 953 2441 691 2322 
L 691 4666 
z
" transform="scale(0.015625)"/>
       </defs>
       <use xlink:href="#DejaVuSans-30"/>
       <use xlink:href="#DejaVuSans-2e" x="63.623047"/>
       <use xlink:href="#DejaVuSans-35" x="95.410156"/>
      </g>
     </g>
    </g>
    <g id="ytick_3">
     <g id="line2d_10">
      <g>
       <use xlink:href="#m393f9640b0" x="57.6" y="200.770697" style="stroke: #000000; stroke-width: 0.8"/>
      </g>
     </g>
     <g id="text_11">
      <!-- 1.0 -->
      <g transform="translate(34.696875 204.569915) scale(0.1 -0.1)">
       <use xlink:href="#DejaVuSans-31"/>
       <use xlink:href="#DejaVuSans-2e" x="63.623047"/>
       <use xlink:href="#DejaVuSans-30" x="95.410156"/>
      </g>
     </g>
    </g>
    <g id="ytick_4">
     <g id="line2d_11">
      <g>
       <use xlink:href="#m393f9640b0" x="57.6" y="147.364045" style="stroke: #000000; stroke-width: 0.8"/>
      </g>
     </g>
     <g id="text_12">
      <!-- 1.5 -->
      <g transform="translate(34.696875 151.163264) scale(0.1 -0.1)">
       <use xlink:href="#DejaVuSans-31"/>
       <use xlink:href="#DejaVuSans-2e" x="63.623047"/>
       <use xlink:href="#DejaVuSans-35" x="95.410156"/>
      </g>
     </g>
    </g>
    <g id="ytick_5">
     <g id="line2d_12">
      <g>
       <use xlink:href="#m393f9640b0" x="57.6" y="93.957393" style="stroke: #000000; stroke-width: 0.8"/>
      </g>
     </g>
     <g id="text_13">
      <!-- 2.0 -->
      <g transform="translate(34.696875 97.756612) scale(0.1 -0.1)">
       <use xlink:href="#DejaVuSans-32"/>
       <use xlink:href="#DejaVuSans-2e" x="63.623047"/>
       <use xlink:href="#DejaVuSans-30" x="95.410156"/>
      </g>
     </g>
    </g>
    <g id="text_14">
     <!-- Temps pass en % -->
     <g transform="translate(28.617187 220.745187) rotate(-90) scale(0.1 -0.1)">
      <defs>
       <path id="DejaVuSans-70" d="M 1159 525 
L 1159 -1331 
L 581 -1331 
L 581 3500 
L 1159 3500 
L 1159 2969 
Q 1341 3281 1617 3432 
Q 1894 3584 2278 3584 
Q 2916 3584 3314 3078 
Q 3713 2572 3713 1747 
Q 3713 922 3314 415 
Q 2916 -91 2278 -91 
Q 1894 -91 1617 61 
Q 1341 213 1159 525 
z
M 3116 1747 
Q 3116 2381 2855 2742 
Q 2594 3103 2138 3103 
Q 1681 3103 1420 2742 
Q 1159 2381 1159 1747 
Q 1159 1113 1420 752 
Q 1681 391 2138 391 
Q 2594 391 2855 752 
Q 3116 1113 3116 1747 
z
" transform="scale(0.015625)"/>
       <path id="DejaVuSans-73" d="M 2834 3397 
L 2834 2853 
Q 2591 2978 2328 3040 
Q 2066 3103 1784 3103 
Q 1356 3103 1142 2972 
Q 928 2841 928 2578 
Q 928 2378 1081 2264 
Q 1234 2150 1697 2047 
L 1894 2003 
Q 2506 1872 2764 1633 
Q 3022 1394 3022 966 
Q 3022 478 2636 193 
Q 2250 -91 1575 -91 
Q 1294 -91 989 -36 
Q 684 19 347 128 
L 347 722 
Q 666 556 975 473 
Q 1284 391 1588 391 
Q 1994 391 2212 530 
Q 2431 669 2431 922 
Q 2431 1156 2273 1281 
Q 2116 1406 1581 1522 
L 1381 1569 
Q 847 1681 609 1914 
Q 372 2147 372 2553 
Q 372 3047 722 3315 
Q 1072 3584 1716 3584 
Q 2034 3584 2315 3537 
Q 2597 3491 2834 3397 
z
" transform="scale(0.015625)"/>
       <path id="DejaVuSans-25" d="M 4653 2053 
Q 4381 2053 4226 1822 
Q 4072 1591 4072 1178 
Q 4072 772 4226 539 
Q 4381 306 4653 306 
Q 4919 306 5073 539 
Q 5228 772 5228 1178 
Q 5228 1588 5073 1820 
Q 4919 2053 4653 2053 
z
M 4653 2450 
Q 5147 2450 5437 2106 
Q 5728 1763 5728 1178 
Q 5728 594 5436 251 
Q 5144 -91 4653 -91 
Q 4153 -91 3862 251 
Q 3572 594 3572 1178 
Q 3572 1766 3864 2108 
Q 4156 2450 4653 2450 
z
M 1428 4353 
Q 1159 4353 1004 4120 
Q 850 3888 850 3481 
Q 850 3069 1003 2837 
Q 1156 2606 1428 2606 
Q 1700 2606 1854 2837 
Q 2009 3069 2009 3481 
Q 2009 3884 1853 4118 
Q 1697 4353 1428 4353 
z
M 4250 4750 
L 4750 4750 
L 1831 -91 
L 1331 -91 
L 4250 4750 
z
M 1428 4750 
Q 1922 4750 2215 4408 
Q 2509 4066 2509 3481 
Q 2509 2891 2217 2550 
Q 1925 2209 1428 2209 
Q 931 2209 642 2551 
Q 353 2894 353 3481 
Q 353 4063 643 4406 
Q 934 4750 1428 4750 
z
" transform="scale(0.015625)"/>
      </defs>
      <use xlink:href="#DejaVuSans-54"/>
      <use xlink:href="#DejaVuSans-65" x="44.083984"/>
      <use xlink:href="#DejaVuSans-6d" x="105.607422"/>
      <use xlink:href="#DejaVuSans-70" x="203.019531"/>
      <use xlink:href="#DejaVuSans-73" x="266.496094"/>
      <use xlink:href="#DejaVuSans-20" x="318.595703"/>
      <use xlink:href="#DejaVuSans-70" x="350.382812"/>
      <use xlink:href="#DejaVuSans-61" x="413.859375"/>
      <use xlink:href="#DejaVuSans-73" x="475.138672"/>
      <use xlink:href="#DejaVuSans-73" x="527.238281"/>
      <use xlink:href="#DejaVuSans-e9" x="579.337891"/>
      <use xlink:href="#DejaVuSans-20" x="640.861328"/>
      <use xlink:href="#DejaVuSans-65" x="672.648438"/>
      <use xlink:href="#DejaVuSans-6e" x="734.171875"/>
      <use xlink:href="#DejaVuSans-20" x="797.550781"/>
      <use xlink:href="#DejaVuSans-25" x="829.337891"/>
     </g>
    </g>
   </g>
   <g id="patch_265">
    <path d="M 57.6 307.584 
L 57.6 41.472 
" style="fill: none; stroke: #000000; stroke-width: 0.8; stroke-linejoin: miter; stroke-linecap: square"/>
   </g>
   <g id="patch_266">
    <path d="M 414.72 307.584 
L 414.72 41.472 
" style="fill: none; stroke: #000000; stroke-width: 0.8; stroke-linejoin: miter; stroke-linecap: square"/>
   </g>
   <g id="patch_267">
    <path d="M 57.6 307.584 
L 414.72 307.584 
" style="fill: none; stroke: #000000; stroke-width: 0.8; stroke-linejoin: miter; stroke-linecap: square"/>
   </g>
   <g id="patch_268">
    <path d="M 57.6 41.472 
L 414.72 41.472 
" style="fill: none; stroke: #000000; stroke-width: 0.8; stroke-linejoin: miter; stroke-linecap: square"/>
   </g>
   <g id="text_15">
    <!-- Rpartition du temps par tranche de dbattement -->
    <g transform="translate(85.609688 35.472) scale(0.12 -0.12)">
     <defs>
      <path id="DejaVuSans-52" d="M 2841 2188 
Q 3044 2119 3236 1894 
Q 3428 1669 3622 1275 
L 4263 0 
L 3584 0 
L 2988 1197 
Q 2756 1666 2539 1819 
Q 2322 1972 1947 1972 
L 1259 1972 
L 1259 0 
L 628 0 
L 628 4666 
L 2053 4666 
Q 2853 4666 3247 4331 
Q 3641 3997 3641 3322 
Q 3641 2881 3436 2590 
Q 3231 2300 2841 2188 
z
M 1259 4147 
L 1259 2491 
L 2053 2491 
Q 2509 2491 2742 2702 
Q 2975 2913 2975 3322 
Q 2975 3731 2742 3939 
Q 2509 4147 2053 4147 
L 1259 4147 
z
" transform="scale(0.015625)"/>
      <path id="DejaVuSans-69" d="M 603 3500 
L 1178 3500 
L 1178 0 
L 603 0 
L 603 3500 
z
M 603 4863 
L 1178 4863 
L 1178 4134 
L 603 4134 
L 603 4863 
z
" transform="scale(0.015625)"/>
      <path id="DejaVuSans-6f" d="M 1959 3097 
Q 1497 3097 1228 2736 
Q 959 2375 959 1747 
Q 959 1119 1226 758 
Q 1494 397 1959 397 
Q 2419 397 2687 759 
Q 2956 1122 2956 1747 
Q 2956 2369 2687 2733 
Q 2419 3097 1959 3097 
z
M 1959 3584 
Q 2709 3584 3137 3096 
Q 3566 2609 3566 1747 
Q 3566 888 3137 398 
Q 2709 -91 1959 -91 
Q 1206 -91 779 398 
Q 353 888 353 1747 
Q 353 2609 779 3096 
Q 1206 3584 1959 3584 
z
" transform="scale(0.015625)"/>
      <path id="DejaVuSans-75" d="M 544 1381 
L 544 3500 
L 1119 3500 
L 1119 1403 
Q 1119 906 1312 657 
Q 1506 409 1894 409 
Q 2359 409 2629 706 
Q 2900 1003 2900 1516 
L 2900 3500 
L 3475 3500 
L 3475 0 
L 2900 0 
L 2900 538 
Q 2691 219 2414 64 
Q 2138 -91 1772 -91 
Q 1169 -91 856 284 
Q 544 659 544 1381 
z
M 1991 3584 
L 1991 3584 
z
" transform="scale(0.015625)"/>
     </defs>
     <use xlink:href="#DejaVuSans-52"/>
     <use xlink:href="#DejaVuSans-e9" x="64.982422"/>
     <use xlink:href="#DejaVuSans-70" x="126.505859"/>
     <use xlink:href="#DejaVuSans-61" x="189.982422"/>
     <use xlink:href="#DejaVuSans-72" x="251.261719"/>
     <use xlink:href="#DejaVuSans-74" x="292.375"/>
     <use xlink:href="#DejaVuSans-69" x="331.583984"/>
     <use xlink:href="#DejaVuSans-74" x="359.367188"/>
     <use xlink:href="#DejaVuSans-69" x="398.576172"/>
     <use xlink:href="#DejaVuSans-6f" x="426.359375"/>
     <use xlink:href="#DejaVuSans-6e" x="487.541016"/>
     <use xlink:href="#DejaVuSans-20" x="550.919922"/>
     <use xlink:href="#DejaVuSans-64" x="582.707031"/>
     <use xlink:href="#DejaVuSans-75" x="646.183594"/>
     <use xlink:href="#DejaVuSans-20" x="709.5625"/>
     <use xlink:href="#DejaVuSans-74" x="741.349609"/>
     <use xlink:href="#DejaVuSans-65" x="780.558594"/>
     <use xlink:href="#DejaVuSans-6d" x="842.082031"/>
     <use xlink:href="#DejaVuSans-70" x="939.494141"/>
     <use xlink:href="#DejaVuSans-73" x="1002.970703"/>
     <use xlink:href="#DejaVuSans-20" x="1055.070312"/>
     <use xlink:href="#DejaVuSans-70" x="1086.857422"/>
     <use xlink:href="#DejaVuSans-61" x="1150.333984"/>
     <use xlink:href="#DejaVuSans-72" x="1211.613281"/>
     <use xlink:href="#DejaVuSans-20" x="1252.726562"/>
     <use xlink:href="#DejaVuSans-74" x="1284.513672"/>
     <use xlink:href="#DejaVuSans-72" x="1323.722656"/>
     <use xlink:href="#DejaVuSans-61" x="1364.835938"/>
     <use xlink:href="#DejaVuSans-6e" x="1426.115234"/>
     <use xlink:href="#DejaVuSans-63" x="1489.494141"/>
     <use xlink:href="#DejaVuSans-68" x="1544.474609"/>
     <use xlink:href="#DejaVuSans-65" x="1607.853516"/>
     <use xlink:href="#DejaVuSans-20" x="1669.376953"/>
     <use xlink:href="#DejaVuSans-64" x="1701.164062"/>
     <use xlink:href="#DejaVuSans-65" x="1764.640625"/>
     <use xlink:href="#DejaVuSans-20" x="1826.164062"/>
     <use xlink:href="#DejaVuSans-64" x="1857.951172"/>
     <use xlink:href="#DejaVuSans-e9" x="1921.427734"/>
     <use xlink:href="#DejaVuSans-62" x="1982.951172"/>
     <use xlink:href="#DejaVuSans-61" x="2046.427734"/>
     <use xlink:href="#DejaVuSans-74" x="2107.707031"/>
     <use xlink:href="#DejaVuSans-74" x="2146.916016"/>
     <use xlink:href="#DejaVuSans-65" x="2186.125"/>
     <use xlink:href="#DejaVuSans-6d" x="2247.648438"/>
     <use xlink:href="#DejaVuSans-65" x="2345.060547"/>
     <use xlink:href="#DejaVuSans-6e" x="2406.583984"/>
     <use xlink:href="#DejaVuSans-74" x="2469.962891"/>
    </g>
   </g>
   <g id="legend_1">
    <g id="patch_269">
     <path d="M 294.955938 78.82825 
L 407.72 78.82825 
Q 409.72 78.82825 409.72 76.82825 
L 409.72 48.472 
Q 409.72 46.472 407.72 46.472 
L 294.955938 46.472 
Q 292.955938 46.472 292.955938 48.472 
L 292.955938 76.82825 
Q 292.955938 78.82825 294.955938 78.82825 
z
" style="fill: #ffffff; opacity: 0.8; stroke: #cccccc; stroke-linejoin: miter"/>
    </g>
    <g id="patch_270">
     <path d="M 296.955938 58.070437 
L 316.955938 58.070437 
L 316.955938 51.070437 
L 296.955938 51.070437 
z
" style="fill: #1f77b4; opacity: 0.35"/>
    </g>
    <g id="text_16">
     <!-- Av 61mm (46%) -->
     <g transform="translate(324.955938 58.070437) scale(0.1 -0.1)">
      <defs>
       <path id="DejaVuSans-41" d="M 2188 4044 
L 1331 1722 
L 3047 1722 
L 2188 4044 
z
M 1831 4666 
L 2547 4666 
L 4325 0 
L 3669 0 
L 3244 1197 
L 1141 1197 
L 716 0 
L 50 0 
L 1831 4666 
z
" transform="scale(0.015625)"/>
       <path id="DejaVuSans-76" d="M 191 3500 
L 800 3500 
L 1894 563 
L 2988 3500 
L 3597 3500 
L 2284 0 
L 1503 0 
L 191 3500 
z
" transform="scale(0.015625)"/>
       <path id="DejaVuSans-28" d="M 1984 4856 
Q 1566 4138 1362 3434 
Q 1159 2731 1159 2009 
Q 1159 1288 1364 580 
Q 1569 -128 1984 -844 
L 1484 -844 
Q 1016 -109 783 600 
Q 550 1309 550 2009 
Q 550 2706 781 3412 
Q 1013 4119 1484 4856 
L 1984 4856 
z
" transform="scale(0.015625)"/>
       <path id="DejaVuSans-29" d="M 513 4856 
L 1013 4856 
Q 1481 4119 1714 3412 
Q 1947 2706 1947 2009 
Q 1947 1309 1714 600 
Q 1481 -109 1013 -844 
L 513 -844 
Q 928 -128 1133 580 
Q 1338 1288 1338 2009 
Q 1338 2731 1133 3434 
Q 928 4138 513 4856 
z
" transform="scale(0.015625)"/>
      </defs>
      <use xlink:href="#DejaVuSans-41"/>
      <use xlink:href="#DejaVuSans-76" x="62.533203"/>
      <use xlink:href="#DejaVuSans-20" x="121.712891"/>
      <use xlink:href="#DejaVuSans-36" x="153.5"/>
      <use xlink:href="#DejaVuSans-31" x="217.123047"/>
      <use xlink:href="#DejaVuSans-6d" x="280.746094"/>
      <use xlink:href="#DejaVuSans-6d" x="378.158203"/>
      <use xlink:href="#DejaVuSans-20" x="475.570312"/>
      <use xlink:href="#DejaVuSans-28" x="507.357422"/>
      <use xlink:href="#DejaVuSans-34" x="546.371094"/>
      <use xlink:href="#DejaVuSans-36" x="609.994141"/>
      <use xlink:href="#DejaVuSans-25" x="673.617188"/>
      <use xlink:href="#DejaVuSans-29" x="768.636719"/>
     </g>
    </g>
    <g id="patch_271">
     <path d="M 296.955938 72.748562 
L 316.955938 72.748562 
L 316.955938 65.748562 
L 296.955938 65.748562 
z
" style="fill: #ff7f0e; opacity: 0.35"/>
    </g>
    <g id="text_17">
     <!-- Ar 55mm (42%) -->
     <g transform="translate(324.955938 72.748562) scale(0.1 -0.1)">
      <use xlink:href="#DejaVuSans-41"/>
      <use xlink:href="#DejaVuSans-72" x="68.408203"/>
      <use xlink:href="#DejaVuSans-20" x="109.521484"/>
      <use xlink:href="#DejaVuSans-35" x="141.308594"/>
      <use xlink:href="#DejaVuSans-35" x="204.931641"/>
      <use xlink:href="#DejaVuSans-6d" x="268.554688"/>
      <use xlink:href="#DejaVuSans-6d" x="365.966797"/>
      <use xlink:href="#DejaVuSans-20" x="463.378906"/>
      <use xlink:href="#DejaVuSans-28" x="495.166016"/>
      <use xlink:href="#DejaVuSans-34" x="534.179688"/>
      <use xlink:href="#DejaVuSans-32" x="597.802734"/>
      <use xlink:href="#DejaVuSans-25" x="661.425781"/>
      <use xlink:href="#DejaVuSans-29" x="756.445312"/>
     </g>
    </g>
   </g>
  </g>
 </g>
 <defs>
  <clipPath id="pdd3f6a9e4b">
   <rect x="57.6" y="41.472" width="357.12" height="266.112"/>
  </clipPath>
 </defs>
</svg>
