<?xml version="1.0" encoding="utf-8" standalone="no"?>
<!DOCTYPE svg PUBLIC "-//W3C//DTD SVG 1.1//EN"
  "http://www.w3.org/Graphics/SVG/1.1/DTD/svg11.dtd">
<svg xmlns:xlink="http://www.w3.org/1999/xlink" width="460.8pt" height="345.6pt" viewBox="0 0 460.8 345.6" xmlns="http://www.w3.org/2000/svg" version="1.1">
 <metadata>
  <rdf:RDF xmlns:dc="http://purl.org/dc/elements/1.1/" xmlns:cc="http://creativecommons.org/ns#" xmlns:rdf="http://www.w3.org/1999/02/22-rdf-syntax-ns#">
   <cc:Work>
    <dc:type rdf:resource="http://purl.org/dc/dcmitype/StillImage"/>
    <dc:date>2023-12-28T18:39:44.610306</dc:date>
    <dc:format>image/svg+xml</dc:format>
    <dc:creator>
     <cc:Agent>
      <dc:title>Matplotlib v3.8.1, https://matplotlib.org/</dc:title>
     </cc:Agent>
    </dc:creator>
   </cc:Work>
  </rdf:RDF>
 </metadata>
 <defs>
  <style type="text/css">*{stroke-linejoin: round; stroke-linecap: butt}</style>
 </defs>
 <g id="figure_1">
  <g id="patch_1">
   <path d="M 0 345.6 
L 460.8 345.6 
L 460.8 0 
L 0 0 
z
" style="fill: #ffffff"/>
  </g>
  <g id="axes_1">
   <g id="patch_2">
    <path d="M 57.6 307.584 
L 414.72 307.584 
L 414.72 41.472 
L 57.6 41.472 
z
" style="fill: #ffffff"/>
   </g>
   <g id="patch_3">
    <path d="M 73.832727 307.584 
L 75.126172 307.584 
L 75.126172 307.584 
L 73.832727 307.584 
z
" clip-path="url(#pf1b9005715)" style="fill: #1f77b4"/>
   </g>
   <g id="patch_4">
    <path d="M 75.449533 307.584 
L 76.742977 307.584 
L 76.742977 307.584 
L 75.449533 307.584 
z
" clip-path="url(#pf1b9005715)" style="fill: #1f77b4"/>
   </g>
   <g id="patch_5">
    <path d="M 77.066338 307.584 
L 78.359783 307.584 
L 78.359783 307.584 
L 77.066338 307.584 
z
" clip-path="url(#pf1b9005715)" style="fill: #1f77b4"/>
   </g>
   <g id="patch_6">
    <path d="M 78.683144 307.584 
L 79.976588 307.584 
L 79.976588 307.584 
L 78.683144 307.584 
z
" clip-path="url(#pf1b9005715)" style="fill: #1f77b4"/>
   </g>
   <g id="patch_7">
    <path d="M 80.299949 307.584 
L 81.593394 307.584 
L 81.593394 307.584 
L 80.299949 307.584 
z
" clip-path="url(#pf1b9005715)" style="fill: #1f77b4"/>
   </g>
   <g id="patch_8">
    <path d="M 81.916755 307.584 
L 83.210199 307.584 
L 83.210199 307.584 
L 81.916755 307.584 
z
" clip-path="url(#pf1b9005715)" style="fill: #1f77b4"/>
   </g>
   <g id="patch_9">
    <path d="M 83.53356 307.584 
L 84.827005 307.584 
L 84.827005 307.584 
L 83.53356 307.584 
z
" clip-path="url(#pf1b9005715)" style="fill: #1f77b4"/>
   </g>
   <g id="patch_10">
    <path d="M 85.150366 307.584 
L 86.44381 307.584 
L 86.44381 307.584 
L 85.150366 307.584 
z
" clip-path="url(#pf1b9005715)" style="fill: #1f77b4"/>
   </g>
   <g id="patch_11">
    <path d="M 86.767171 307.584 
L 88.060616 307.584 
L 88.060616 307.584 
L 86.767171 307.584 
z
" clip-path="url(#pf1b9005715)" style="fill: #1f77b4"/>
   </g>
   <g id="patch_12">
    <path d="M 88.383977 307.584 
L 89.677421 307.584 
L 89.677421 307.584 
L 88.383977 307.584 
z
" clip-path="url(#pf1b9005715)" style="fill: #1f77b4"/>
   </g>
   <g id="patch_13">
    <path d="M 90.000782 307.584 
L 91.294227 307.584 
L 91.294227 307.584 
L 90.000782 307.584 
z
" clip-path="url(#pf1b9005715)" style="fill: #1f77b4"/>
   </g>
   <g id="patch_14">
    <path d="M 91.617588 307.584 
L 92.911032 307.584 
L 92.911032 307.584 
L 91.617588 307.584 
z
" clip-path="url(#pf1b9005715)" style="fill: #1f77b4"/>
   </g>
   <g id="patch_15">
    <path d="M 93.234393 307.584 
L 94.527838 307.584 
L 94.527838 307.584 
L 93.234393 307.584 
z
" clip-path="url(#pf1b9005715)" style="fill: #1f77b4"/>
   </g>
   <g id="patch_16">
    <path d="M 94.851199 307.584 
L 96.144643 307.584 
L 96.144643 307.584 
L 94.851199 307.584 
z
" clip-path="url(#pf1b9005715)" style="fill: #1f77b4"/>
   </g>
   <g id="patch_17">
    <path d="M 96.468004 307.584 
L 97.761449 307.584 
L 97.761449 307.584 
L 96.468004 307.584 
z
" clip-path="url(#pf1b9005715)" style="fill: #1f77b4"/>
   </g>
   <g id="patch_18">
    <path d="M 98.08481 307.584 
L 99.378254 307.584 
L 99.378254 307.584 
L 98.08481 307.584 
z
" clip-path="url(#pf1b9005715)" style="fill: #1f77b4"/>
   </g>
   <g id="patch_19">
    <path d="M 99.701615 307.584 
L 100.99506 307.584 
L 100.99506 307.584 
L 99.701615 307.584 
z
" clip-path="url(#pf1b9005715)" style="fill: #1f77b4"/>
   </g>
   <g id="patch_20">
    <path d="M 101.318421 307.584 
L 102.611865 307.584 
L 102.611865 307.584 
L 101.318421 307.584 
z
" clip-path="url(#pf1b9005715)" style="fill: #1f77b4"/>
   </g>
   <g id="patch_21">
    <path d="M 102.935226 307.584 
L 104.228671 307.584 
L 104.228671 307.584 
L 102.935226 307.584 
z
" clip-path="url(#pf1b9005715)" style="fill: #1f77b4"/>
   </g>
   <g id="patch_22">
    <path d="M 104.552032 307.584 
L 105.845476 307.584 
L 105.845476 307.584 
L 104.552032 307.584 
z
" clip-path="url(#pf1b9005715)" style="fill: #1f77b4"/>
   </g>
   <g id="patch_23">
    <path d="M 106.168837 307.584 
L 107.462282 307.584 
L 107.462282 307.584 
L 106.168837 307.584 
z
" clip-path="url(#pf1b9005715)" style="fill: #1f77b4"/>
   </g>
   <g id="patch_24">
    <path d="M 107.785643 307.584 
L 109.079087 307.584 
L 109.079087 307.584 
L 107.785643 307.584 
z
" clip-path="url(#pf1b9005715)" style="fill: #1f77b4"/>
   </g>
   <g id="patch_25">
    <path d="M 109.402448 307.584 
L 110.695893 307.584 
L 110.695893 307.584 
L 109.402448 307.584 
z
" clip-path="url(#pf1b9005715)" style="fill: #1f77b4"/>
   </g>
   <g id="patch_26">
    <path d="M 111.019254 307.584 
L 112.312698 307.584 
L 112.312698 307.584 
L 111.019254 307.584 
z
" clip-path="url(#pf1b9005715)" style="fill: #1f77b4"/>
   </g>
   <g id="patch_27">
    <path d="M 112.636059 307.584 
L 113.929504 307.584 
L 113.929504 307.584 
L 112.636059 307.584 
z
" clip-path="url(#pf1b9005715)" style="fill: #1f77b4"/>
   </g>
   <g id="patch_28">
    <path d="M 114.252865 307.584 
L 115.546309 307.584 
L 115.546309 307.584 
L 114.252865 307.584 
z
" clip-path="url(#pf1b9005715)" style="fill: #1f77b4"/>
   </g>
   <g id="patch_29">
    <path d="M 115.86967 307.584 
L 117.163115 307.584 
L 117.163115 307.584 
L 115.86967 307.584 
z
" clip-path="url(#pf1b9005715)" style="fill: #1f77b4"/>
   </g>
   <g id="patch_30">
    <path d="M 117.486476 307.584 
L 118.77992 307.584 
L 118.77992 307.584 
L 117.486476 307.584 
z
" clip-path="url(#pf1b9005715)" style="fill: #1f77b4"/>
   </g>
   <g id="patch_31">
    <path d="M 119.103281 307.584 
L 120.396726 307.584 
L 120.396726 307.584 
L 119.103281 307.584 
z
" clip-path="url(#pf1b9005715)" style="fill: #1f77b4"/>
   </g>
   <g id="patch_32">
    <path d="M 120.720087 307.584 
L 122.013531 307.584 
L 122.013531 307.584 
L 120.720087 307.584 
z
" clip-path="url(#pf1b9005715)" style="fill: #1f77b4"/>
   </g>
   <g id="patch_33">
    <path d="M 122.336892 307.584 
L 123.630337 307.584 
L 123.630337 307.584 
L 122.336892 307.584 
z
" clip-path="url(#pf1b9005715)" style="fill: #1f77b4"/>
   </g>
   <g id="patch_34">
    <path d="M 123.953698 307.584 
L 125.247142 307.584 
L 125.247142 307.584 
L 123.953698 307.584 
z
" clip-path="url(#pf1b9005715)" style="fill: #1f77b4"/>
   </g>
   <g id="patch_35">
    <path d="M 125.570503 307.584 
L 126.863948 307.584 
L 126.863948 307.584 
L 125.570503 307.584 
z
" clip-path="url(#pf1b9005715)" style="fill: #1f77b4"/>
   </g>
   <g id="patch_36">
    <path d="M 127.187309 307.584 
L 128.480753 307.584 
L 128.480753 307.584 
L 127.187309 307.584 
z
" clip-path="url(#pf1b9005715)" style="fill: #1f77b4"/>
   </g>
   <g id="patch_37">
    <path d="M 128.804114 307.584 
L 130.097559 307.584 
L 130.097559 307.584 
L 128.804114 307.584 
z
" clip-path="url(#pf1b9005715)" style="fill: #1f77b4"/>
   </g>
   <g id="patch_38">
    <path d="M 130.42092 307.584 
L 131.714364 307.584 
L 131.714364 307.584 
L 130.42092 307.584 
z
" clip-path="url(#pf1b9005715)" style="fill: #1f77b4"/>
   </g>
   <g id="patch_39">
    <path d="M 132.037725 307.584 
L 133.33117 307.584 
L 133.33117 307.584 
L 132.037725 307.584 
z
" clip-path="url(#pf1b9005715)" style="fill: #1f77b4"/>
   </g>
   <g id="patch_40">
    <path d="M 133.654531 307.584 
L 134.947975 307.584 
L 134.947975 307.584 
L 133.654531 307.584 
z
" clip-path="url(#pf1b9005715)" style="fill: #1f77b4"/>
   </g>
   <g id="patch_41">
    <path d="M 135.271336 307.584 
L 136.564781 307.584 
L 136.564781 307.584 
L 135.271336 307.584 
z
" clip-path="url(#pf1b9005715)" style="fill: #1f77b4"/>
   </g>
   <g id="patch_42">
    <path d="M 136.888142 307.584 
L 138.181586 307.584 
L 138.181586 307.584 
L 136.888142 307.584 
z
" clip-path="url(#pf1b9005715)" style="fill: #1f77b4"/>
   </g>
   <g id="patch_43">
    <path d="M 138.504947 307.584 
L 139.798392 307.584 
L 139.798392 307.584 
L 138.504947 307.584 
z
" clip-path="url(#pf1b9005715)" style="fill: #1f77b4"/>
   </g>
   <g id="patch_44">
    <path d="M 140.121753 307.584 
L 141.415197 307.584 
L 141.415197 307.584 
L 140.121753 307.584 
z
" clip-path="url(#pf1b9005715)" style="fill: #1f77b4"/>
   </g>
   <g id="patch_45">
    <path d="M 141.738558 307.584 
L 143.032003 307.584 
L 143.032003 307.584 
L 141.738558 307.584 
z
" clip-path="url(#pf1b9005715)" style="fill: #1f77b4"/>
   </g>
   <g id="patch_46">
    <path d="M 143.355364 307.584 
L 144.648808 307.584 
L 144.648808 307.584 
L 143.355364 307.584 
z
" clip-path="url(#pf1b9005715)" style="fill: #1f77b4"/>
   </g>
   <g id="patch_47">
    <path d="M 144.97217 307.584 
L 146.265614 307.584 
L 146.265614 307.584 
L 144.97217 307.584 
z
" clip-path="url(#pf1b9005715)" style="fill: #1f77b4"/>
   </g>
   <g id="patch_48">
    <path d="M 146.588975 307.584 
L 147.882419 307.584 
L 147.882419 307.584 
L 146.588975 307.584 
z
" clip-path="url(#pf1b9005715)" style="fill: #1f77b4"/>
   </g>
   <g id="patch_49">
    <path d="M 148.205781 307.584 
L 149.499225 307.584 
L 149.499225 307.584 
L 148.205781 307.584 
z
" clip-path="url(#pf1b9005715)" style="fill: #1f77b4"/>
   </g>
   <g id="patch_50">
    <path d="M 149.822586 307.584 
L 151.11603 307.584 
L 151.11603 307.584 
L 149.822586 307.584 
z
" clip-path="url(#pf1b9005715)" style="fill: #1f77b4"/>
   </g>
   <g id="patch_51">
    <path d="M 151.439392 307.584 
L 152.732836 307.584 
L 152.732836 307.584 
L 151.439392 307.584 
z
" clip-path="url(#pf1b9005715)" style="fill: #1f77b4"/>
   </g>
   <g id="patch_52">
    <path d="M 153.056197 307.584 
L 154.349641 307.584 
L 154.349641 307.584 
L 153.056197 307.584 
z
" clip-path="url(#pf1b9005715)" style="fill: #1f77b4"/>
   </g>
   <g id="patch_53">
    <path d="M 154.673003 307.584 
L 155.966447 307.584 
L 155.966447 307.584 
L 154.673003 307.584 
z
" clip-path="url(#pf1b9005715)" style="fill: #1f77b4"/>
   </g>
   <g id="patch_54">
    <path d="M 156.289808 307.584 
L 157.583252 307.584 
L 157.583252 307.584 
L 156.289808 307.584 
z
" clip-path="url(#pf1b9005715)" style="fill: #1f77b4"/>
   </g>
   <g id="patch_55">
    <path d="M 157.906614 307.584 
L 159.200058 307.584 
L 159.200058 307.584 
L 157.906614 307.584 
z
" clip-path="url(#pf1b9005715)" style="fill: #1f77b4"/>
   </g>
   <g id="patch_56">
    <path d="M 159.523419 307.584 
L 160.816863 307.584 
L 160.816863 307.250087 
L 159.523419 307.250087 
z
" clip-path="url(#pf1b9005715)" style="fill: #1f77b4"/>
   </g>
   <g id="patch_57">
    <path d="M 161.140225 307.584 
L 162.433669 307.584 
L 162.433669 307.250087 
L 161.140225 307.250087 
z
" clip-path="url(#pf1b9005715)" style="fill: #1f77b4"/>
   </g>
   <g id="patch_58">
    <path d="M 162.75703 307.584 
L 164.050474 307.584 
L 164.050474 306.582261 
L 162.75703 306.582261 
z
" clip-path="url(#pf1b9005715)" style="fill: #1f77b4"/>
   </g>
   <g id="patch_59">
    <path d="M 164.373836 307.584 
L 165.66728 307.584 
L 165.66728 307.250087 
L 164.373836 307.250087 
z
" clip-path="url(#pf1b9005715)" style="fill: #1f77b4"/>
   </g>
   <g id="patch_60">
    <path d="M 165.990641 307.584 
L 167.284085 307.584 
L 167.284085 306.916174 
L 165.990641 306.916174 
z
" clip-path="url(#pf1b9005715)" style="fill: #1f77b4"/>
   </g>
   <g id="patch_61">
    <path d="M 167.607447 307.584 
L 168.900891 307.584 
L 168.900891 307.250087 
L 167.607447 307.250087 
z
" clip-path="url(#pf1b9005715)" style="fill: #1f77b4"/>
   </g>
   <g id="patch_62">
    <path d="M 169.224252 307.584 
L 170.517696 307.584 
L 170.517696 307.584 
L 169.224252 307.584 
z
" clip-path="url(#pf1b9005715)" style="fill: #1f77b4"/>
   </g>
   <g id="patch_63">
    <path d="M 170.841058 307.584 
L 172.134502 307.584 
L 172.134502 306.582261 
L 170.841058 306.582261 
z
" clip-path="url(#pf1b9005715)" style="fill: #1f77b4"/>
   </g>
   <g id="patch_64">
    <path d="M 172.457863 307.584 
L 173.751307 307.584 
L 173.751307 305.580522 
L 172.457863 305.580522 
z
" clip-path="url(#pf1b9005715)" style="fill: #1f77b4"/>
   </g>
   <g id="patch_65">
    <path d="M 174.074669 307.584 
L 175.368113 307.584 
L 175.368113 306.582261 
L 174.074669 306.582261 
z
" clip-path="url(#pf1b9005715)" style="fill: #1f77b4"/>
   </g>
   <g id="patch_66">
    <path d="M 175.691474 307.584 
L 176.984919 307.584 
L 176.984919 307.250087 
L 175.691474 307.250087 
z
" clip-path="url(#pf1b9005715)" style="fill: #1f77b4"/>
   </g>
   <g id="patch_67">
    <path d="M 177.30828 307.584 
L 178.601724 307.584 
L 178.601724 306.248348 
L 177.30828 306.248348 
z
" clip-path="url(#pf1b9005715)" style="fill: #1f77b4"/>
   </g>
   <g id="patch_68">
    <path d="M 178.925085 307.584 
L 180.21853 307.584 
L 180.21853 305.914435 
L 178.925085 305.914435 
z
" clip-path="url(#pf1b9005715)" style="fill: #1f77b4"/>
   </g>
   <g id="patch_69">
    <path d="M 180.541891 307.584 
L 181.835335 307.584 
L 181.835335 305.580522 
L 180.541891 305.580522 
z
" clip-path="url(#pf1b9005715)" style="fill: #1f77b4"/>
   </g>
   <g id="patch_70">
    <path d="M 182.158696 307.584 
L 183.452141 307.584 
L 183.452141 305.246609 
L 182.158696 305.246609 
z
" clip-path="url(#pf1b9005715)" style="fill: #1f77b4"/>
   </g>
   <g id="patch_71">
    <path d="M 183.775502 307.584 
L 185.068946 307.584 
L 185.068946 304.24487 
L 183.775502 304.24487 
z
" clip-path="url(#pf1b9005715)" style="fill: #1f77b4"/>
   </g>
   <g id="patch_72">
    <path d="M 185.392307 307.584 
L 186.685752 307.584 
L 186.685752 303.577043 
L 185.392307 303.577043 
z
" clip-path="url(#pf1b9005715)" style="fill: #1f77b4"/>
   </g>
   <g id="patch_73">
    <path d="M 187.009113 307.584 
L 188.302557 307.584 
L 188.302557 301.573565 
L 187.009113 301.573565 
z
" clip-path="url(#pf1b9005715)" style="fill: #1f77b4"/>
   </g>
   <g id="patch_74">
    <path d="M 188.625918 307.584 
L 189.919363 307.584 
L 189.919363 299.236174 
L 188.625918 299.236174 
z
" clip-path="url(#pf1b9005715)" style="fill: #1f77b4"/>
   </g>
   <g id="patch_75">
    <path d="M 190.242724 307.584 
L 191.536168 307.584 
L 191.536168 300.571826 
L 190.242724 300.571826 
z
" clip-path="url(#pf1b9005715)" style="fill: #1f77b4"/>
   </g>
   <g id="patch_76">
    <path d="M 191.859529 307.584 
L 193.152974 307.584 
L 193.152974 296.898783 
L 191.859529 296.898783 
z
" clip-path="url(#pf1b9005715)" style="fill: #1f77b4"/>
   </g>
   <g id="patch_77">
    <path d="M 193.476335 307.584 
L 194.769779 307.584 
L 194.769779 297.566609 
L 193.476335 297.566609 
z
" clip-path="url(#pf1b9005715)" style="fill: #1f77b4"/>
   </g>
   <g id="patch_78">
    <path d="M 195.09314 307.584 
L 196.386585 307.584 
L 196.386585 295.229217 
L 195.09314 295.229217 
z
" clip-path="url(#pf1b9005715)" style="fill: #1f77b4"/>
   </g>
   <g id="patch_79">
    <path d="M 196.709946 307.584 
L 198.00339 307.584 
L 198.00339 295.229217 
L 196.709946 295.229217 
z
" clip-path="url(#pf1b9005715)" style="fill: #1f77b4"/>
   </g>
   <g id="patch_80">
    <path d="M 198.326751 307.584 
L 199.620196 307.584 
L 199.620196 296.230957 
L 198.326751 296.230957 
z
" clip-path="url(#pf1b9005715)" style="fill: #1f77b4"/>
   </g>
   <g id="patch_81">
    <path d="M 199.943557 307.584 
L 201.237001 307.584 
L 201.237001 288.88487 
L 199.943557 288.88487 
z
" clip-path="url(#pf1b9005715)" style="fill: #1f77b4"/>
   </g>
   <g id="patch_82">
    <path d="M 201.560362 307.584 
L 202.853807 307.584 
L 202.853807 284.210087 
L 201.560362 284.210087 
z
" clip-path="url(#pf1b9005715)" style="fill: #1f77b4"/>
   </g>
   <g id="patch_83">
    <path d="M 203.177168 307.584 
L 204.470612 307.584 
L 204.470612 280.870957 
L 203.177168 280.870957 
z
" clip-path="url(#pf1b9005715)" style="fill: #1f77b4"/>
   </g>
   <g id="patch_84">
    <path d="M 204.793973 307.584 
L 206.087418 307.584 
L 206.087418 273.858783 
L 204.793973 273.858783 
z
" clip-path="url(#pf1b9005715)" style="fill: #1f77b4"/>
   </g>
   <g id="patch_85">
    <path d="M 206.410779 307.584 
L 207.704223 307.584 
L 207.704223 265.510957 
L 206.410779 265.510957 
z
" clip-path="url(#pf1b9005715)" style="fill: #1f77b4"/>
   </g>
   <g id="patch_86">
    <path d="M 208.027584 307.584 
L 209.321029 307.584 
L 209.321029 268.850087 
L 208.027584 268.850087 
z
" clip-path="url(#pf1b9005715)" style="fill: #1f77b4"/>
   </g>
   <g id="patch_87">
    <path d="M 209.64439 307.584 
L 210.937834 307.584 
L 210.937834 265.84487 
L 209.64439 265.84487 
z
" clip-path="url(#pf1b9005715)" style="fill: #1f77b4"/>
   </g>
   <g id="patch_88">
    <path d="M 211.261195 307.584 
L 212.55464 307.584 
L 212.55464 254.491826 
L 211.261195 254.491826 
z
" clip-path="url(#pf1b9005715)" style="fill: #1f77b4"/>
   </g>
   <g id="patch_89">
    <path d="M 212.878001 307.584 
L 214.171445 307.584 
L 214.171445 256.161391 
L 212.878001 256.161391 
z
" clip-path="url(#pf1b9005715)" style="fill: #1f77b4"/>
   </g>
   <g id="patch_90">
    <path d="M 214.494806 307.584 
L 215.788251 307.584 
L 215.788251 255.493565 
L 214.494806 255.493565 
z
" clip-path="url(#pf1b9005715)" style="fill: #1f77b4"/>
   </g>
   <g id="patch_91">
    <path d="M 216.111612 307.584 
L 217.405056 307.584 
L 217.405056 237.796174 
L 216.111612 237.796174 
z
" clip-path="url(#pf1b9005715)" style="fill: #1f77b4"/>
   </g>
   <g id="patch_92">
    <path d="M 217.728417 307.584 
L 219.021862 307.584 
L 219.021862 242.80487 
L 217.728417 242.80487 
z
" clip-path="url(#pf1b9005715)" style="fill: #1f77b4"/>
   </g>
   <g id="patch_93">
    <path d="M 219.345223 307.584 
L 220.638667 307.584 
L 220.638667 229.448348 
L 219.345223 229.448348 
z
" clip-path="url(#pf1b9005715)" style="fill: #1f77b4"/>
   </g>
   <g id="patch_94">
    <path d="M 220.962028 307.584 
L 222.255473 307.584 
L 222.255473 234.790957 
L 220.962028 234.790957 
z
" clip-path="url(#pf1b9005715)" style="fill: #1f77b4"/>
   </g>
   <g id="patch_95">
    <path d="M 222.578834 307.584 
L 223.872278 307.584 
L 223.872278 231.785739 
L 222.578834 231.785739 
z
" clip-path="url(#pf1b9005715)" style="fill: #1f77b4"/>
   </g>
   <g id="patch_96">
    <path d="M 224.195639 307.584 
L 225.489084 307.584 
L 225.489084 226.44313 
L 224.195639 226.44313 
z
" clip-path="url(#pf1b9005715)" style="fill: #1f77b4"/>
   </g>
   <g id="patch_97">
    <path d="M 225.812445 307.584 
L 227.105889 307.584 
L 227.105889 215.090087 
L 225.812445 215.090087 
z
" clip-path="url(#pf1b9005715)" style="fill: #1f77b4"/>
   </g>
   <g id="patch_98">
    <path d="M 227.42925 307.584 
L 228.722695 307.584 
L 228.722695 214.422261 
L 227.42925 214.422261 
z
" clip-path="url(#pf1b9005715)" style="fill: #1f77b4"/>
   </g>
   <g id="patch_99">
    <path d="M 229.046056 307.584 
L 230.3395 307.584 
L 230.3395 209.413565 
L 229.046056 209.413565 
z
" clip-path="url(#pf1b9005715)" style="fill: #1f77b4"/>
   </g>
   <g id="patch_100">
    <path d="M 230.662861 307.584 
L 231.956306 307.584 
L 231.956306 200.397913 
L 230.662861 200.397913 
z
" clip-path="url(#pf1b9005715)" style="fill: #1f77b4"/>
   </g>
   <g id="patch_101">
    <path d="M 232.279667 307.584 
L 233.573111 307.584 
L 233.573111 190.046609 
L 232.279667 190.046609 
z
" clip-path="url(#pf1b9005715)" style="fill: #1f77b4"/>
   </g>
   <g id="patch_102">
    <path d="M 233.896472 307.584 
L 235.189917 307.584 
L 235.189917 176.356174 
L 233.896472 176.356174 
z
" clip-path="url(#pf1b9005715)" style="fill: #1f77b4"/>
   </g>
   <g id="patch_103">
    <path d="M 235.513278 307.584 
L 236.806722 307.584 
L 236.806722 54.144 
L 235.513278 54.144 
z
" clip-path="url(#pf1b9005715)" style="fill: #1f77b4"/>
   </g>
   <g id="patch_104">
    <path d="M 237.130083 307.584 
L 238.423528 307.584 
L 238.423528 173.350957 
L 237.130083 173.350957 
z
" clip-path="url(#pf1b9005715)" style="fill: #1f77b4"/>
   </g>
   <g id="patch_105">
    <path d="M 238.746889 307.584 
L 240.040333 307.584 
L 240.040333 177.024 
L 238.746889 177.024 
z
" clip-path="url(#pf1b9005715)" style="fill: #1f77b4"/>
   </g>
   <g id="patch_106">
    <path d="M 240.363694 307.584 
L 241.657139 307.584 
L 241.657139 179.027478 
L 240.363694 179.027478 
z
" clip-path="url(#pf1b9005715)" style="fill: #1f77b4"/>
   </g>
   <g id="patch_107">
    <path d="M 241.9805 307.584 
L 243.273944 307.584 
L 243.273944 181.030957 
L 241.9805 181.030957 
z
" clip-path="url(#pf1b9005715)" style="fill: #1f77b4"/>
   </g>
   <g id="patch_108">
    <path d="M 243.597305 307.584 
L 244.89075 307.584 
L 244.89075 180.697043 
L 243.597305 180.697043 
z
" clip-path="url(#pf1b9005715)" style="fill: #1f77b4"/>
   </g>
   <g id="patch_109">
    <path d="M 245.214111 307.584 
L 246.507555 307.584 
L 246.507555 185.037913 
L 245.214111 185.037913 
z
" clip-path="url(#pf1b9005715)" style="fill: #1f77b4"/>
   </g>
   <g id="patch_110">
    <path d="M 246.830916 307.584 
L 248.124361 307.584 
L 248.124361 180.36313 
L 246.830916 180.36313 
z
" clip-path="url(#pf1b9005715)" style="fill: #1f77b4"/>
   </g>
   <g id="patch_111">
    <path d="M 248.447722 307.584 
L 249.741166 307.584 
L 249.741166 205.406609 
L 248.447722 205.406609 
z
" clip-path="url(#pf1b9005715)" style="fill: #1f77b4"/>
   </g>
   <g id="patch_112">
    <path d="M 250.064527 307.584 
L 251.357972 307.584 
L 251.357972 208.077913 
L 250.064527 208.077913 
z
" clip-path="url(#pf1b9005715)" style="fill: #1f77b4"/>
   </g>
   <g id="patch_113">
    <path d="M 251.681333 307.584 
L 252.974777 307.584 
L 252.974777 208.411826 
L 251.681333 208.411826 
z
" clip-path="url(#pf1b9005715)" style="fill: #1f77b4"/>
   </g>
   <g id="patch_114">
    <path d="M 253.298138 307.584 
L 254.591583 307.584 
L 254.591583 220.432696 
L 253.298138 220.432696 
z
" clip-path="url(#pf1b9005715)" style="fill: #1f77b4"/>
   </g>
   <g id="patch_115">
    <path d="M 254.914944 307.584 
L 256.208388 307.584 
L 256.208388 219.430957 
L 254.914944 219.430957 
z
" clip-path="url(#pf1b9005715)" style="fill: #1f77b4"/>
   </g>
   <g id="patch_116">
    <path d="M 256.531749 307.584 
L 257.825194 307.584 
L 257.825194 220.432696 
L 256.531749 220.432696 
z
" clip-path="url(#pf1b9005715)" style="fill: #1f77b4"/>
   </g>
   <g id="patch_117">
    <path d="M 258.148555 307.584 
L 259.441999 307.584 
L 259.441999 230.450087 
L 258.148555 230.450087 
z
" clip-path="url(#pf1b9005715)" style="fill: #1f77b4"/>
   </g>
   <g id="patch_118">
    <path d="M 259.76536 307.584 
L 261.058805 307.584 
L 261.058805 230.450087 
L 259.76536 230.450087 
z
" clip-path="url(#pf1b9005715)" style="fill: #1f77b4"/>
   </g>
   <g id="patch_119">
    <path d="M 261.382166 307.584 
L 262.67561 307.584 
L 262.67561 233.455304 
L 261.382166 233.455304 
z
" clip-path="url(#pf1b9005715)" style="fill: #1f77b4"/>
   </g>
   <g id="patch_120">
    <path d="M 262.998971 307.584 
L 264.292416 307.584 
L 264.292416 247.813565 
L 262.998971 247.813565 
z
" clip-path="url(#pf1b9005715)" style="fill: #1f77b4"/>
   </g>
   <g id="patch_121">
    <path d="M 264.615777 307.584 
L 265.909221 307.584 
L 265.909221 252.822261 
L 264.615777 252.822261 
z
" clip-path="url(#pf1b9005715)" style="fill: #1f77b4"/>
   </g>
   <g id="patch_122">
    <path d="M 266.232582 307.584 
L 267.526027 307.584 
L 267.526027 252.488348 
L 266.232582 252.488348 
z
" clip-path="url(#pf1b9005715)" style="fill: #1f77b4"/>
   </g>
   <g id="patch_123">
    <path d="M 267.849388 307.584 
L 269.142832 307.584 
L 269.142832 253.490087 
L 267.849388 253.490087 
z
" clip-path="url(#pf1b9005715)" style="fill: #1f77b4"/>
   </g>
   <g id="patch_124">
    <path d="M 269.466193 307.584 
L 270.759638 307.584 
L 270.759638 254.491826 
L 269.466193 254.491826 
z
" clip-path="url(#pf1b9005715)" style="fill: #1f77b4"/>
   </g>
   <g id="patch_125">
    <path d="M 271.082999 307.584 
L 272.376443 307.584 
L 272.376443 251.820522 
L 271.082999 251.820522 
z
" clip-path="url(#pf1b9005715)" style="fill: #1f77b4"/>
   </g>
   <g id="patch_126">
    <path d="M 272.699804 307.584 
L 273.993249 307.584 
L 273.993249 269.517913 
L 272.699804 269.517913 
z
" clip-path="url(#pf1b9005715)" style="fill: #1f77b4"/>
   </g>
   <g id="patch_127">
    <path d="M 274.31661 307.584 
L 275.610054 307.584 
L 275.610054 263.507478 
L 274.31661 263.507478 
z
" clip-path="url(#pf1b9005715)" style="fill: #1f77b4"/>
   </g>
   <g id="patch_128">
    <path d="M 275.933415 307.584 
L 277.22686 307.584 
L 277.22686 265.177043 
L 275.933415 265.177043 
z
" clip-path="url(#pf1b9005715)" style="fill: #1f77b4"/>
   </g>
   <g id="patch_129">
    <path d="M 277.550221 307.584 
L 278.843665 307.584 
L 278.843665 263.173565 
L 277.550221 263.173565 
z
" clip-path="url(#pf1b9005715)" style="fill: #1f77b4"/>
   </g>
   <g id="patch_130">
    <path d="M 279.167026 307.584 
L 280.460471 307.584 
L 280.460471 270.853565 
L 279.167026 270.853565 
z
" clip-path="url(#pf1b9005715)" style="fill: #1f77b4"/>
   </g>
   <g id="patch_131">
    <path d="M 280.783832 307.584 
L 282.077276 307.584 
L 282.077276 268.182261 
L 280.783832 268.182261 
z
" clip-path="url(#pf1b9005715)" style="fill: #1f77b4"/>
   </g>
   <g id="patch_132">
    <path d="M 282.400637 307.584 
L 283.694082 307.584 
L 283.694082 269.184 
L 282.400637 269.184 
z
" clip-path="url(#pf1b9005715)" style="fill: #1f77b4"/>
   </g>
   <g id="patch_133">
    <path d="M 284.017443 307.584 
L 285.310887 307.584 
L 285.310887 273.858783 
L 284.017443 273.858783 
z
" clip-path="url(#pf1b9005715)" style="fill: #1f77b4"/>
   </g>
   <g id="patch_134">
    <path d="M 285.634248 307.584 
L 286.927693 307.584 
L 286.927693 270.185739 
L 285.634248 270.185739 
z
" clip-path="url(#pf1b9005715)" style="fill: #1f77b4"/>
   </g>
   <g id="patch_135">
    <path d="M 287.251054 307.584 
L 288.544498 307.584 
L 288.544498 279.535304 
L 287.251054 279.535304 
z
" clip-path="url(#pf1b9005715)" style="fill: #1f77b4"/>
   </g>
   <g id="patch_136">
    <path d="M 288.867859 307.584 
L 290.161304 307.584 
L 290.161304 276.530087 
L 288.867859 276.530087 
z
" clip-path="url(#pf1b9005715)" style="fill: #1f77b4"/>
   </g>
   <g id="patch_137">
    <path d="M 290.484665 307.584 
L 291.778109 307.584 
L 291.778109 279.535304 
L 290.484665 279.535304 
z
" clip-path="url(#pf1b9005715)" style="fill: #1f77b4"/>
   </g>
   <g id="patch_138">
    <path d="M 292.10147 307.584 
L 293.394915 307.584 
L 293.394915 279.535304 
L 292.10147 279.535304 
z
" clip-path="url(#pf1b9005715)" style="fill: #1f77b4"/>
   </g>
   <g id="patch_139">
    <path d="M 293.718276 307.584 
L 295.01172 307.584 
L 295.01172 281.20487 
L 293.718276 281.20487 
z
" clip-path="url(#pf1b9005715)" style="fill: #1f77b4"/>
   </g>
   <g id="patch_140">
    <path d="M 295.335081 307.584 
L 296.628526 307.584 
L 296.628526 283.208348 
L 295.335081 283.208348 
z
" clip-path="url(#pf1b9005715)" style="fill: #1f77b4"/>
   </g>
   <g id="patch_141">
    <path d="M 296.951887 307.584 
L 298.245331 307.584 
L 298.245331 288.88487 
L 296.951887 288.88487 
z
" clip-path="url(#pf1b9005715)" style="fill: #1f77b4"/>
   </g>
   <g id="patch_142">
    <path d="M 298.568693 307.584 
L 299.862137 307.584 
L 299.862137 290.554435 
L 298.568693 290.554435 
z
" clip-path="url(#pf1b9005715)" style="fill: #1f77b4"/>
   </g>
   <g id="patch_143">
    <path d="M 300.185498 307.584 
L 301.478942 307.584 
L 301.478942 290.888348 
L 300.185498 290.888348 
z
" clip-path="url(#pf1b9005715)" style="fill: #1f77b4"/>
   </g>
   <g id="patch_144">
    <path d="M 301.802304 307.584 
L 303.095748 307.584 
L 303.095748 293.893565 
L 301.802304 293.893565 
z
" clip-path="url(#pf1b9005715)" style="fill: #1f77b4"/>
   </g>
   <g id="patch_145">
    <path d="M 303.419109 307.584 
L 304.712553 307.584 
L 304.712553 288.88487 
L 303.419109 288.88487 
z
" clip-path="url(#pf1b9005715)" style="fill: #1f77b4"/>
   </g>
   <g id="patch_146">
    <path d="M 305.035915 307.584 
L 306.329359 307.584 
L 306.329359 293.893565 
L 305.035915 293.893565 
z
" clip-path="url(#pf1b9005715)" style="fill: #1f77b4"/>
   </g>
   <g id="patch_147">
    <path d="M 306.65272 307.584 
L 307.946164 307.584 
L 307.946164 292.224 
L 306.65272 292.224 
z
" clip-path="url(#pf1b9005715)" style="fill: #1f77b4"/>
   </g>
   <g id="patch_148">
    <path d="M 308.269526 307.584 
L 309.56297 307.584 
L 309.56297 293.559652 
L 308.269526 293.559652 
z
" clip-path="url(#pf1b9005715)" style="fill: #1f77b4"/>
   </g>
   <g id="patch_149">
    <path d="M 309.886331 307.584 
L 311.179775 307.584 
L 311.179775 292.224 
L 309.886331 292.224 
z
" clip-path="url(#pf1b9005715)" style="fill: #1f77b4"/>
   </g>
   <g id="patch_150">
    <path d="M 311.503137 307.584 
L 312.796581 307.584 
L 312.796581 293.559652 
L 311.503137 293.559652 
z
" clip-path="url(#pf1b9005715)" style="fill: #1f77b4"/>
   </g>
   <g id="patch_151">
    <path d="M 313.119942 307.584 
L 314.413386 307.584 
L 314.413386 295.56313 
L 313.119942 295.56313 
z
" clip-path="url(#pf1b9005715)" style="fill: #1f77b4"/>
   </g>
   <g id="patch_152">
    <path d="M 314.736748 307.584 
L 316.030192 307.584 
L 316.030192 293.225739 
L 314.736748 293.225739 
z
" clip-path="url(#pf1b9005715)" style="fill: #1f77b4"/>
   </g>
   <g id="patch_153">
    <path d="M 316.353553 307.584 
L 317.646997 307.584 
L 317.646997 293.893565 
L 316.353553 293.893565 
z
" clip-path="url(#pf1b9005715)" style="fill: #1f77b4"/>
   </g>
   <g id="patch_154">
    <path d="M 317.970359 307.584 
L 319.263803 307.584 
L 319.263803 293.225739 
L 317.970359 293.225739 
z
" clip-path="url(#pf1b9005715)" style="fill: #1f77b4"/>
   </g>
   <g id="patch_155">
    <path d="M 319.587164 307.584 
L 320.880608 307.584 
L 320.880608 289.552696 
L 319.587164 289.552696 
z
" clip-path="url(#pf1b9005715)" style="fill: #1f77b4"/>
   </g>
   <g id="patch_156">
    <path d="M 321.20397 307.584 
L 322.497414 307.584 
L 322.497414 291.556174 
L 321.20397 291.556174 
z
" clip-path="url(#pf1b9005715)" style="fill: #1f77b4"/>
   </g>
   <g id="patch_157">
    <path d="M 322.820775 307.584 
L 324.114219 307.584 
L 324.114219 296.898783 
L 322.820775 296.898783 
z
" clip-path="url(#pf1b9005715)" style="fill: #1f77b4"/>
   </g>
   <g id="patch_158">
    <path d="M 324.437581 307.584 
L 325.731025 307.584 
L 325.731025 295.229217 
L 324.437581 295.229217 
z
" clip-path="url(#pf1b9005715)" style="fill: #1f77b4"/>
   </g>
   <g id="patch_159">
    <path d="M 326.054386 307.584 
L 327.34783 307.584 
L 327.34783 297.566609 
L 326.054386 297.566609 
z
" clip-path="url(#pf1b9005715)" style="fill: #1f77b4"/>
   </g>
   <g id="patch_160">
    <path d="M 327.671192 307.584 
L 328.964636 307.584 
L 328.964636 297.900522 
L 327.671192 297.900522 
z
" clip-path="url(#pf1b9005715)" style="fill: #1f77b4"/>
   </g>
   <g id="patch_161">
    <path d="M 329.287997 307.584 
L 330.581442 307.584 
L 330.581442 296.898783 
L 329.287997 296.898783 
z
" clip-path="url(#pf1b9005715)" style="fill: #1f77b4"/>
   </g>
   <g id="patch_162">
    <path d="M 330.904803 307.584 
L 332.198247 307.584 
L 332.198247 298.568348 
L 330.904803 298.568348 
z
" clip-path="url(#pf1b9005715)" style="fill: #1f77b4"/>
   </g>
   <g id="patch_163">
    <path d="M 332.521608 307.584 
L 333.815053 307.584 
L 333.815053 298.568348 
L 332.521608 298.568348 
z
" clip-path="url(#pf1b9005715)" style="fill: #1f77b4"/>
   </g>
   <g id="patch_164">
    <path d="M 334.138414 307.584 
L 335.431858 307.584 
L 335.431858 297.232696 
L 334.138414 297.232696 
z
" clip-path="url(#pf1b9005715)" style="fill: #1f77b4"/>
   </g>
   <g id="patch_165">
    <path d="M 335.755219 307.584 
L 337.048664 307.584 
L 337.048664 298.234435 
L 335.755219 298.234435 
z
" clip-path="url(#pf1b9005715)" style="fill: #1f77b4"/>
   </g>
   <g id="patch_166">
    <path d="M 337.372025 307.584 
L 338.665469 307.584 
L 338.665469 297.900522 
L 337.372025 297.900522 
z
" clip-path="url(#pf1b9005715)" style="fill: #1f77b4"/>
   </g>
   <g id="patch_167">
    <path d="M 338.98883 307.584 
L 340.282275 307.584 
L 340.282275 304.912696 
L 338.98883 304.912696 
z
" clip-path="url(#pf1b9005715)" style="fill: #1f77b4"/>
   </g>
   <g id="patch_168">
    <path d="M 340.605636 307.584 
L 341.89908 307.584 
L 341.89908 301.239652 
L 340.605636 301.239652 
z
" clip-path="url(#pf1b9005715)" style="fill: #1f77b4"/>
   </g>
   <g id="patch_169">
    <path d="M 342.222441 307.584 
L 343.515886 307.584 
L 343.515886 303.577043 
L 342.222441 303.577043 
z
" clip-path="url(#pf1b9005715)" style="fill: #1f77b4"/>
   </g>
   <g id="patch_170">
    <path d="M 343.839247 307.584 
L 345.132691 307.584 
L 345.132691 303.577043 
L 343.839247 303.577043 
z
" clip-path="url(#pf1b9005715)" style="fill: #1f77b4"/>
   </g>
   <g id="patch_171">
    <path d="M 345.456052 307.584 
L 346.749497 307.584 
L 346.749497 303.910957 
L 345.456052 303.910957 
z
" clip-path="url(#pf1b9005715)" style="fill: #1f77b4"/>
   </g>
   <g id="patch_172">
    <path d="M 347.072858 307.584 
L 348.366302 307.584 
L 348.366302 304.912696 
L 347.072858 304.912696 
z
" clip-path="url(#pf1b9005715)" style="fill: #1f77b4"/>
   </g>
   <g id="patch_173">
    <path d="M 348.689663 307.584 
L 349.983108 307.584 
L 349.983108 303.910957 
L 348.689663 303.910957 
z
" clip-path="url(#pf1b9005715)" style="fill: #1f77b4"/>
   </g>
   <g id="patch_174">
    <path d="M 350.306469 307.584 
L 351.599913 307.584 
L 351.599913 306.582261 
L 350.306469 306.582261 
z
" clip-path="url(#pf1b9005715)" style="fill: #1f77b4"/>
   </g>
   <g id="patch_175">
    <path d="M 351.923274 307.584 
L 353.216719 307.584 
L 353.216719 304.24487 
L 351.923274 304.24487 
z
" clip-path="url(#pf1b9005715)" style="fill: #1f77b4"/>
   </g>
   <g id="patch_176">
    <path d="M 353.54008 307.584 
L 354.833524 307.584 
L 354.833524 306.582261 
L 353.54008 306.582261 
z
" clip-path="url(#pf1b9005715)" style="fill: #1f77b4"/>
   </g>
   <g id="patch_177">
    <path d="M 355.156885 307.584 
L 356.45033 307.584 
L 356.45033 305.580522 
L 355.156885 305.580522 
z
" clip-path="url(#pf1b9005715)" style="fill: #1f77b4"/>
   </g>
   <g id="patch_178">
    <path d="M 356.773691 307.584 
L 358.067135 307.584 
L 358.067135 306.916174 
L 356.773691 306.916174 
z
" clip-path="url(#pf1b9005715)" style="fill: #1f77b4"/>
   </g>
   <g id="patch_179">
    <path d="M 358.390496 307.584 
L 359.683941 307.584 
L 359.683941 306.582261 
L 358.390496 306.582261 
z
" clip-path="url(#pf1b9005715)" style="fill: #1f77b4"/>
   </g>
   <g id="patch_180">
    <path d="M 360.007302 307.584 
L 361.300746 307.584 
L 361.300746 307.584 
L 360.007302 307.584 
z
" clip-path="url(#pf1b9005715)" style="fill: #1f77b4"/>
   </g>
   <g id="patch_181">
    <path d="M 361.624107 307.584 
L 362.917552 307.584 
L 362.917552 307.250087 
L 361.624107 307.250087 
z
" clip-path="url(#pf1b9005715)" style="fill: #1f77b4"/>
   </g>
   <g id="patch_182">
    <path d="M 363.240913 307.584 
L 364.534357 307.584 
L 364.534357 307.250087 
L 363.240913 307.250087 
z
" clip-path="url(#pf1b9005715)" style="fill: #1f77b4"/>
   </g>
   <g id="patch_183">
    <path d="M 364.857718 307.584 
L 366.151163 307.584 
L 366.151163 307.584 
L 364.857718 307.584 
z
" clip-path="url(#pf1b9005715)" style="fill: #1f77b4"/>
   </g>
   <g id="patch_184">
    <path d="M 366.474524 307.584 
L 367.767968 307.584 
L 367.767968 307.250087 
L 366.474524 307.250087 
z
" clip-path="url(#pf1b9005715)" style="fill: #1f77b4"/>
   </g>
   <g id="patch_185">
    <path d="M 368.091329 307.584 
L 369.384774 307.584 
L 369.384774 307.584 
L 368.091329 307.584 
z
" clip-path="url(#pf1b9005715)" style="fill: #1f77b4"/>
   </g>
   <g id="patch_186">
    <path d="M 369.708135 307.584 
L 371.001579 307.584 
L 371.001579 307.584 
L 369.708135 307.584 
z
" clip-path="url(#pf1b9005715)" style="fill: #1f77b4"/>
   </g>
   <g id="patch_187">
    <path d="M 371.32494 307.584 
L 372.618385 307.584 
L 372.618385 307.584 
L 371.32494 307.584 
z
" clip-path="url(#pf1b9005715)" style="fill: #1f77b4"/>
   </g>
   <g id="patch_188">
    <path d="M 372.941746 307.584 
L 374.23519 307.584 
L 374.23519 307.584 
L 372.941746 307.584 
z
" clip-path="url(#pf1b9005715)" style="fill: #1f77b4"/>
   </g>
   <g id="patch_189">
    <path d="M 374.558551 307.584 
L 375.851996 307.584 
L 375.851996 307.584 
L 374.558551 307.584 
z
" clip-path="url(#pf1b9005715)" style="fill: #1f77b4"/>
   </g>
   <g id="patch_190">
    <path d="M 376.175357 307.584 
L 377.468801 307.584 
L 377.468801 307.584 
L 376.175357 307.584 
z
" clip-path="url(#pf1b9005715)" style="fill: #1f77b4"/>
   </g>
   <g id="patch_191">
    <path d="M 377.792162 307.584 
L 379.085607 307.584 
L 379.085607 307.584 
L 377.792162 307.584 
z
" clip-path="url(#pf1b9005715)" style="fill: #1f77b4"/>
   </g>
   <g id="patch_192">
    <path d="M 379.408968 307.584 
L 380.702412 307.584 
L 380.702412 307.584 
L 379.408968 307.584 
z
" clip-path="url(#pf1b9005715)" style="fill: #1f77b4"/>
   </g>
   <g id="patch_193">
    <path d="M 381.025773 307.584 
L 382.319218 307.584 
L 382.319218 307.584 
L 381.025773 307.584 
z
" clip-path="url(#pf1b9005715)" style="fill: #1f77b4"/>
   </g>
   <g id="patch_194">
    <path d="M 382.642579 307.584 
L 383.936023 307.584 
L 383.936023 307.584 
L 382.642579 307.584 
z
" clip-path="url(#pf1b9005715)" style="fill: #1f77b4"/>
   </g>
   <g id="patch_195">
    <path d="M 384.259384 307.584 
L 385.552829 307.584 
L 385.552829 307.584 
L 384.259384 307.584 
z
" clip-path="url(#pf1b9005715)" style="fill: #1f77b4"/>
   </g>
   <g id="patch_196">
    <path d="M 385.87619 307.584 
L 387.169634 307.584 
L 387.169634 307.584 
L 385.87619 307.584 
z
" clip-path="url(#pf1b9005715)" style="fill: #1f77b4"/>
   </g>
   <g id="patch_197">
    <path d="M 387.492995 307.584 
L 388.78644 307.584 
L 388.78644 307.584 
L 387.492995 307.584 
z
" clip-path="url(#pf1b9005715)" style="fill: #1f77b4"/>
   </g>
   <g id="patch_198">
    <path d="M 389.109801 307.584 
L 390.403245 307.584 
L 390.403245 307.584 
L 389.109801 307.584 
z
" clip-path="url(#pf1b9005715)" style="fill: #1f77b4"/>
   </g>
   <g id="patch_199">
    <path d="M 390.726606 307.584 
L 392.020051 307.584 
L 392.020051 307.584 
L 390.726606 307.584 
z
" clip-path="url(#pf1b9005715)" style="fill: #1f77b4"/>
   </g>
   <g id="patch_200">
    <path d="M 392.343412 307.584 
L 393.636856 307.584 
L 393.636856 307.584 
L 392.343412 307.584 
z
" clip-path="url(#pf1b9005715)" style="fill: #1f77b4"/>
   </g>
   <g id="patch_201">
    <path d="M 393.960217 307.584 
L 395.253662 307.584 
L 395.253662 307.584 
L 393.960217 307.584 
z
" clip-path="url(#pf1b9005715)" style="fill: #1f77b4"/>
   </g>
   <g id="patch_202">
    <path d="M 395.577023 307.584 
L 396.870467 307.584 
L 396.870467 307.584 
L 395.577023 307.584 
z
" clip-path="url(#pf1b9005715)" style="fill: #1f77b4"/>
   </g>
   <g id="patch_203">
    <path d="M 397.193828 307.584 
L 398.487273 307.584 
L 398.487273 307.584 
L 397.193828 307.584 
z
" clip-path="url(#pf1b9005715)" style="fill: #1f77b4"/>
   </g>
   <g id="patch_204">
    <path d="M 235.513278 307.584 
L 236.806722 307.584 
L 236.806722 54.144 
L 235.513278 54.144 
z
" clip-path="url(#pf1b9005715)" style="fill: #ff7f0e"/>
   </g>
   <g id="matplotlib.axis_1">
    <g id="xtick_1">
     <g id="line2d_1">
      <defs>
       <path id="m07047349a7" d="M 0 0 
L 0 3.5 
" style="stroke: #000000; stroke-width: 0.8"/>
      </defs>
      <g>
       <use xlink:href="#m07047349a7" x="74.479449" y="307.584" style="stroke: #000000; stroke-width: 0.8"/>
      </g>
     </g>
     <g id="text_1">
      <!-- −100 -->
      <g transform="translate(60.745856 322.182437) scale(0.1 -0.1)">
       <defs>
        <path id="DejaVuSans-2212" d="M 678 2272 
L 4684 2272 
L 4684 1741 
L 678 1741 
L 678 2272 
z
" transform="scale(0.015625)"/>
        <path id="DejaVuSans-31" d="M 794 531 
L 1825 531 
L 1825 4091 
L 703 3866 
L 703 4441 
L 1819 4666 
L 2450 4666 
L 2450 531 
L 3481 531 
L 3481 0 
L 794 0 
L 794 531 
z
" transform="scale(0.015625)"/>
        <path id="DejaVuSans-30" d="M 2034 4250 
Q 1547 4250 1301 3770 
Q 1056 3291 1056 2328 
Q 1056 1369 1301 889 
Q 1547 409 2034 409 
Q 2525 409 2770 889 
Q 3016 1369 3016 2328 
Q 3016 3291 2770 3770 
Q 2525 4250 2034 4250 
z
M 2034 4750 
Q 2819 4750 3233 4129 
Q 3647 3509 3647 2328 
Q 3647 1150 3233 529 
Q 2819 -91 2034 -91 
Q 1250 -91 836 529 
Q 422 1150 422 2328 
Q 422 3509 836 4129 
Q 1250 4750 2034 4750 
z
" transform="scale(0.015625)"/>
       </defs>
       <use xlink:href="#DejaVuSans-2212"/>
       <use xlink:href="#DejaVuSans-31" x="83.789062"/>
       <use xlink:href="#DejaVuSans-30" x="147.412109"/>
       <use xlink:href="#DejaVuSans-30" x="211.035156"/>
      </g>
     </g>
    </g>
    <g id="xtick_2">
     <g id="line2d_2">
      <g>
       <use xlink:href="#m07047349a7" x="114.899587" y="307.584" style="stroke: #000000; stroke-width: 0.8"/>
      </g>
     </g>
     <g id="text_2">
      <!-- −75 -->
      <g transform="translate(104.347243 322.182437) scale(0.1 -0.1)">
       <defs>
        <path id="DejaVuSans-37" d="M 525 4666 
L 3525 4666 
L 3525 4397 
L 1831 0 
L 1172 0 
L 2766 4134 
L 525 4134 
L 525 4666 
z
" transform="scale(0.015625)"/>
        <path id="DejaVuSans-35" d="M 691 4666 
L 3169 4666 
L 3169 4134 
L 1269 4134 
L 1269 2991 
Q 1406 3038 1543 3061 
Q 1681 3084 1819 3084 
Q 2600 3084 3056 2656 
Q 3513 2228 3513 1497 
Q 3513 744 3044 326 
Q 2575 -91 1722 -91 
Q 1428 -91 1123 -41 
Q 819 9 494 109 
L 494 744 
Q 775 591 1075 516 
Q 1375 441 1709 441 
Q 2250 441 2565 725 
Q 2881 1009 2881 1497 
Q 2881 1984 2565 2268 
Q 2250 2553 1709 2553 
Q 1456 2553 1204 2497 
Q 953 2441 691 2322 
L 691 4666 
z
" transform="scale(0.015625)"/>
       </defs>
       <use xlink:href="#DejaVuSans-2212"/>
       <use xlink:href="#DejaVuSans-37" x="83.789062"/>
       <use xlink:href="#DejaVuSans-35" x="147.412109"/>
      </g>
     </g>
    </g>
    <g id="xtick_3">
     <g id="line2d_3">
      <g>
       <use xlink:href="#m07047349a7" x="155.319725" y="307.584" style="stroke: #000000; stroke-width: 0.8"/>
      </g>
     </g>
     <g id="text_3">
      <!-- −50 -->
      <g transform="translate(144.767381 322.182437) scale(0.1 -0.1)">
       <use xlink:href="#DejaVuSans-2212"/>
       <use xlink:href="#DejaVuSans-35" x="83.789062"/>
       <use xlink:href="#DejaVuSans-30" x="147.412109"/>
      </g>
     </g>
    </g>
    <g id="xtick_4">
     <g id="line2d_4">
      <g>
       <use xlink:href="#m07047349a7" x="195.739862" y="307.584" style="stroke: #000000; stroke-width: 0.8"/>
      </g>
     </g>
     <g id="text_4">
      <!-- −25 -->
      <g transform="translate(185.187519 322.182437) scale(0.1 -0.1)">
       <defs>
        <path id="DejaVuSans-32" d="M 1228 531 
L 3431 531 
L 3431 0 
L 469 0 
L 469 531 
Q 828 903 1448 1529 
Q 2069 2156 2228 2338 
Q 2531 2678 2651 2914 
Q 2772 3150 2772 3378 
Q 2772 3750 2511 3984 
Q 2250 4219 1831 4219 
Q 1534 4219 1204 4116 
Q 875 4013 500 3803 
L 500 4441 
Q 881 4594 1212 4672 
Q 1544 4750 1819 4750 
Q 2544 4750 2975 4387 
Q 3406 4025 3406 3419 
Q 3406 3131 3298 2873 
Q 3191 2616 2906 2266 
Q 2828 2175 2409 1742 
Q 1991 1309 1228 531 
z
" transform="scale(0.015625)"/>
       </defs>
       <use xlink:href="#DejaVuSans-2212"/>
       <use xlink:href="#DejaVuSans-32" x="83.789062"/>
       <use xlink:href="#DejaVuSans-35" x="147.412109"/>
      </g>
     </g>
    </g>
    <g id="xtick_5">
     <g id="line2d_5">
      <g>
       <use xlink:href="#m07047349a7" x="236.16" y="307.584" style="stroke: #000000; stroke-width: 0.8"/>
      </g>
     </g>
     <g id="text_5">
      <!-- 0 -->
      <g transform="translate(232.97875 322.182437) scale(0.1 -0.1)">
       <use xlink:href="#DejaVuSans-30"/>
      </g>
     </g>
    </g>
    <g id="xtick_6">
     <g id="line2d_6">
      <g>
       <use xlink:href="#m07047349a7" x="276.580138" y="307.584" style="stroke: #000000; stroke-width: 0.8"/>
      </g>
     </g>
     <g id="text_6">
      <!-- 25 -->
      <g transform="translate(270.217638 322.182437) scale(0.1 -0.1)">
       <use xlink:href="#DejaVuSans-32"/>
       <use xlink:href="#DejaVuSans-35" x="63.623047"/>
      </g>
     </g>
    </g>
    <g id="xtick_7">
     <g id="line2d_7">
      <g>
       <use xlink:href="#m07047349a7" x="317.000275" y="307.584" style="stroke: #000000; stroke-width: 0.8"/>
      </g>
     </g>
     <g id="text_7">
      <!-- 50 -->
      <g transform="translate(310.637775 322.182437) scale(0.1 -0.1)">
       <use xlink:href="#DejaVuSans-35"/>
       <use xlink:href="#DejaVuSans-30" x="63.623047"/>
      </g>
     </g>
    </g>
    <g id="xtick_8">
     <g id="line2d_8">
      <g>
       <use xlink:href="#m07047349a7" x="357.420413" y="307.584" style="stroke: #000000; stroke-width: 0.8"/>
      </g>
     </g>
     <g id="text_8">
      <!-- 75 -->
      <g transform="translate(351.057913 322.182437) scale(0.1 -0.1)">
       <use xlink:href="#DejaVuSans-37"/>
       <use xlink:href="#DejaVuSans-35" x="63.623047"/>
      </g>
     </g>
    </g>
    <g id="xtick_9">
     <g id="line2d_9">
      <g>
       <use xlink:href="#m07047349a7" x="397.840551" y="307.584" style="stroke: #000000; stroke-width: 0.8"/>
      </g>
     </g>
     <g id="text_9">
      <!-- 100 -->
      <g transform="translate(388.296801 322.182437) scale(0.1 -0.1)">
       <use xlink:href="#DejaVuSans-31"/>
       <use xlink:href="#DejaVuSans-30" x="63.623047"/>
       <use xlink:href="#DejaVuSans-30" x="127.246094"/>
      </g>
     </g>
    </g>
    <g id="text_10">
     <!-- arrière &lt;- 1 mm de Delta av/ar -&gt; avant -->
     <g transform="translate(135.331094 335.860562) scale(0.1 -0.1)">
      <defs>
       <path id="DejaVuSans-61" d="M 2194 1759 
Q 1497 1759 1228 1600 
Q 959 1441 959 1056 
Q 959 750 1161 570 
Q 1363 391 1709 391 
Q 2188 391 2477 730 
Q 2766 1069 2766 1631 
L 2766 1759 
L 2194 1759 
z
M 3341 1997 
L 3341 0 
L 2766 0 
L 2766 531 
Q 2569 213 2275 61 
Q 1981 -91 1556 -91 
Q 1019 -91 701 211 
Q 384 513 384 1019 
Q 384 1609 779 1909 
Q 1175 2209 1959 2209 
L 2766 2209 
L 2766 2266 
Q 2766 2663 2505 2880 
Q 2244 3097 1772 3097 
Q 1472 3097 1187 3025 
Q 903 2953 641 2809 
L 641 3341 
Q 956 3463 1253 3523 
Q 1550 3584 1831 3584 
Q 2591 3584 2966 3190 
Q 3341 2797 3341 1997 
z
" transform="scale(0.015625)"/>
       <path id="DejaVuSans-72" d="M 2631 2963 
Q 2534 3019 2420 3045 
Q 2306 3072 2169 3072 
Q 1681 3072 1420 2755 
Q 1159 2438 1159 1844 
L 1159 0 
L 581 0 
L 581 3500 
L 1159 3500 
L 1159 2956 
Q 1341 3275 1631 3429 
Q 1922 3584 2338 3584 
Q 2397 3584 2469 3576 
Q 2541 3569 2628 3553 
L 2631 2963 
z
" transform="scale(0.015625)"/>
       <path id="DejaVuSans-69" d="M 603 3500 
L 1178 3500 
L 1178 0 
L 603 0 
L 603 3500 
z
M 603 4863 
L 1178 4863 
L 1178 4134 
L 603 4134 
L 603 4863 
z
" transform="scale(0.015625)"/>
       <path id="DejaVuSans-e8" d="M 3597 1894 
L 3597 1613 
L 953 1613 
Q 991 1019 1311 708 
Q 1631 397 2203 397 
Q 2534 397 2845 478 
Q 3156 559 3463 722 
L 3463 178 
Q 3153 47 2828 -22 
Q 2503 -91 2169 -91 
Q 1331 -91 842 396 
Q 353 884 353 1716 
Q 353 2575 817 3079 
Q 1281 3584 2069 3584 
Q 2775 3584 3186 3129 
Q 3597 2675 3597 1894 
z
M 3022 2063 
Q 3016 2534 2758 2815 
Q 2500 3097 2075 3097 
Q 1594 3097 1305 2825 
Q 1016 2553 972 2059 
L 3022 2063 
z
M 1579 5119 
L 2460 3950 
L 1982 3950 
L 963 5119 
L 1579 5119 
z
" transform="scale(0.015625)"/>
       <path id="DejaVuSans-65" d="M 3597 1894 
L 3597 1613 
L 953 1613 
Q 991 1019 1311 708 
Q 1631 397 2203 397 
Q 2534 397 2845 478 
Q 3156 559 3463 722 
L 3463 178 
Q 3153 47 2828 -22 
Q 2503 -91 2169 -91 
Q 1331 -91 842 396 
Q 353 884 353 1716 
Q 353 2575 817 3079 
Q 1281 3584 2069 3584 
Q 2775 3584 3186 3129 
Q 3597 2675 3597 1894 
z
M 3022 2063 
Q 3016 2534 2758 2815 
Q 2500 3097 2075 3097 
Q 1594 3097 1305 2825 
Q 1016 2553 972 2059 
L 3022 2063 
z
" transform="scale(0.015625)"/>
       <path id="DejaVuSans-20" transform="scale(0.015625)"/>
       <path id="DejaVuSans-3c" d="M 4684 3150 
L 1459 2003 
L 4684 863 
L 4684 294 
L 678 1747 
L 678 2266 
L 4684 3719 
L 4684 3150 
z
" transform="scale(0.015625)"/>
       <path id="DejaVuSans-2d" d="M 313 2009 
L 1997 2009 
L 1997 1497 
L 313 1497 
L 313 2009 
z
" transform="scale(0.015625)"/>
       <path id="DejaVuSans-6d" d="M 3328 2828 
Q 3544 3216 3844 3400 
Q 4144 3584 4550 3584 
Q 5097 3584 5394 3201 
Q 5691 2819 5691 2113 
L 5691 0 
L 5113 0 
L 5113 2094 
Q 5113 2597 4934 2840 
Q 4756 3084 4391 3084 
Q 3944 3084 3684 2787 
Q 3425 2491 3425 1978 
L 3425 0 
L 2847 0 
L 2847 2094 
Q 2847 2600 2669 2842 
Q 2491 3084 2119 3084 
Q 1678 3084 1418 2786 
Q 1159 2488 1159 1978 
L 1159 0 
L 581 0 
L 581 3500 
L 1159 3500 
L 1159 2956 
Q 1356 3278 1631 3431 
Q 1906 3584 2284 3584 
Q 2666 3584 2933 3390 
Q 3200 3197 3328 2828 
z
" transform="scale(0.015625)"/>
       <path id="DejaVuSans-64" d="M 2906 2969 
L 2906 4863 
L 3481 4863 
L 3481 0 
L 2906 0 
L 2906 525 
Q 2725 213 2448 61 
Q 2172 -91 1784 -91 
Q 1150 -91 751 415 
Q 353 922 353 1747 
Q 353 2572 751 3078 
Q 1150 3584 1784 3584 
Q 2172 3584 2448 3432 
Q 2725 3281 2906 2969 
z
M 947 1747 
Q 947 1113 1208 752 
Q 1469 391 1925 391 
Q 2381 391 2643 752 
Q 2906 1113 2906 1747 
Q 2906 2381 2643 2742 
Q 2381 3103 1925 3103 
Q 1469 3103 1208 2742 
Q 947 2381 947 1747 
z
" transform="scale(0.015625)"/>
       <path id="DejaVuSans-44" d="M 1259 4147 
L 1259 519 
L 2022 519 
Q 2988 519 3436 956 
Q 3884 1394 3884 2338 
Q 3884 3275 3436 3711 
Q 2988 4147 2022 4147 
L 1259 4147 
z
M 628 4666 
L 1925 4666 
Q 3281 4666 3915 4102 
Q 4550 3538 4550 2338 
Q 4550 1131 3912 565 
Q 3275 0 1925 0 
L 628 0 
L 628 4666 
z
" transform="scale(0.015625)"/>
       <path id="DejaVuSans-6c" d="M 603 4863 
L 1178 4863 
L 1178 0 
L 603 0 
L 603 4863 
z
" transform="scale(0.015625)"/>
       <path id="DejaVuSans-74" d="M 1172 4494 
L 1172 3500 
L 2356 3500 
L 2356 3053 
L 1172 3053 
L 1172 1153 
Q 1172 725 1289 603 
Q 1406 481 1766 481 
L 2356 481 
L 2356 0 
L 1766 0 
Q 1100 0 847 248 
Q 594 497 594 1153 
L 594 3053 
L 172 3053 
L 172 3500 
L 594 3500 
L 594 4494 
L 1172 4494 
z
" transform="scale(0.015625)"/>
       <path id="DejaVuSans-76" d="M 191 3500 
L 800 3500 
L 1894 563 
L 2988 3500 
L 3597 3500 
L 2284 0 
L 1503 0 
L 191 3500 
z
" transform="scale(0.015625)"/>
       <path id="DejaVuSans-2f" d="M 1625 4666 
L 2156 4666 
L 531 -594 
L 0 -594 
L 1625 4666 
z
" transform="scale(0.015625)"/>
       <path id="DejaVuSans-3e" d="M 678 3150 
L 678 3719 
L 4684 2266 
L 4684 1747 
L 678 294 
L 678 863 
L 3897 2003 
L 678 3150 
z
" transform="scale(0.015625)"/>
       <path id="DejaVuSans-6e" d="M 3513 2113 
L 3513 0 
L 2938 0 
L 2938 2094 
Q 2938 2591 2744 2837 
Q 2550 3084 2163 3084 
Q 1697 3084 1428 2787 
Q 1159 2491 1159 1978 
L 1159 0 
L 581 0 
L 581 3500 
L 1159 3500 
L 1159 2956 
Q 1366 3272 1645 3428 
Q 1925 3584 2291 3584 
Q 2894 3584 3203 3211 
Q 3513 2838 3513 2113 
z
" transform="scale(0.015625)"/>
      </defs>
      <use xlink:href="#DejaVuSans-61"/>
      <use xlink:href="#DejaVuSans-72" x="61.279297"/>
      <use xlink:href="#DejaVuSans-72" x="100.642578"/>
      <use xlink:href="#DejaVuSans-69" x="141.755859"/>
      <use xlink:href="#DejaVuSans-e8" x="169.539062"/>
      <use xlink:href="#DejaVuSans-72" x="231.0625"/>
      <use xlink:href="#DejaVuSans-65" x="269.925781"/>
      <use xlink:href="#DejaVuSans-20" x="331.449219"/>
      <use xlink:href="#DejaVuSans-3c" x="363.236328"/>
      <use xlink:href="#DejaVuSans-2d" x="447.025391"/>
      <use xlink:href="#DejaVuSans-20" x="483.109375"/>
      <use xlink:href="#DejaVuSans-31" x="514.896484"/>
      <use xlink:href="#DejaVuSans-20" x="578.519531"/>
      <use xlink:href="#DejaVuSans-6d" x="610.306641"/>
      <use xlink:href="#DejaVuSans-6d" x="707.71875"/>
      <use xlink:href="#DejaVuSans-20" x="805.130859"/>
      <use xlink:href="#DejaVuSans-64" x="836.917969"/>
      <use xlink:href="#DejaVuSans-65" x="900.394531"/>
      <use xlink:href="#DejaVuSans-20" x="961.917969"/>
      <use xlink:href="#DejaVuSans-44" x="993.705078"/>
      <use xlink:href="#DejaVuSans-65" x="1070.707031"/>
      <use xlink:href="#DejaVuSans-6c" x="1132.230469"/>
      <use xlink:href="#DejaVuSans-74" x="1160.013672"/>
      <use xlink:href="#DejaVuSans-61" x="1199.222656"/>
      <use xlink:href="#DejaVuSans-20" x="1260.501953"/>
      <use xlink:href="#DejaVuSans-61" x="1292.289062"/>
      <use xlink:href="#DejaVuSans-76" x="1353.568359"/>
      <use xlink:href="#DejaVuSans-2f" x="1412.748047"/>
      <use xlink:href="#DejaVuSans-61" x="1446.439453"/>
      <use xlink:href="#DejaVuSans-72" x="1507.71875"/>
      <use xlink:href="#DejaVuSans-20" x="1548.832031"/>
      <use xlink:href="#DejaVuSans-2d" x="1580.619141"/>
      <use xlink:href="#DejaVuSans-3e" x="1616.703125"/>
      <use xlink:href="#DejaVuSans-20" x="1700.492188"/>
      <use xlink:href="#DejaVuSans-61" x="1732.279297"/>
      <use xlink:href="#DejaVuSans-76" x="1793.558594"/>
      <use xlink:href="#DejaVuSans-61" x="1852.738281"/>
      <use xlink:href="#DejaVuSans-6e" x="1914.017578"/>
      <use xlink:href="#DejaVuSans-74" x="1977.396484"/>
     </g>
    </g>
   </g>
   <g id="matplotlib.axis_2">
    <g id="ytick_1">
     <g id="line2d_10">
      <defs>
       <path id="md62dacce48" d="M 0 0 
L -3.5 0 
" style="stroke: #000000; stroke-width: 0.8"/>
      </defs>
      <g>
       <use xlink:href="#md62dacce48" x="57.6" y="307.584" style="stroke: #000000; stroke-width: 0.8"/>
      </g>
     </g>
     <g id="text_11">
      <!-- 0 -->
      <g transform="translate(44.2375 311.383219) scale(0.1 -0.1)">
       <use xlink:href="#DejaVuSans-30"/>
      </g>
     </g>
    </g>
    <g id="ytick_2">
     <g id="line2d_11">
      <g>
       <use xlink:href="#md62dacce48" x="57.6" y="260.15833" style="stroke: #000000; stroke-width: 0.8"/>
      </g>
     </g>
     <g id="text_12">
      <!-- 1 -->
      <g transform="translate(44.2375 263.957549) scale(0.1 -0.1)">
       <use xlink:href="#DejaVuSans-31"/>
      </g>
     </g>
    </g>
    <g id="ytick_3">
     <g id="line2d_12">
      <g>
       <use xlink:href="#md62dacce48" x="57.6" y="212.732661" style="stroke: #000000; stroke-width: 0.8"/>
      </g>
     </g>
     <g id="text_13">
      <!-- 2 -->
      <g transform="translate(44.2375 216.53188) scale(0.1 -0.1)">
       <use xlink:href="#DejaVuSans-32"/>
      </g>
     </g>
    </g>
    <g id="ytick_4">
     <g id="line2d_13">
      <g>
       <use xlink:href="#md62dacce48" x="57.6" y="165.306991" style="stroke: #000000; stroke-width: 0.8"/>
      </g>
     </g>
     <g id="text_14">
      <!-- 3 -->
      <g transform="translate(44.2375 169.10621) scale(0.1 -0.1)">
       <defs>
        <path id="DejaVuSans-33" d="M 2597 2516 
Q 3050 2419 3304 2112 
Q 3559 1806 3559 1356 
Q 3559 666 3084 287 
Q 2609 -91 1734 -91 
Q 1441 -91 1130 -33 
Q 819 25 488 141 
L 488 750 
Q 750 597 1062 519 
Q 1375 441 1716 441 
Q 2309 441 2620 675 
Q 2931 909 2931 1356 
Q 2931 1769 2642 2001 
Q 2353 2234 1838 2234 
L 1294 2234 
L 1294 2753 
L 1863 2753 
Q 2328 2753 2575 2939 
Q 2822 3125 2822 3475 
Q 2822 3834 2567 4026 
Q 2313 4219 1838 4219 
Q 1578 4219 1281 4162 
Q 984 4106 628 3988 
L 628 4550 
Q 988 4650 1302 4700 
Q 1616 4750 1894 4750 
Q 2613 4750 3031 4423 
Q 3450 4097 3450 3541 
Q 3450 3153 3228 2886 
Q 3006 2619 2597 2516 
z
" transform="scale(0.015625)"/>
       </defs>
       <use xlink:href="#DejaVuSans-33"/>
      </g>
     </g>
    </g>
    <g id="ytick_5">
     <g id="line2d_14">
      <g>
       <use xlink:href="#md62dacce48" x="57.6" y="117.881322" style="stroke: #000000; stroke-width: 0.8"/>
      </g>
     </g>
     <g id="text_15">
      <!-- 4 -->
      <g transform="translate(44.2375 121.68054) scale(0.1 -0.1)">
       <defs>
        <path id="DejaVuSans-34" d="M 2419 4116 
L 825 1625 
L 2419 1625 
L 2419 4116 
z
M 2253 4666 
L 3047 4666 
L 3047 1625 
L 3713 1625 
L 3713 1100 
L 3047 1100 
L 3047 0 
L 2419 0 
L 2419 1100 
L 313 1100 
L 313 1709 
L 2253 4666 
z
" transform="scale(0.015625)"/>
       </defs>
       <use xlink:href="#DejaVuSans-34"/>
      </g>
     </g>
    </g>
    <g id="ytick_6">
     <g id="line2d_15">
      <g>
       <use xlink:href="#md62dacce48" x="57.6" y="70.455652" style="stroke: #000000; stroke-width: 0.8"/>
      </g>
     </g>
     <g id="text_16">
      <!-- 5 -->
      <g transform="translate(44.2375 74.254871) scale(0.1 -0.1)">
       <use xlink:href="#DejaVuSans-35"/>
      </g>
     </g>
    </g>
    <g id="text_17">
     <!-- Temps passé en % -->
     <g transform="translate(38.157812 220.745187) rotate(-90) scale(0.1 -0.1)">
      <defs>
       <path id="DejaVuSans-54" d="M -19 4666 
L 3928 4666 
L 3928 4134 
L 2272 4134 
L 2272 0 
L 1638 0 
L 1638 4134 
L -19 4134 
L -19 4666 
z
" transform="scale(0.015625)"/>
       <path id="DejaVuSans-70" d="M 1159 525 
L 1159 -1331 
L 581 -1331 
L 581 3500 
L 1159 3500 
L 1159 2969 
Q 1341 3281 1617 3432 
Q 1894 3584 2278 3584 
Q 2916 3584 3314 3078 
Q 3713 2572 3713 1747 
Q 3713 922 3314 415 
Q 2916 -91 2278 -91 
Q 1894 -91 1617 61 
Q 1341 213 1159 525 
z
M 3116 1747 
Q 3116 2381 2855 2742 
Q 2594 3103 2138 3103 
Q 1681 3103 1420 2742 
Q 1159 2381 1159 1747 
Q 1159 1113 1420 752 
Q 1681 391 2138 391 
Q 2594 391 2855 752 
Q 3116 1113 3116 1747 
z
" transform="scale(0.015625)"/>
       <path id="DejaVuSans-73" d="M 2834 3397 
L 2834 2853 
Q 2591 2978 2328 3040 
Q 2066 3103 1784 3103 
Q 1356 3103 1142 2972 
Q 928 2841 928 2578 
Q 928 2378 1081 2264 
Q 1234 2150 1697 2047 
L 1894 2003 
Q 2506 1872 2764 1633 
Q 3022 1394 3022 966 
Q 3022 478 2636 193 
Q 2250 -91 1575 -91 
Q 1294 -91 989 -36 
Q 684 19 347 128 
L 347 722 
Q 666 556 975 473 
Q 1284 391 1588 391 
Q 1994 391 2212 530 
Q 2431 669 2431 922 
Q 2431 1156 2273 1281 
Q 2116 1406 1581 1522 
L 1381 1569 
Q 847 1681 609 1914 
Q 372 2147 372 2553 
Q 372 3047 722 3315 
Q 1072 3584 1716 3584 
Q 2034 3584 2315 3537 
Q 2597 3491 2834 3397 
z
" transform="scale(0.015625)"/>
       <path id="DejaVuSans-e9" d="M 3597 1894 
L 3597 1613 
L 953 1613 
Q 991 1019 1311 708 
Q 1631 397 2203 397 
Q 2534 397 2845 478 
Q 3156 559 3463 722 
L 3463 178 
Q 3153 47 2828 -22 
Q 2503 -91 2169 -91 
Q 1331 -91 842 396 
Q 353 884 353 1716 
Q 353 2575 817 3079 
Q 1281 3584 2069 3584 
Q 2775 3584 3186 3129 
Q 3597 2675 3597 1894 
z
M 3022 2063 
Q 3016 2534 2758 2815 
Q 2500 3097 2075 3097 
Q 1594 3097 1305 2825 
Q 1016 2553 972 2059 
L 3022 2063 
z
M 2466 5119 
L 3088 5119 
L 2070 3944 
L 1591 3944 
L 2466 5119 
z
" transform="scale(0.015625)"/>
       <path id="DejaVuSans-25" d="M 4653 2053 
Q 4381 2053 4226 1822 
Q 4072 1591 4072 1178 
Q 4072 772 4226 539 
Q 4381 306 4653 306 
Q 4919 306 5073 539 
Q 5228 772 5228 1178 
Q 5228 1588 5073 1820 
Q 4919 2053 4653 2053 
z
M 4653 2450 
Q 5147 2450 5437 2106 
Q 5728 1763 5728 1178 
Q 5728 594 5436 251 
Q 5144 -91 4653 -91 
Q 4153 -91 3862 251 
Q 3572 594 3572 1178 
Q 3572 1766 3864 2108 
Q 4156 2450 4653 2450 
z
M 1428 4353 
Q 1159 4353 1004 4120 
Q 850 3888 850 3481 
Q 850 3069 1003 2837 
Q 1156 2606 1428 2606 
Q 1700 2606 1854 2837 
Q 2009 3069 2009 3481 
Q 2009 3884 1853 4118 
Q 1697 4353 1428 4353 
z
M 4250 4750 
L 4750 4750 
L 1831 -91 
L 1331 -91 
L 4250 4750 
z
M 1428 4750 
Q 1922 4750 2215 4408 
Q 2509 4066 2509 3481 
Q 2509 2891 2217 2550 
Q 1925 2209 1428 2209 
Q 931 2209 642 2551 
Q 353 2894 353 3481 
Q 353 4063 643 4406 
Q 934 4750 1428 4750 
z
" transform="scale(0.015625)"/>
      </defs>
      <use xlink:href="#DejaVuSans-54"/>
      <use xlink:href="#DejaVuSans-65" x="44.083984"/>
      <use xlink:href="#DejaVuSans-6d" x="105.607422"/>
      <use xlink:href="#DejaVuSans-70" x="203.019531"/>
      <use xlink:href="#DejaVuSans-73" x="266.496094"/>
      <use xlink:href="#DejaVuSans-20" x="318.595703"/>
      <use xlink:href="#DejaVuSans-70" x="350.382812"/>
      <use xlink:href="#DejaVuSans-61" x="413.859375"/>
      <use xlink:href="#DejaVuSans-73" x="475.138672"/>
      <use xlink:href="#DejaVuSans-73" x="527.238281"/>
      <use xlink:href="#DejaVuSans-e9" x="579.337891"/>
      <use xlink:href="#DejaVuSans-20" x="640.861328"/>
      <use xlink:href="#DejaVuSans-65" x="672.648438"/>
      <use xlink:href="#DejaVuSans-6e" x="734.171875"/>
      <use xlink:href="#DejaVuSans-20" x="797.550781"/>
      <use xlink:href="#DejaVuSans-25" x="829.337891"/>
     </g>
    </g>
   </g>
   <g id="patch_205">
    <path d="M 57.6 307.584 
L 57.6 41.472 
" style="fill: none; stroke: #000000; stroke-width: 0.8; stroke-linejoin: miter; stroke-linecap: square"/>
   </g>
   <g id="patch_206">
    <path d="M 414.72 307.584 
L 414.72 41.472 
" style="fill: none; stroke: #000000; stroke-width: 0.8; stroke-linejoin: miter; stroke-linecap: square"/>
   </g>
   <g id="patch_207">
    <path d="M 57.6 307.584 
L 414.72 307.584 
" style="fill: none; stroke: #000000; stroke-width: 0.8; stroke-linejoin: miter; stroke-linecap: square"/>
   </g>
   <g id="patch_208">
    <path d="M 57.6 41.472 
L 414.72 41.472 
" style="fill: none; stroke: #000000; stroke-width: 0.8; stroke-linejoin: miter; stroke-linecap: square"/>
   </g>
   <g id="text_18">
    <!-- Répartition du temps par tranche de Delta av/ar -->
    <g transform="translate(91.37625 35.472) scale(0.12 -0.12)">
     <defs>
      <path id="DejaVuSans-52" d="M 2841 2188 
Q 3044 2119 3236 1894 
Q 3428 1669 3622 1275 
L 4263 0 
L 3584 0 
L 2988 1197 
Q 2756 1666 2539 1819 
Q 2322 1972 1947 1972 
L 1259 1972 
L 1259 0 
L 628 0 
L 628 4666 
L 2053 4666 
Q 2853 4666 3247 4331 
Q 3641 3997 3641 3322 
Q 3641 2881 3436 2590 
Q 3231 2300 2841 2188 
z
M 1259 4147 
L 1259 2491 
L 2053 2491 
Q 2509 2491 2742 2702 
Q 2975 2913 2975 3322 
Q 2975 3731 2742 3939 
Q 2509 4147 2053 4147 
L 1259 4147 
z
" transform="scale(0.015625)"/>
      <path id="DejaVuSans-6f" d="M 1959 3097 
Q 1497 3097 1228 2736 
Q 959 2375 959 1747 
Q 959 1119 1226 758 
Q 1494 397 1959 397 
Q 2419 397 2687 759 
Q 2956 1122 2956 1747 
Q 2956 2369 2687 2733 
Q 2419 3097 1959 3097 
z
M 1959 3584 
Q 2709 3584 3137 3096 
Q 3566 2609 3566 1747 
Q 3566 888 3137 398 
Q 2709 -91 1959 -91 
Q 1206 -91 779 398 
Q 353 888 353 1747 
Q 353 2609 779 3096 
Q 1206 3584 1959 3584 
z
" transform="scale(0.015625)"/>
      <path id="DejaVuSans-75" d="M 544 1381 
L 544 3500 
L 1119 3500 
L 1119 1403 
Q 1119 906 1312 657 
Q 1506 409 1894 409 
Q 2359 409 2629 706 
Q 2900 1003 2900 1516 
L 2900 3500 
L 3475 3500 
L 3475 0 
L 2900 0 
L 2900 538 
Q 2691 219 2414 64 
Q 2138 -91 1772 -91 
Q 1169 -91 856 284 
Q 544 659 544 1381 
z
M 1991 3584 
L 1991 3584 
z
" transform="scale(0.015625)"/>
      <path id="DejaVuSans-63" d="M 3122 3366 
L 3122 2828 
Q 2878 2963 2633 3030 
Q 2388 3097 2138 3097 
Q 1578 3097 1268 2742 
Q 959 2388 959 1747 
Q 959 1106 1268 751 
Q 1578 397 2138 397 
Q 2388 397 2633 464 
Q 2878 531 3122 666 
L 3122 134 
Q 2881 22 2623 -34 
Q 2366 -91 2075 -91 
Q 1284 -91 818 406 
Q 353 903 353 1747 
Q 353 2603 823 3093 
Q 1294 3584 2113 3584 
Q 2378 3584 2631 3529 
Q 2884 3475 3122 3366 
z
" transform="scale(0.015625)"/>
      <path id="DejaVuSans-68" d="M 3513 2113 
L 3513 0 
L 2938 0 
L 2938 2094 
Q 2938 2591 2744 2837 
Q 2550 3084 2163 3084 
Q 1697 3084 1428 2787 
Q 1159 2491 1159 1978 
L 1159 0 
L 581 0 
L 581 4863 
L 1159 4863 
L 1159 2956 
Q 1366 3272 1645 3428 
Q 1925 3584 2291 3584 
Q 2894 3584 3203 3211 
Q 3513 2838 3513 2113 
z
" transform="scale(0.015625)"/>
     </defs>
     <use xlink:href="#DejaVuSans-52"/>
     <use xlink:href="#DejaVuSans-e9" x="64.982422"/>
     <use xlink:href="#DejaVuSans-70" x="126.505859"/>
     <use xlink:href="#DejaVuSans-61" x="189.982422"/>
     <use xlink:href="#DejaVuSans-72" x="251.261719"/>
     <use xlink:href="#DejaVuSans-74" x="292.375"/>
     <use xlink:href="#DejaVuSans-69" x="331.583984"/>
     <use xlink:href="#DejaVuSans-74" x="359.367188"/>
     <use xlink:href="#DejaVuSans-69" x="398.576172"/>
     <use xlink:href="#DejaVuSans-6f" x="426.359375"/>
     <use xlink:href="#DejaVuSans-6e" x="487.541016"/>
     <use xlink:href="#DejaVuSans-20" x="550.919922"/>
     <use xlink:href="#DejaVuSans-64" x="582.707031"/>
     <use xlink:href="#DejaVuSans-75" x="646.183594"/>
     <use xlink:href="#DejaVuSans-20" x="709.5625"/>
     <use xlink:href="#DejaVuSans-74" x="741.349609"/>
     <use xlink:href="#DejaVuSans-65" x="780.558594"/>
     <use xlink:href="#DejaVuSans-6d" x="842.082031"/>
     <use xlink:href="#DejaVuSans-70" x="939.494141"/>
     <use xlink:href="#DejaVuSans-73" x="1002.970703"/>
     <use xlink:href="#DejaVuSans-20" x="1055.070312"/>
     <use xlink:href="#DejaVuSans-70" x="1086.857422"/>
     <use xlink:href="#DejaVuSans-61" x="1150.333984"/>
     <use xlink:href="#DejaVuSans-72" x="1211.613281"/>
     <use xlink:href="#DejaVuSans-20" x="1252.726562"/>
     <use xlink:href="#DejaVuSans-74" x="1284.513672"/>
     <use xlink:href="#DejaVuSans-72" x="1323.722656"/>
     <use xlink:href="#DejaVuSans-61" x="1364.835938"/>
     <use xlink:href="#DejaVuSans-6e" x="1426.115234"/>
     <use xlink:href="#DejaVuSans-63" x="1489.494141"/>
     <use xlink:href="#DejaVuSans-68" x="1544.474609"/>
     <use xlink:href="#DejaVuSans-65" x="1607.853516"/>
     <use xlink:href="#DejaVuSans-20" x="1669.376953"/>
     <use xlink:href="#DejaVuSans-64" x="1701.164062"/>
     <use xlink:href="#DejaVuSans-65" x="1764.640625"/>
     <use xlink:href="#DejaVuSans-20" x="1826.164062"/>
     <use xlink:href="#DejaVuSans-44" x="1857.951172"/>
     <use xlink:href="#DejaVuSans-65" x="1934.953125"/>
     <use xlink:href="#DejaVuSans-6c" x="1996.476562"/>
     <use xlink:href="#DejaVuSans-74" x="2024.259766"/>
     <use xlink:href="#DejaVuSans-61" x="2063.46875"/>
     <use xlink:href="#DejaVuSans-20" x="2124.748047"/>
     <use xlink:href="#DejaVuSans-61" x="2156.535156"/>
     <use xlink:href="#DejaVuSans-76" x="2217.814453"/>
     <use xlink:href="#DejaVuSans-2f" x="2276.994141"/>
     <use xlink:href="#DejaVuSans-61" x="2310.685547"/>
     <use xlink:href="#DejaVuSans-72" x="2371.964844"/>
    </g>
   </g>
   <g id="legend_1">
    <g id="patch_209">
     <path d="M 328.343438 64.150125 
L 407.72 64.150125 
Q 409.72 64.150125 409.72 62.150125 
L 409.72 48.472 
Q 409.72 46.472 407.72 46.472 
L 328.343438 46.472 
Q 326.343438 46.472 326.343438 48.472 
L 326.343438 62.150125 
Q 326.343438 64.150125 328.343438 64.150125 
z
" style="fill: #ffffff; opacity: 0.8; stroke: #cccccc; stroke-linejoin: miter"/>
    </g>
    <g id="patch_210">
     <path d="M 330.343438 58.070438 
L 350.343438 58.070438 
L 350.343438 51.070438 
L 330.343438 51.070438 
z
" style="fill: #1f77b4"/>
    </g>
    <g id="text_19">
     <!-- max : 1% -->
     <g transform="translate(358.343438 58.070438) scale(0.1 -0.1)">
      <defs>
       <path id="DejaVuSans-78" d="M 3513 3500 
L 2247 1797 
L 3578 0 
L 2900 0 
L 1881 1375 
L 863 0 
L 184 0 
L 1544 1831 
L 300 3500 
L 978 3500 
L 1906 2253 
L 2834 3500 
L 3513 3500 
z
" transform="scale(0.015625)"/>
       <path id="DejaVuSans-3a" d="M 750 794 
L 1409 794 
L 1409 0 
L 750 0 
L 750 794 
z
M 750 3309 
L 1409 3309 
L 1409 2516 
L 750 2516 
L 750 3309 
z
" transform="scale(0.015625)"/>
      </defs>
      <use xlink:href="#DejaVuSans-6d"/>
      <use xlink:href="#DejaVuSans-61" x="97.412109"/>
      <use xlink:href="#DejaVuSans-78" x="158.691406"/>
      <use xlink:href="#DejaVuSans-20" x="217.871094"/>
      <use xlink:href="#DejaVuSans-3a" x="249.658203"/>
      <use xlink:href="#DejaVuSans-20" x="283.349609"/>
      <use xlink:href="#DejaVuSans-31" x="315.136719"/>
      <use xlink:href="#DejaVuSans-25" x="378.759766"/>
     </g>
    </g>
   </g>
  </g>
 </g>
 <defs>
  <clipPath id="pf1b9005715">
   <rect x="57.6" y="41.472" width="357.12" height="266.112"/>
  </clipPath>
 </defs>
</svg>
